M48
;DRILL file {KiCad (5.0.0)} date 03/22/19 21:06:20
;FORMAT={-:-/ absolute / metric / decimal}
FMAT,2
METRIC,TZ
T1C0.300
T2C0.400
T3C0.800
T4C1.000
T5C0.500
T6C0.600
T7C0.700
%
G90
G05
M71
T1
X188.6Y-114.
X192.8Y-113.6
T2
X154.75Y-102.5
X154.75Y-105.
X154.75Y-107.5
X154.75Y-110.
X154.75Y-112.25
X154.75Y-114.5
X154.75Y-117.25
X154.75Y-120.25
X155.Y-123.
X155.Y-126.
X155.25Y-100.
X156.Y-128.
X157.25Y-108.25
X157.25Y-112.
X157.5Y-126.
X157.75Y-124.
X158.Y-113.75
X158.25Y-117.5
X158.5Y-103.5
X158.75Y-111.75
X159.Y-99.75
X159.Y-128.
X159.5Y-119.
X159.75Y-115.25
X159.75Y-126.
X159.795Y-122.454
X160.25Y-124.5
X160.75Y-109.25
X161.5Y-99.75
X161.5Y-110.25
X161.5Y-120.25
X161.75Y-102.25
X162.Y-128.
X162.75Y-103.5
X162.75Y-118.75
X163.5Y-110.75
X163.5Y-113.75
X163.5Y-116.5
X164.Y-99.75
X164.351Y-108.425
X164.5Y-120.25
X165.Y-112.75
X165.Y-128.
X165.25Y-115.
X165.75Y-102.75
X165.75Y-104.5
X166.5Y-99.75
X167.5Y-105.5
X167.5Y-118.25
X167.75Y-108.75
X167.75Y-120.25
X168.Y-128.
X169.Y-102.75
X169.Y-117.25
X169.25Y-103.75
X169.25Y-114.5
X170.25Y-99.5
X170.75Y-120.25
X171.Y-128.
X171.5Y-114.75
X172.Y-117.25
X172.5Y-99.5
X172.75Y-104.
X172.75Y-108.25
X172.75Y-112.75
X174.Y-106.25
X174.Y-110.5
X174.Y-128.
X174.25Y-120.25
X174.5Y-114.75
X174.75Y-117.25
X175.Y-99.5
X175.75Y-112.75
X176.Y-108.25
X176.Y-110.5
X176.25Y-104.5
X176.75Y-120.25
X177.Y-128.
X177.75Y-99.5
X177.75Y-117.75
X178.5Y-101.
X179.5Y-102.25
X179.75Y-120.25
X180.Y-99.5
X180.Y-104.
X180.Y-128.
X180.25Y-106.25
X180.25Y-111.25
X180.75Y-109.5
X181.Y-101.
X181.75Y-104.25
X182.Y-102.5
X182.25Y-106.25
X182.5Y-99.5
X182.75Y-120.25
X183.Y-101.
X183.Y-128.
X183.25Y-111.75
X183.25Y-107.
X183.25Y-108.
X183.5Y-109.75
X183.75Y-104.
X184.5Y-112.75
X185.Y-99.5
X186.Y-120.25
X186.Y-128.
X186.25Y-118.
X187.Y-109.5
X187.25Y-111.5
X187.4Y-114.
X187.5Y-99.5
X187.75Y-104.75
X187.75Y-108.5
X188.75Y-120.75
X188.75Y-123.
X188.75Y-125.5
X189.Y-128.
X190.Y-99.5
X190.Y-104.5
X191.75Y-100.
X191.75Y-127.75
X192.Y-120.5
X192.Y-123.
X192.Y-125.5
X192.25Y-103.75
T3
X181.75Y-115.
X181.75Y-117.
T4
X168.75Y-100.75
X171.29Y-100.75
X173.83Y-100.75
X176.37Y-100.75
X162.1Y-122.51
X162.1Y-125.05
X164.64Y-122.51
X164.64Y-125.05
X167.18Y-122.51
X167.18Y-125.05
X169.72Y-122.51
X169.72Y-125.05
X172.26Y-122.51
X172.26Y-125.05
X174.8Y-122.51
X174.8Y-125.05
X177.34Y-122.51
X177.34Y-125.05
X179.88Y-122.51
X179.88Y-125.05
X182.42Y-122.51
X182.42Y-125.05
X184.96Y-122.51
X184.96Y-125.05
T6
X192.75Y-117.5
T5
X192.685Y-110.475G85X192.685Y-110.125
G05
T6
X190.05Y-109.58G85X191.45Y-109.58
G05
X190.05Y-118.22G85X191.45Y-118.22
G05
T7
X191.4Y-110.175G85X191.4Y-109.625
G05
X191.4Y-118.175G85X191.4Y-117.625
G05
X195.05Y-109.58G85X196.55Y-109.58
G05
X195.05Y-118.22G85X196.55Y-118.22
G05
T0
M30
