G04 #@! TF.GenerationSoftware,KiCad,Pcbnew,(5.0.0)*
G04 #@! TF.CreationDate,2019-03-22T21:06:18+01:00*
G04 #@! TF.ProjectId,converterboard,636F6E766572746572626F6172642E6B,rev?*
G04 #@! TF.SameCoordinates,Original*
G04 #@! TF.FileFunction,Soldermask,Top*
G04 #@! TF.FilePolarity,Negative*
%FSLAX46Y46*%
G04 Gerber Fmt 4.6, Leading zero omitted, Abs format (unit mm)*
G04 Created by KiCad (PCBNEW (5.0.0)) date 03/22/19 21:06:18*
%MOMM*%
%LPD*%
G01*
G04 APERTURE LIST*
%ADD10O,2.700000X1.600000*%
%ADD11O,1.500000X1.750000*%
%ADD12R,1.200000X0.670000*%
%ADD13R,1.300000X0.670000*%
%ADD14O,0.900000X1.250000*%
%ADD15C,1.000000*%
%ADD16O,3.000000X1.700000*%
%ADD17C,0.100000*%
%ADD18C,1.275000*%
%ADD19R,2.100000X2.100000*%
%ADD20O,2.100000X2.100000*%
%ADD21R,1.850000X0.850000*%
%ADD22R,2.000000X2.000000*%
%ADD23C,2.000000*%
%ADD24C,1.650000*%
%ADD25R,0.800000X4.300000*%
%ADD26R,0.720000X2.120000*%
%ADD27R,0.820000X4.320000*%
%ADD28R,2.150000X0.850000*%
%ADD29C,1.375000*%
G04 APERTURE END LIST*
D10*
G04 #@! TO.C,J4*
X190750000Y-109580000D03*
D11*
X191400000Y-109900000D03*
D12*
X191650000Y-111765000D03*
X191650000Y-112765000D03*
X191650000Y-112265000D03*
X191650000Y-111265000D03*
X191650000Y-113765000D03*
X191650000Y-114775000D03*
X191650000Y-114275000D03*
X191650000Y-113265000D03*
X191650000Y-115775000D03*
X191650000Y-115275000D03*
X191650000Y-116275000D03*
X191650000Y-116775000D03*
D13*
X190050000Y-112025000D03*
X190050000Y-111025000D03*
X190050000Y-112525000D03*
X190050000Y-111525000D03*
X190050000Y-113525000D03*
X190050000Y-113025000D03*
X190050000Y-114025000D03*
X190050000Y-115025000D03*
X190050000Y-114525000D03*
X190050000Y-115525000D03*
X190050000Y-116025000D03*
X190050000Y-116525000D03*
D11*
X191400000Y-117900000D03*
D10*
X190750000Y-118220000D03*
D14*
X192685000Y-110300000D03*
D15*
X192750000Y-117500000D03*
D16*
X195800000Y-118220000D03*
X195800000Y-109580000D03*
G04 #@! TD*
D17*
G04 #@! TO.C,L2*
G36*
X188587493Y-115776535D02*
X188618435Y-115781125D01*
X188648778Y-115788725D01*
X188678230Y-115799263D01*
X188706508Y-115812638D01*
X188733338Y-115828719D01*
X188758463Y-115847353D01*
X188781640Y-115868360D01*
X188802647Y-115891537D01*
X188821281Y-115916662D01*
X188837362Y-115943492D01*
X188850737Y-115971770D01*
X188861275Y-116001222D01*
X188868875Y-116031565D01*
X188873465Y-116062507D01*
X188875000Y-116093750D01*
X188875000Y-116731250D01*
X188873465Y-116762493D01*
X188868875Y-116793435D01*
X188861275Y-116823778D01*
X188850737Y-116853230D01*
X188837362Y-116881508D01*
X188821281Y-116908338D01*
X188802647Y-116933463D01*
X188781640Y-116956640D01*
X188758463Y-116977647D01*
X188733338Y-116996281D01*
X188706508Y-117012362D01*
X188678230Y-117025737D01*
X188648778Y-117036275D01*
X188618435Y-117043875D01*
X188587493Y-117048465D01*
X188556250Y-117050000D01*
X187843750Y-117050000D01*
X187812507Y-117048465D01*
X187781565Y-117043875D01*
X187751222Y-117036275D01*
X187721770Y-117025737D01*
X187693492Y-117012362D01*
X187666662Y-116996281D01*
X187641537Y-116977647D01*
X187618360Y-116956640D01*
X187597353Y-116933463D01*
X187578719Y-116908338D01*
X187562638Y-116881508D01*
X187549263Y-116853230D01*
X187538725Y-116823778D01*
X187531125Y-116793435D01*
X187526535Y-116762493D01*
X187525000Y-116731250D01*
X187525000Y-116093750D01*
X187526535Y-116062507D01*
X187531125Y-116031565D01*
X187538725Y-116001222D01*
X187549263Y-115971770D01*
X187562638Y-115943492D01*
X187578719Y-115916662D01*
X187597353Y-115891537D01*
X187618360Y-115868360D01*
X187641537Y-115847353D01*
X187666662Y-115828719D01*
X187693492Y-115812638D01*
X187721770Y-115799263D01*
X187751222Y-115788725D01*
X187781565Y-115781125D01*
X187812507Y-115776535D01*
X187843750Y-115775000D01*
X188556250Y-115775000D01*
X188587493Y-115776535D01*
X188587493Y-115776535D01*
G37*
D18*
X188200000Y-116412500D03*
D17*
G36*
X188587493Y-117351535D02*
X188618435Y-117356125D01*
X188648778Y-117363725D01*
X188678230Y-117374263D01*
X188706508Y-117387638D01*
X188733338Y-117403719D01*
X188758463Y-117422353D01*
X188781640Y-117443360D01*
X188802647Y-117466537D01*
X188821281Y-117491662D01*
X188837362Y-117518492D01*
X188850737Y-117546770D01*
X188861275Y-117576222D01*
X188868875Y-117606565D01*
X188873465Y-117637507D01*
X188875000Y-117668750D01*
X188875000Y-118306250D01*
X188873465Y-118337493D01*
X188868875Y-118368435D01*
X188861275Y-118398778D01*
X188850737Y-118428230D01*
X188837362Y-118456508D01*
X188821281Y-118483338D01*
X188802647Y-118508463D01*
X188781640Y-118531640D01*
X188758463Y-118552647D01*
X188733338Y-118571281D01*
X188706508Y-118587362D01*
X188678230Y-118600737D01*
X188648778Y-118611275D01*
X188618435Y-118618875D01*
X188587493Y-118623465D01*
X188556250Y-118625000D01*
X187843750Y-118625000D01*
X187812507Y-118623465D01*
X187781565Y-118618875D01*
X187751222Y-118611275D01*
X187721770Y-118600737D01*
X187693492Y-118587362D01*
X187666662Y-118571281D01*
X187641537Y-118552647D01*
X187618360Y-118531640D01*
X187597353Y-118508463D01*
X187578719Y-118483338D01*
X187562638Y-118456508D01*
X187549263Y-118428230D01*
X187538725Y-118398778D01*
X187531125Y-118368435D01*
X187526535Y-118337493D01*
X187525000Y-118306250D01*
X187525000Y-117668750D01*
X187526535Y-117637507D01*
X187531125Y-117606565D01*
X187538725Y-117576222D01*
X187549263Y-117546770D01*
X187562638Y-117518492D01*
X187578719Y-117491662D01*
X187597353Y-117466537D01*
X187618360Y-117443360D01*
X187641537Y-117422353D01*
X187666662Y-117403719D01*
X187693492Y-117387638D01*
X187721770Y-117374263D01*
X187751222Y-117363725D01*
X187781565Y-117356125D01*
X187812507Y-117351535D01*
X187843750Y-117350000D01*
X188556250Y-117350000D01*
X188587493Y-117351535D01*
X188587493Y-117351535D01*
G37*
D18*
X188200000Y-117987500D03*
G04 #@! TD*
D19*
G04 #@! TO.C,J3*
X168750000Y-100750000D03*
D20*
X171290000Y-100750000D03*
X173830000Y-100750000D03*
X176370000Y-100750000D03*
G04 #@! TD*
D21*
G04 #@! TO.C,U2*
X161550000Y-111325000D03*
X161550000Y-111975000D03*
X161550000Y-112625000D03*
X161550000Y-113275000D03*
X161550000Y-113925000D03*
X161550000Y-114575000D03*
X161550000Y-115225000D03*
X161550000Y-115875000D03*
X161550000Y-116525000D03*
X161550000Y-117175000D03*
X167450000Y-117175000D03*
X167450000Y-116525000D03*
X167450000Y-115875000D03*
X167450000Y-115225000D03*
X167450000Y-114575000D03*
X167450000Y-113925000D03*
X167450000Y-113275000D03*
X167450000Y-112625000D03*
X167450000Y-111975000D03*
X167450000Y-111325000D03*
G04 #@! TD*
D20*
G04 #@! TO.C,J2*
X184960000Y-122510000D03*
X184960000Y-125050000D03*
X182420000Y-122510000D03*
X182420000Y-125050000D03*
X179880000Y-122510000D03*
X179880000Y-125050000D03*
X177340000Y-122510000D03*
X177340000Y-125050000D03*
X174800000Y-122510000D03*
X174800000Y-125050000D03*
X172260000Y-122510000D03*
X172260000Y-125050000D03*
X169720000Y-122510000D03*
X169720000Y-125050000D03*
X167180000Y-122510000D03*
X167180000Y-125050000D03*
X164640000Y-122510000D03*
X164640000Y-125050000D03*
X162100000Y-122510000D03*
D19*
X162100000Y-125050000D03*
G04 #@! TD*
D17*
G04 #@! TO.C,C5*
G36*
X168137493Y-108076535D02*
X168168435Y-108081125D01*
X168198778Y-108088725D01*
X168228230Y-108099263D01*
X168256508Y-108112638D01*
X168283338Y-108128719D01*
X168308463Y-108147353D01*
X168331640Y-108168360D01*
X168352647Y-108191537D01*
X168371281Y-108216662D01*
X168387362Y-108243492D01*
X168400737Y-108271770D01*
X168411275Y-108301222D01*
X168418875Y-108331565D01*
X168423465Y-108362507D01*
X168425000Y-108393750D01*
X168425000Y-109106250D01*
X168423465Y-109137493D01*
X168418875Y-109168435D01*
X168411275Y-109198778D01*
X168400737Y-109228230D01*
X168387362Y-109256508D01*
X168371281Y-109283338D01*
X168352647Y-109308463D01*
X168331640Y-109331640D01*
X168308463Y-109352647D01*
X168283338Y-109371281D01*
X168256508Y-109387362D01*
X168228230Y-109400737D01*
X168198778Y-109411275D01*
X168168435Y-109418875D01*
X168137493Y-109423465D01*
X168106250Y-109425000D01*
X167468750Y-109425000D01*
X167437507Y-109423465D01*
X167406565Y-109418875D01*
X167376222Y-109411275D01*
X167346770Y-109400737D01*
X167318492Y-109387362D01*
X167291662Y-109371281D01*
X167266537Y-109352647D01*
X167243360Y-109331640D01*
X167222353Y-109308463D01*
X167203719Y-109283338D01*
X167187638Y-109256508D01*
X167174263Y-109228230D01*
X167163725Y-109198778D01*
X167156125Y-109168435D01*
X167151535Y-109137493D01*
X167150000Y-109106250D01*
X167150000Y-108393750D01*
X167151535Y-108362507D01*
X167156125Y-108331565D01*
X167163725Y-108301222D01*
X167174263Y-108271770D01*
X167187638Y-108243492D01*
X167203719Y-108216662D01*
X167222353Y-108191537D01*
X167243360Y-108168360D01*
X167266537Y-108147353D01*
X167291662Y-108128719D01*
X167318492Y-108112638D01*
X167346770Y-108099263D01*
X167376222Y-108088725D01*
X167406565Y-108081125D01*
X167437507Y-108076535D01*
X167468750Y-108075000D01*
X168106250Y-108075000D01*
X168137493Y-108076535D01*
X168137493Y-108076535D01*
G37*
D18*
X167787500Y-108750000D03*
D17*
G36*
X166562493Y-108076535D02*
X166593435Y-108081125D01*
X166623778Y-108088725D01*
X166653230Y-108099263D01*
X166681508Y-108112638D01*
X166708338Y-108128719D01*
X166733463Y-108147353D01*
X166756640Y-108168360D01*
X166777647Y-108191537D01*
X166796281Y-108216662D01*
X166812362Y-108243492D01*
X166825737Y-108271770D01*
X166836275Y-108301222D01*
X166843875Y-108331565D01*
X166848465Y-108362507D01*
X166850000Y-108393750D01*
X166850000Y-109106250D01*
X166848465Y-109137493D01*
X166843875Y-109168435D01*
X166836275Y-109198778D01*
X166825737Y-109228230D01*
X166812362Y-109256508D01*
X166796281Y-109283338D01*
X166777647Y-109308463D01*
X166756640Y-109331640D01*
X166733463Y-109352647D01*
X166708338Y-109371281D01*
X166681508Y-109387362D01*
X166653230Y-109400737D01*
X166623778Y-109411275D01*
X166593435Y-109418875D01*
X166562493Y-109423465D01*
X166531250Y-109425000D01*
X165893750Y-109425000D01*
X165862507Y-109423465D01*
X165831565Y-109418875D01*
X165801222Y-109411275D01*
X165771770Y-109400737D01*
X165743492Y-109387362D01*
X165716662Y-109371281D01*
X165691537Y-109352647D01*
X165668360Y-109331640D01*
X165647353Y-109308463D01*
X165628719Y-109283338D01*
X165612638Y-109256508D01*
X165599263Y-109228230D01*
X165588725Y-109198778D01*
X165581125Y-109168435D01*
X165576535Y-109137493D01*
X165575000Y-109106250D01*
X165575000Y-108393750D01*
X165576535Y-108362507D01*
X165581125Y-108331565D01*
X165588725Y-108301222D01*
X165599263Y-108271770D01*
X165612638Y-108243492D01*
X165628719Y-108216662D01*
X165647353Y-108191537D01*
X165668360Y-108168360D01*
X165691537Y-108147353D01*
X165716662Y-108128719D01*
X165743492Y-108112638D01*
X165771770Y-108099263D01*
X165801222Y-108088725D01*
X165831565Y-108081125D01*
X165862507Y-108076535D01*
X165893750Y-108075000D01*
X166531250Y-108075000D01*
X166562493Y-108076535D01*
X166562493Y-108076535D01*
G37*
D18*
X166212500Y-108750000D03*
G04 #@! TD*
D17*
G04 #@! TO.C,C4*
G36*
X159137493Y-109576535D02*
X159168435Y-109581125D01*
X159198778Y-109588725D01*
X159228230Y-109599263D01*
X159256508Y-109612638D01*
X159283338Y-109628719D01*
X159308463Y-109647353D01*
X159331640Y-109668360D01*
X159352647Y-109691537D01*
X159371281Y-109716662D01*
X159387362Y-109743492D01*
X159400737Y-109771770D01*
X159411275Y-109801222D01*
X159418875Y-109831565D01*
X159423465Y-109862507D01*
X159425000Y-109893750D01*
X159425000Y-110531250D01*
X159423465Y-110562493D01*
X159418875Y-110593435D01*
X159411275Y-110623778D01*
X159400737Y-110653230D01*
X159387362Y-110681508D01*
X159371281Y-110708338D01*
X159352647Y-110733463D01*
X159331640Y-110756640D01*
X159308463Y-110777647D01*
X159283338Y-110796281D01*
X159256508Y-110812362D01*
X159228230Y-110825737D01*
X159198778Y-110836275D01*
X159168435Y-110843875D01*
X159137493Y-110848465D01*
X159106250Y-110850000D01*
X158393750Y-110850000D01*
X158362507Y-110848465D01*
X158331565Y-110843875D01*
X158301222Y-110836275D01*
X158271770Y-110825737D01*
X158243492Y-110812362D01*
X158216662Y-110796281D01*
X158191537Y-110777647D01*
X158168360Y-110756640D01*
X158147353Y-110733463D01*
X158128719Y-110708338D01*
X158112638Y-110681508D01*
X158099263Y-110653230D01*
X158088725Y-110623778D01*
X158081125Y-110593435D01*
X158076535Y-110562493D01*
X158075000Y-110531250D01*
X158075000Y-109893750D01*
X158076535Y-109862507D01*
X158081125Y-109831565D01*
X158088725Y-109801222D01*
X158099263Y-109771770D01*
X158112638Y-109743492D01*
X158128719Y-109716662D01*
X158147353Y-109691537D01*
X158168360Y-109668360D01*
X158191537Y-109647353D01*
X158216662Y-109628719D01*
X158243492Y-109612638D01*
X158271770Y-109599263D01*
X158301222Y-109588725D01*
X158331565Y-109581125D01*
X158362507Y-109576535D01*
X158393750Y-109575000D01*
X159106250Y-109575000D01*
X159137493Y-109576535D01*
X159137493Y-109576535D01*
G37*
D18*
X158750000Y-110212500D03*
D17*
G36*
X159137493Y-111151535D02*
X159168435Y-111156125D01*
X159198778Y-111163725D01*
X159228230Y-111174263D01*
X159256508Y-111187638D01*
X159283338Y-111203719D01*
X159308463Y-111222353D01*
X159331640Y-111243360D01*
X159352647Y-111266537D01*
X159371281Y-111291662D01*
X159387362Y-111318492D01*
X159400737Y-111346770D01*
X159411275Y-111376222D01*
X159418875Y-111406565D01*
X159423465Y-111437507D01*
X159425000Y-111468750D01*
X159425000Y-112106250D01*
X159423465Y-112137493D01*
X159418875Y-112168435D01*
X159411275Y-112198778D01*
X159400737Y-112228230D01*
X159387362Y-112256508D01*
X159371281Y-112283338D01*
X159352647Y-112308463D01*
X159331640Y-112331640D01*
X159308463Y-112352647D01*
X159283338Y-112371281D01*
X159256508Y-112387362D01*
X159228230Y-112400737D01*
X159198778Y-112411275D01*
X159168435Y-112418875D01*
X159137493Y-112423465D01*
X159106250Y-112425000D01*
X158393750Y-112425000D01*
X158362507Y-112423465D01*
X158331565Y-112418875D01*
X158301222Y-112411275D01*
X158271770Y-112400737D01*
X158243492Y-112387362D01*
X158216662Y-112371281D01*
X158191537Y-112352647D01*
X158168360Y-112331640D01*
X158147353Y-112308463D01*
X158128719Y-112283338D01*
X158112638Y-112256508D01*
X158099263Y-112228230D01*
X158088725Y-112198778D01*
X158081125Y-112168435D01*
X158076535Y-112137493D01*
X158075000Y-112106250D01*
X158075000Y-111468750D01*
X158076535Y-111437507D01*
X158081125Y-111406565D01*
X158088725Y-111376222D01*
X158099263Y-111346770D01*
X158112638Y-111318492D01*
X158128719Y-111291662D01*
X158147353Y-111266537D01*
X158168360Y-111243360D01*
X158191537Y-111222353D01*
X158216662Y-111203719D01*
X158243492Y-111187638D01*
X158271770Y-111174263D01*
X158301222Y-111163725D01*
X158331565Y-111156125D01*
X158362507Y-111151535D01*
X158393750Y-111150000D01*
X159106250Y-111150000D01*
X159137493Y-111151535D01*
X159137493Y-111151535D01*
G37*
D18*
X158750000Y-111787500D03*
G04 #@! TD*
D17*
G04 #@! TO.C,C3*
G36*
X178137493Y-117151535D02*
X178168435Y-117156125D01*
X178198778Y-117163725D01*
X178228230Y-117174263D01*
X178256508Y-117187638D01*
X178283338Y-117203719D01*
X178308463Y-117222353D01*
X178331640Y-117243360D01*
X178352647Y-117266537D01*
X178371281Y-117291662D01*
X178387362Y-117318492D01*
X178400737Y-117346770D01*
X178411275Y-117376222D01*
X178418875Y-117406565D01*
X178423465Y-117437507D01*
X178425000Y-117468750D01*
X178425000Y-118106250D01*
X178423465Y-118137493D01*
X178418875Y-118168435D01*
X178411275Y-118198778D01*
X178400737Y-118228230D01*
X178387362Y-118256508D01*
X178371281Y-118283338D01*
X178352647Y-118308463D01*
X178331640Y-118331640D01*
X178308463Y-118352647D01*
X178283338Y-118371281D01*
X178256508Y-118387362D01*
X178228230Y-118400737D01*
X178198778Y-118411275D01*
X178168435Y-118418875D01*
X178137493Y-118423465D01*
X178106250Y-118425000D01*
X177393750Y-118425000D01*
X177362507Y-118423465D01*
X177331565Y-118418875D01*
X177301222Y-118411275D01*
X177271770Y-118400737D01*
X177243492Y-118387362D01*
X177216662Y-118371281D01*
X177191537Y-118352647D01*
X177168360Y-118331640D01*
X177147353Y-118308463D01*
X177128719Y-118283338D01*
X177112638Y-118256508D01*
X177099263Y-118228230D01*
X177088725Y-118198778D01*
X177081125Y-118168435D01*
X177076535Y-118137493D01*
X177075000Y-118106250D01*
X177075000Y-117468750D01*
X177076535Y-117437507D01*
X177081125Y-117406565D01*
X177088725Y-117376222D01*
X177099263Y-117346770D01*
X177112638Y-117318492D01*
X177128719Y-117291662D01*
X177147353Y-117266537D01*
X177168360Y-117243360D01*
X177191537Y-117222353D01*
X177216662Y-117203719D01*
X177243492Y-117187638D01*
X177271770Y-117174263D01*
X177301222Y-117163725D01*
X177331565Y-117156125D01*
X177362507Y-117151535D01*
X177393750Y-117150000D01*
X178106250Y-117150000D01*
X178137493Y-117151535D01*
X178137493Y-117151535D01*
G37*
D18*
X177750000Y-117787500D03*
D17*
G36*
X178137493Y-115576535D02*
X178168435Y-115581125D01*
X178198778Y-115588725D01*
X178228230Y-115599263D01*
X178256508Y-115612638D01*
X178283338Y-115628719D01*
X178308463Y-115647353D01*
X178331640Y-115668360D01*
X178352647Y-115691537D01*
X178371281Y-115716662D01*
X178387362Y-115743492D01*
X178400737Y-115771770D01*
X178411275Y-115801222D01*
X178418875Y-115831565D01*
X178423465Y-115862507D01*
X178425000Y-115893750D01*
X178425000Y-116531250D01*
X178423465Y-116562493D01*
X178418875Y-116593435D01*
X178411275Y-116623778D01*
X178400737Y-116653230D01*
X178387362Y-116681508D01*
X178371281Y-116708338D01*
X178352647Y-116733463D01*
X178331640Y-116756640D01*
X178308463Y-116777647D01*
X178283338Y-116796281D01*
X178256508Y-116812362D01*
X178228230Y-116825737D01*
X178198778Y-116836275D01*
X178168435Y-116843875D01*
X178137493Y-116848465D01*
X178106250Y-116850000D01*
X177393750Y-116850000D01*
X177362507Y-116848465D01*
X177331565Y-116843875D01*
X177301222Y-116836275D01*
X177271770Y-116825737D01*
X177243492Y-116812362D01*
X177216662Y-116796281D01*
X177191537Y-116777647D01*
X177168360Y-116756640D01*
X177147353Y-116733463D01*
X177128719Y-116708338D01*
X177112638Y-116681508D01*
X177099263Y-116653230D01*
X177088725Y-116623778D01*
X177081125Y-116593435D01*
X177076535Y-116562493D01*
X177075000Y-116531250D01*
X177075000Y-115893750D01*
X177076535Y-115862507D01*
X177081125Y-115831565D01*
X177088725Y-115801222D01*
X177099263Y-115771770D01*
X177112638Y-115743492D01*
X177128719Y-115716662D01*
X177147353Y-115691537D01*
X177168360Y-115668360D01*
X177191537Y-115647353D01*
X177216662Y-115628719D01*
X177243492Y-115612638D01*
X177271770Y-115599263D01*
X177301222Y-115588725D01*
X177331565Y-115581125D01*
X177362507Y-115576535D01*
X177393750Y-115575000D01*
X178106250Y-115575000D01*
X178137493Y-115576535D01*
X178137493Y-115576535D01*
G37*
D18*
X177750000Y-116212500D03*
G04 #@! TD*
D17*
G04 #@! TO.C,C1*
G36*
X186637493Y-115826535D02*
X186668435Y-115831125D01*
X186698778Y-115838725D01*
X186728230Y-115849263D01*
X186756508Y-115862638D01*
X186783338Y-115878719D01*
X186808463Y-115897353D01*
X186831640Y-115918360D01*
X186852647Y-115941537D01*
X186871281Y-115966662D01*
X186887362Y-115993492D01*
X186900737Y-116021770D01*
X186911275Y-116051222D01*
X186918875Y-116081565D01*
X186923465Y-116112507D01*
X186925000Y-116143750D01*
X186925000Y-116781250D01*
X186923465Y-116812493D01*
X186918875Y-116843435D01*
X186911275Y-116873778D01*
X186900737Y-116903230D01*
X186887362Y-116931508D01*
X186871281Y-116958338D01*
X186852647Y-116983463D01*
X186831640Y-117006640D01*
X186808463Y-117027647D01*
X186783338Y-117046281D01*
X186756508Y-117062362D01*
X186728230Y-117075737D01*
X186698778Y-117086275D01*
X186668435Y-117093875D01*
X186637493Y-117098465D01*
X186606250Y-117100000D01*
X185893750Y-117100000D01*
X185862507Y-117098465D01*
X185831565Y-117093875D01*
X185801222Y-117086275D01*
X185771770Y-117075737D01*
X185743492Y-117062362D01*
X185716662Y-117046281D01*
X185691537Y-117027647D01*
X185668360Y-117006640D01*
X185647353Y-116983463D01*
X185628719Y-116958338D01*
X185612638Y-116931508D01*
X185599263Y-116903230D01*
X185588725Y-116873778D01*
X185581125Y-116843435D01*
X185576535Y-116812493D01*
X185575000Y-116781250D01*
X185575000Y-116143750D01*
X185576535Y-116112507D01*
X185581125Y-116081565D01*
X185588725Y-116051222D01*
X185599263Y-116021770D01*
X185612638Y-115993492D01*
X185628719Y-115966662D01*
X185647353Y-115941537D01*
X185668360Y-115918360D01*
X185691537Y-115897353D01*
X185716662Y-115878719D01*
X185743492Y-115862638D01*
X185771770Y-115849263D01*
X185801222Y-115838725D01*
X185831565Y-115831125D01*
X185862507Y-115826535D01*
X185893750Y-115825000D01*
X186606250Y-115825000D01*
X186637493Y-115826535D01*
X186637493Y-115826535D01*
G37*
D18*
X186250000Y-116462500D03*
D17*
G36*
X186637493Y-117401535D02*
X186668435Y-117406125D01*
X186698778Y-117413725D01*
X186728230Y-117424263D01*
X186756508Y-117437638D01*
X186783338Y-117453719D01*
X186808463Y-117472353D01*
X186831640Y-117493360D01*
X186852647Y-117516537D01*
X186871281Y-117541662D01*
X186887362Y-117568492D01*
X186900737Y-117596770D01*
X186911275Y-117626222D01*
X186918875Y-117656565D01*
X186923465Y-117687507D01*
X186925000Y-117718750D01*
X186925000Y-118356250D01*
X186923465Y-118387493D01*
X186918875Y-118418435D01*
X186911275Y-118448778D01*
X186900737Y-118478230D01*
X186887362Y-118506508D01*
X186871281Y-118533338D01*
X186852647Y-118558463D01*
X186831640Y-118581640D01*
X186808463Y-118602647D01*
X186783338Y-118621281D01*
X186756508Y-118637362D01*
X186728230Y-118650737D01*
X186698778Y-118661275D01*
X186668435Y-118668875D01*
X186637493Y-118673465D01*
X186606250Y-118675000D01*
X185893750Y-118675000D01*
X185862507Y-118673465D01*
X185831565Y-118668875D01*
X185801222Y-118661275D01*
X185771770Y-118650737D01*
X185743492Y-118637362D01*
X185716662Y-118621281D01*
X185691537Y-118602647D01*
X185668360Y-118581640D01*
X185647353Y-118558463D01*
X185628719Y-118533338D01*
X185612638Y-118506508D01*
X185599263Y-118478230D01*
X185588725Y-118448778D01*
X185581125Y-118418435D01*
X185576535Y-118387493D01*
X185575000Y-118356250D01*
X185575000Y-117718750D01*
X185576535Y-117687507D01*
X185581125Y-117656565D01*
X185588725Y-117626222D01*
X185599263Y-117596770D01*
X185612638Y-117568492D01*
X185628719Y-117541662D01*
X185647353Y-117516537D01*
X185668360Y-117493360D01*
X185691537Y-117472353D01*
X185716662Y-117453719D01*
X185743492Y-117437638D01*
X185771770Y-117424263D01*
X185801222Y-117413725D01*
X185831565Y-117406125D01*
X185862507Y-117401535D01*
X185893750Y-117400000D01*
X186606250Y-117400000D01*
X186637493Y-117401535D01*
X186637493Y-117401535D01*
G37*
D18*
X186250000Y-118037500D03*
G04 #@! TD*
D22*
G04 #@! TO.C,C2*
X181750000Y-115000000D03*
D23*
X181750000Y-117000000D03*
G04 #@! TD*
D17*
G04 #@! TO.C,D2*
G36*
X188877346Y-105426589D02*
X188909380Y-105431341D01*
X188940794Y-105439210D01*
X188971286Y-105450120D01*
X189000561Y-105463966D01*
X189028338Y-105480615D01*
X189054350Y-105499907D01*
X189078345Y-105521655D01*
X189100093Y-105545650D01*
X189119385Y-105571662D01*
X189136034Y-105599439D01*
X189149880Y-105628714D01*
X189160790Y-105659206D01*
X189168659Y-105690620D01*
X189173411Y-105722654D01*
X189175000Y-105755000D01*
X189175000Y-107245000D01*
X189173411Y-107277346D01*
X189168659Y-107309380D01*
X189160790Y-107340794D01*
X189149880Y-107371286D01*
X189136034Y-107400561D01*
X189119385Y-107428338D01*
X189100093Y-107454350D01*
X189078345Y-107478345D01*
X189054350Y-107500093D01*
X189028338Y-107519385D01*
X189000561Y-107536034D01*
X188971286Y-107549880D01*
X188940794Y-107560790D01*
X188909380Y-107568659D01*
X188877346Y-107573411D01*
X188845000Y-107575000D01*
X187855000Y-107575000D01*
X187822654Y-107573411D01*
X187790620Y-107568659D01*
X187759206Y-107560790D01*
X187728714Y-107549880D01*
X187699439Y-107536034D01*
X187671662Y-107519385D01*
X187645650Y-107500093D01*
X187621655Y-107478345D01*
X187599907Y-107454350D01*
X187580615Y-107428338D01*
X187563966Y-107400561D01*
X187550120Y-107371286D01*
X187539210Y-107340794D01*
X187531341Y-107309380D01*
X187526589Y-107277346D01*
X187525000Y-107245000D01*
X187525000Y-105755000D01*
X187526589Y-105722654D01*
X187531341Y-105690620D01*
X187539210Y-105659206D01*
X187550120Y-105628714D01*
X187563966Y-105599439D01*
X187580615Y-105571662D01*
X187599907Y-105545650D01*
X187621655Y-105521655D01*
X187645650Y-105499907D01*
X187671662Y-105480615D01*
X187699439Y-105463966D01*
X187728714Y-105450120D01*
X187759206Y-105439210D01*
X187790620Y-105431341D01*
X187822654Y-105426589D01*
X187855000Y-105425000D01*
X188845000Y-105425000D01*
X188877346Y-105426589D01*
X188877346Y-105426589D01*
G37*
D24*
X188350000Y-106500000D03*
D17*
G36*
X191677346Y-105426589D02*
X191709380Y-105431341D01*
X191740794Y-105439210D01*
X191771286Y-105450120D01*
X191800561Y-105463966D01*
X191828338Y-105480615D01*
X191854350Y-105499907D01*
X191878345Y-105521655D01*
X191900093Y-105545650D01*
X191919385Y-105571662D01*
X191936034Y-105599439D01*
X191949880Y-105628714D01*
X191960790Y-105659206D01*
X191968659Y-105690620D01*
X191973411Y-105722654D01*
X191975000Y-105755000D01*
X191975000Y-107245000D01*
X191973411Y-107277346D01*
X191968659Y-107309380D01*
X191960790Y-107340794D01*
X191949880Y-107371286D01*
X191936034Y-107400561D01*
X191919385Y-107428338D01*
X191900093Y-107454350D01*
X191878345Y-107478345D01*
X191854350Y-107500093D01*
X191828338Y-107519385D01*
X191800561Y-107536034D01*
X191771286Y-107549880D01*
X191740794Y-107560790D01*
X191709380Y-107568659D01*
X191677346Y-107573411D01*
X191645000Y-107575000D01*
X190655000Y-107575000D01*
X190622654Y-107573411D01*
X190590620Y-107568659D01*
X190559206Y-107560790D01*
X190528714Y-107549880D01*
X190499439Y-107536034D01*
X190471662Y-107519385D01*
X190445650Y-107500093D01*
X190421655Y-107478345D01*
X190399907Y-107454350D01*
X190380615Y-107428338D01*
X190363966Y-107400561D01*
X190350120Y-107371286D01*
X190339210Y-107340794D01*
X190331341Y-107309380D01*
X190326589Y-107277346D01*
X190325000Y-107245000D01*
X190325000Y-105755000D01*
X190326589Y-105722654D01*
X190331341Y-105690620D01*
X190339210Y-105659206D01*
X190350120Y-105628714D01*
X190363966Y-105599439D01*
X190380615Y-105571662D01*
X190399907Y-105545650D01*
X190421655Y-105521655D01*
X190445650Y-105499907D01*
X190471662Y-105480615D01*
X190499439Y-105463966D01*
X190528714Y-105450120D01*
X190559206Y-105439210D01*
X190590620Y-105431341D01*
X190622654Y-105426589D01*
X190655000Y-105425000D01*
X191645000Y-105425000D01*
X191677346Y-105426589D01*
X191677346Y-105426589D01*
G37*
D24*
X191150000Y-106500000D03*
G04 #@! TD*
D17*
G04 #@! TO.C,D1*
G36*
X191577346Y-100676589D02*
X191609380Y-100681341D01*
X191640794Y-100689210D01*
X191671286Y-100700120D01*
X191700561Y-100713966D01*
X191728338Y-100730615D01*
X191754350Y-100749907D01*
X191778345Y-100771655D01*
X191800093Y-100795650D01*
X191819385Y-100821662D01*
X191836034Y-100849439D01*
X191849880Y-100878714D01*
X191860790Y-100909206D01*
X191868659Y-100940620D01*
X191873411Y-100972654D01*
X191875000Y-101005000D01*
X191875000Y-102495000D01*
X191873411Y-102527346D01*
X191868659Y-102559380D01*
X191860790Y-102590794D01*
X191849880Y-102621286D01*
X191836034Y-102650561D01*
X191819385Y-102678338D01*
X191800093Y-102704350D01*
X191778345Y-102728345D01*
X191754350Y-102750093D01*
X191728338Y-102769385D01*
X191700561Y-102786034D01*
X191671286Y-102799880D01*
X191640794Y-102810790D01*
X191609380Y-102818659D01*
X191577346Y-102823411D01*
X191545000Y-102825000D01*
X190555000Y-102825000D01*
X190522654Y-102823411D01*
X190490620Y-102818659D01*
X190459206Y-102810790D01*
X190428714Y-102799880D01*
X190399439Y-102786034D01*
X190371662Y-102769385D01*
X190345650Y-102750093D01*
X190321655Y-102728345D01*
X190299907Y-102704350D01*
X190280615Y-102678338D01*
X190263966Y-102650561D01*
X190250120Y-102621286D01*
X190239210Y-102590794D01*
X190231341Y-102559380D01*
X190226589Y-102527346D01*
X190225000Y-102495000D01*
X190225000Y-101005000D01*
X190226589Y-100972654D01*
X190231341Y-100940620D01*
X190239210Y-100909206D01*
X190250120Y-100878714D01*
X190263966Y-100849439D01*
X190280615Y-100821662D01*
X190299907Y-100795650D01*
X190321655Y-100771655D01*
X190345650Y-100749907D01*
X190371662Y-100730615D01*
X190399439Y-100713966D01*
X190428714Y-100700120D01*
X190459206Y-100689210D01*
X190490620Y-100681341D01*
X190522654Y-100676589D01*
X190555000Y-100675000D01*
X191545000Y-100675000D01*
X191577346Y-100676589D01*
X191577346Y-100676589D01*
G37*
D24*
X191050000Y-101750000D03*
D17*
G36*
X188777346Y-100676589D02*
X188809380Y-100681341D01*
X188840794Y-100689210D01*
X188871286Y-100700120D01*
X188900561Y-100713966D01*
X188928338Y-100730615D01*
X188954350Y-100749907D01*
X188978345Y-100771655D01*
X189000093Y-100795650D01*
X189019385Y-100821662D01*
X189036034Y-100849439D01*
X189049880Y-100878714D01*
X189060790Y-100909206D01*
X189068659Y-100940620D01*
X189073411Y-100972654D01*
X189075000Y-101005000D01*
X189075000Y-102495000D01*
X189073411Y-102527346D01*
X189068659Y-102559380D01*
X189060790Y-102590794D01*
X189049880Y-102621286D01*
X189036034Y-102650561D01*
X189019385Y-102678338D01*
X189000093Y-102704350D01*
X188978345Y-102728345D01*
X188954350Y-102750093D01*
X188928338Y-102769385D01*
X188900561Y-102786034D01*
X188871286Y-102799880D01*
X188840794Y-102810790D01*
X188809380Y-102818659D01*
X188777346Y-102823411D01*
X188745000Y-102825000D01*
X187755000Y-102825000D01*
X187722654Y-102823411D01*
X187690620Y-102818659D01*
X187659206Y-102810790D01*
X187628714Y-102799880D01*
X187599439Y-102786034D01*
X187571662Y-102769385D01*
X187545650Y-102750093D01*
X187521655Y-102728345D01*
X187499907Y-102704350D01*
X187480615Y-102678338D01*
X187463966Y-102650561D01*
X187450120Y-102621286D01*
X187439210Y-102590794D01*
X187431341Y-102559380D01*
X187426589Y-102527346D01*
X187425000Y-102495000D01*
X187425000Y-101005000D01*
X187426589Y-100972654D01*
X187431341Y-100940620D01*
X187439210Y-100909206D01*
X187450120Y-100878714D01*
X187463966Y-100849439D01*
X187480615Y-100821662D01*
X187499907Y-100795650D01*
X187521655Y-100771655D01*
X187545650Y-100749907D01*
X187571662Y-100730615D01*
X187599439Y-100713966D01*
X187628714Y-100700120D01*
X187659206Y-100689210D01*
X187690620Y-100681341D01*
X187722654Y-100676589D01*
X187755000Y-100675000D01*
X188745000Y-100675000D01*
X188777346Y-100676589D01*
X188777346Y-100676589D01*
G37*
D24*
X188250000Y-101750000D03*
G04 #@! TD*
D25*
G04 #@! TO.C,CON1*
X157250000Y-103900000D03*
D26*
X158250000Y-106000000D03*
X159250000Y-106000000D03*
X160250000Y-106000000D03*
X161250000Y-106000000D03*
X162250000Y-106000000D03*
X163250000Y-106000000D03*
D27*
X164250000Y-103900000D03*
G04 #@! TD*
D28*
G04 #@! TO.C,U1*
X170900000Y-104275000D03*
X170900000Y-104925000D03*
X170900000Y-105575000D03*
X170900000Y-106225000D03*
X170900000Y-106875000D03*
X170900000Y-107525000D03*
X170900000Y-108175000D03*
X170900000Y-108825000D03*
X170900000Y-109475000D03*
X170900000Y-110125000D03*
X170900000Y-110775000D03*
X170900000Y-111425000D03*
X170900000Y-112075000D03*
X170900000Y-112725000D03*
X178100000Y-112725000D03*
X178100000Y-112075000D03*
X178100000Y-111425000D03*
X178100000Y-110775000D03*
X178100000Y-110125000D03*
X178100000Y-109475000D03*
X178100000Y-108825000D03*
X178100000Y-108175000D03*
X178100000Y-107525000D03*
X178100000Y-106875000D03*
X178100000Y-106225000D03*
X178100000Y-105575000D03*
X178100000Y-104925000D03*
X178100000Y-104275000D03*
G04 #@! TD*
D17*
G04 #@! TO.C,R3*
G36*
X186339943Y-104376655D02*
X186373312Y-104381605D01*
X186406035Y-104389802D01*
X186437797Y-104401166D01*
X186468293Y-104415590D01*
X186497227Y-104432932D01*
X186524323Y-104453028D01*
X186549318Y-104475682D01*
X186571972Y-104500677D01*
X186592068Y-104527773D01*
X186609410Y-104556707D01*
X186623834Y-104587203D01*
X186635198Y-104618965D01*
X186643395Y-104651688D01*
X186648345Y-104685057D01*
X186650000Y-104718750D01*
X186650000Y-105406250D01*
X186648345Y-105439943D01*
X186643395Y-105473312D01*
X186635198Y-105506035D01*
X186623834Y-105537797D01*
X186609410Y-105568293D01*
X186592068Y-105597227D01*
X186571972Y-105624323D01*
X186549318Y-105649318D01*
X186524323Y-105671972D01*
X186497227Y-105692068D01*
X186468293Y-105709410D01*
X186437797Y-105723834D01*
X186406035Y-105735198D01*
X186373312Y-105743395D01*
X186339943Y-105748345D01*
X186306250Y-105750000D01*
X185193750Y-105750000D01*
X185160057Y-105748345D01*
X185126688Y-105743395D01*
X185093965Y-105735198D01*
X185062203Y-105723834D01*
X185031707Y-105709410D01*
X185002773Y-105692068D01*
X184975677Y-105671972D01*
X184950682Y-105649318D01*
X184928028Y-105624323D01*
X184907932Y-105597227D01*
X184890590Y-105568293D01*
X184876166Y-105537797D01*
X184864802Y-105506035D01*
X184856605Y-105473312D01*
X184851655Y-105439943D01*
X184850000Y-105406250D01*
X184850000Y-104718750D01*
X184851655Y-104685057D01*
X184856605Y-104651688D01*
X184864802Y-104618965D01*
X184876166Y-104587203D01*
X184890590Y-104556707D01*
X184907932Y-104527773D01*
X184928028Y-104500677D01*
X184950682Y-104475682D01*
X184975677Y-104453028D01*
X185002773Y-104432932D01*
X185031707Y-104415590D01*
X185062203Y-104401166D01*
X185093965Y-104389802D01*
X185126688Y-104381605D01*
X185160057Y-104376655D01*
X185193750Y-104375000D01*
X186306250Y-104375000D01*
X186339943Y-104376655D01*
X186339943Y-104376655D01*
G37*
D29*
X185750000Y-105062500D03*
D17*
G36*
X186339943Y-106251655D02*
X186373312Y-106256605D01*
X186406035Y-106264802D01*
X186437797Y-106276166D01*
X186468293Y-106290590D01*
X186497227Y-106307932D01*
X186524323Y-106328028D01*
X186549318Y-106350682D01*
X186571972Y-106375677D01*
X186592068Y-106402773D01*
X186609410Y-106431707D01*
X186623834Y-106462203D01*
X186635198Y-106493965D01*
X186643395Y-106526688D01*
X186648345Y-106560057D01*
X186650000Y-106593750D01*
X186650000Y-107281250D01*
X186648345Y-107314943D01*
X186643395Y-107348312D01*
X186635198Y-107381035D01*
X186623834Y-107412797D01*
X186609410Y-107443293D01*
X186592068Y-107472227D01*
X186571972Y-107499323D01*
X186549318Y-107524318D01*
X186524323Y-107546972D01*
X186497227Y-107567068D01*
X186468293Y-107584410D01*
X186437797Y-107598834D01*
X186406035Y-107610198D01*
X186373312Y-107618395D01*
X186339943Y-107623345D01*
X186306250Y-107625000D01*
X185193750Y-107625000D01*
X185160057Y-107623345D01*
X185126688Y-107618395D01*
X185093965Y-107610198D01*
X185062203Y-107598834D01*
X185031707Y-107584410D01*
X185002773Y-107567068D01*
X184975677Y-107546972D01*
X184950682Y-107524318D01*
X184928028Y-107499323D01*
X184907932Y-107472227D01*
X184890590Y-107443293D01*
X184876166Y-107412797D01*
X184864802Y-107381035D01*
X184856605Y-107348312D01*
X184851655Y-107314943D01*
X184850000Y-107281250D01*
X184850000Y-106593750D01*
X184851655Y-106560057D01*
X184856605Y-106526688D01*
X184864802Y-106493965D01*
X184876166Y-106462203D01*
X184890590Y-106431707D01*
X184907932Y-106402773D01*
X184928028Y-106375677D01*
X184950682Y-106350682D01*
X184975677Y-106328028D01*
X185002773Y-106307932D01*
X185031707Y-106290590D01*
X185062203Y-106276166D01*
X185093965Y-106264802D01*
X185126688Y-106256605D01*
X185160057Y-106251655D01*
X185193750Y-106250000D01*
X186306250Y-106250000D01*
X186339943Y-106251655D01*
X186339943Y-106251655D01*
G37*
D29*
X185750000Y-106937500D03*
G04 #@! TD*
D17*
G04 #@! TO.C,R2*
G36*
X186339943Y-100626655D02*
X186373312Y-100631605D01*
X186406035Y-100639802D01*
X186437797Y-100651166D01*
X186468293Y-100665590D01*
X186497227Y-100682932D01*
X186524323Y-100703028D01*
X186549318Y-100725682D01*
X186571972Y-100750677D01*
X186592068Y-100777773D01*
X186609410Y-100806707D01*
X186623834Y-100837203D01*
X186635198Y-100868965D01*
X186643395Y-100901688D01*
X186648345Y-100935057D01*
X186650000Y-100968750D01*
X186650000Y-101656250D01*
X186648345Y-101689943D01*
X186643395Y-101723312D01*
X186635198Y-101756035D01*
X186623834Y-101787797D01*
X186609410Y-101818293D01*
X186592068Y-101847227D01*
X186571972Y-101874323D01*
X186549318Y-101899318D01*
X186524323Y-101921972D01*
X186497227Y-101942068D01*
X186468293Y-101959410D01*
X186437797Y-101973834D01*
X186406035Y-101985198D01*
X186373312Y-101993395D01*
X186339943Y-101998345D01*
X186306250Y-102000000D01*
X185193750Y-102000000D01*
X185160057Y-101998345D01*
X185126688Y-101993395D01*
X185093965Y-101985198D01*
X185062203Y-101973834D01*
X185031707Y-101959410D01*
X185002773Y-101942068D01*
X184975677Y-101921972D01*
X184950682Y-101899318D01*
X184928028Y-101874323D01*
X184907932Y-101847227D01*
X184890590Y-101818293D01*
X184876166Y-101787797D01*
X184864802Y-101756035D01*
X184856605Y-101723312D01*
X184851655Y-101689943D01*
X184850000Y-101656250D01*
X184850000Y-100968750D01*
X184851655Y-100935057D01*
X184856605Y-100901688D01*
X184864802Y-100868965D01*
X184876166Y-100837203D01*
X184890590Y-100806707D01*
X184907932Y-100777773D01*
X184928028Y-100750677D01*
X184950682Y-100725682D01*
X184975677Y-100703028D01*
X185002773Y-100682932D01*
X185031707Y-100665590D01*
X185062203Y-100651166D01*
X185093965Y-100639802D01*
X185126688Y-100631605D01*
X185160057Y-100626655D01*
X185193750Y-100625000D01*
X186306250Y-100625000D01*
X186339943Y-100626655D01*
X186339943Y-100626655D01*
G37*
D29*
X185750000Y-101312500D03*
D17*
G36*
X186339943Y-102501655D02*
X186373312Y-102506605D01*
X186406035Y-102514802D01*
X186437797Y-102526166D01*
X186468293Y-102540590D01*
X186497227Y-102557932D01*
X186524323Y-102578028D01*
X186549318Y-102600682D01*
X186571972Y-102625677D01*
X186592068Y-102652773D01*
X186609410Y-102681707D01*
X186623834Y-102712203D01*
X186635198Y-102743965D01*
X186643395Y-102776688D01*
X186648345Y-102810057D01*
X186650000Y-102843750D01*
X186650000Y-103531250D01*
X186648345Y-103564943D01*
X186643395Y-103598312D01*
X186635198Y-103631035D01*
X186623834Y-103662797D01*
X186609410Y-103693293D01*
X186592068Y-103722227D01*
X186571972Y-103749323D01*
X186549318Y-103774318D01*
X186524323Y-103796972D01*
X186497227Y-103817068D01*
X186468293Y-103834410D01*
X186437797Y-103848834D01*
X186406035Y-103860198D01*
X186373312Y-103868395D01*
X186339943Y-103873345D01*
X186306250Y-103875000D01*
X185193750Y-103875000D01*
X185160057Y-103873345D01*
X185126688Y-103868395D01*
X185093965Y-103860198D01*
X185062203Y-103848834D01*
X185031707Y-103834410D01*
X185002773Y-103817068D01*
X184975677Y-103796972D01*
X184950682Y-103774318D01*
X184928028Y-103749323D01*
X184907932Y-103722227D01*
X184890590Y-103693293D01*
X184876166Y-103662797D01*
X184864802Y-103631035D01*
X184856605Y-103598312D01*
X184851655Y-103564943D01*
X184850000Y-103531250D01*
X184850000Y-102843750D01*
X184851655Y-102810057D01*
X184856605Y-102776688D01*
X184864802Y-102743965D01*
X184876166Y-102712203D01*
X184890590Y-102681707D01*
X184907932Y-102652773D01*
X184928028Y-102625677D01*
X184950682Y-102600682D01*
X184975677Y-102578028D01*
X185002773Y-102557932D01*
X185031707Y-102540590D01*
X185062203Y-102526166D01*
X185093965Y-102514802D01*
X185126688Y-102506605D01*
X185160057Y-102501655D01*
X185193750Y-102500000D01*
X186306250Y-102500000D01*
X186339943Y-102501655D01*
X186339943Y-102501655D01*
G37*
D29*
X185750000Y-103187500D03*
G04 #@! TD*
D17*
G04 #@! TO.C,R1*
G36*
X158839943Y-116689155D02*
X158873312Y-116694105D01*
X158906035Y-116702302D01*
X158937797Y-116713666D01*
X158968293Y-116728090D01*
X158997227Y-116745432D01*
X159024323Y-116765528D01*
X159049318Y-116788182D01*
X159071972Y-116813177D01*
X159092068Y-116840273D01*
X159109410Y-116869207D01*
X159123834Y-116899703D01*
X159135198Y-116931465D01*
X159143395Y-116964188D01*
X159148345Y-116997557D01*
X159150000Y-117031250D01*
X159150000Y-117718750D01*
X159148345Y-117752443D01*
X159143395Y-117785812D01*
X159135198Y-117818535D01*
X159123834Y-117850297D01*
X159109410Y-117880793D01*
X159092068Y-117909727D01*
X159071972Y-117936823D01*
X159049318Y-117961818D01*
X159024323Y-117984472D01*
X158997227Y-118004568D01*
X158968293Y-118021910D01*
X158937797Y-118036334D01*
X158906035Y-118047698D01*
X158873312Y-118055895D01*
X158839943Y-118060845D01*
X158806250Y-118062500D01*
X157693750Y-118062500D01*
X157660057Y-118060845D01*
X157626688Y-118055895D01*
X157593965Y-118047698D01*
X157562203Y-118036334D01*
X157531707Y-118021910D01*
X157502773Y-118004568D01*
X157475677Y-117984472D01*
X157450682Y-117961818D01*
X157428028Y-117936823D01*
X157407932Y-117909727D01*
X157390590Y-117880793D01*
X157376166Y-117850297D01*
X157364802Y-117818535D01*
X157356605Y-117785812D01*
X157351655Y-117752443D01*
X157350000Y-117718750D01*
X157350000Y-117031250D01*
X157351655Y-116997557D01*
X157356605Y-116964188D01*
X157364802Y-116931465D01*
X157376166Y-116899703D01*
X157390590Y-116869207D01*
X157407932Y-116840273D01*
X157428028Y-116813177D01*
X157450682Y-116788182D01*
X157475677Y-116765528D01*
X157502773Y-116745432D01*
X157531707Y-116728090D01*
X157562203Y-116713666D01*
X157593965Y-116702302D01*
X157626688Y-116694105D01*
X157660057Y-116689155D01*
X157693750Y-116687500D01*
X158806250Y-116687500D01*
X158839943Y-116689155D01*
X158839943Y-116689155D01*
G37*
D29*
X158250000Y-117375000D03*
D17*
G36*
X158839943Y-114814155D02*
X158873312Y-114819105D01*
X158906035Y-114827302D01*
X158937797Y-114838666D01*
X158968293Y-114853090D01*
X158997227Y-114870432D01*
X159024323Y-114890528D01*
X159049318Y-114913182D01*
X159071972Y-114938177D01*
X159092068Y-114965273D01*
X159109410Y-114994207D01*
X159123834Y-115024703D01*
X159135198Y-115056465D01*
X159143395Y-115089188D01*
X159148345Y-115122557D01*
X159150000Y-115156250D01*
X159150000Y-115843750D01*
X159148345Y-115877443D01*
X159143395Y-115910812D01*
X159135198Y-115943535D01*
X159123834Y-115975297D01*
X159109410Y-116005793D01*
X159092068Y-116034727D01*
X159071972Y-116061823D01*
X159049318Y-116086818D01*
X159024323Y-116109472D01*
X158997227Y-116129568D01*
X158968293Y-116146910D01*
X158937797Y-116161334D01*
X158906035Y-116172698D01*
X158873312Y-116180895D01*
X158839943Y-116185845D01*
X158806250Y-116187500D01*
X157693750Y-116187500D01*
X157660057Y-116185845D01*
X157626688Y-116180895D01*
X157593965Y-116172698D01*
X157562203Y-116161334D01*
X157531707Y-116146910D01*
X157502773Y-116129568D01*
X157475677Y-116109472D01*
X157450682Y-116086818D01*
X157428028Y-116061823D01*
X157407932Y-116034727D01*
X157390590Y-116005793D01*
X157376166Y-115975297D01*
X157364802Y-115943535D01*
X157356605Y-115910812D01*
X157351655Y-115877443D01*
X157350000Y-115843750D01*
X157350000Y-115156250D01*
X157351655Y-115122557D01*
X157356605Y-115089188D01*
X157364802Y-115056465D01*
X157376166Y-115024703D01*
X157390590Y-114994207D01*
X157407932Y-114965273D01*
X157428028Y-114938177D01*
X157450682Y-114913182D01*
X157475677Y-114890528D01*
X157502773Y-114870432D01*
X157531707Y-114853090D01*
X157562203Y-114838666D01*
X157593965Y-114827302D01*
X157626688Y-114819105D01*
X157660057Y-114814155D01*
X157693750Y-114812500D01*
X158806250Y-114812500D01*
X158839943Y-114814155D01*
X158839943Y-114814155D01*
G37*
D29*
X158250000Y-115500000D03*
G04 #@! TD*
M02*
