G04 #@! TF.GenerationSoftware,KiCad,Pcbnew,(5.0.0)*
G04 #@! TF.CreationDate,2019-01-18T23:40:16+01:00*
G04 #@! TF.ProjectId,converterboard,636F6E766572746572626F6172642E6B,rev?*
G04 #@! TF.SameCoordinates,Original*
G04 #@! TF.FileFunction,Copper,L1,Top,Signal*
G04 #@! TF.FilePolarity,Positive*
%FSLAX46Y46*%
G04 Gerber Fmt 4.6, Leading zero omitted, Abs format (unit mm)*
G04 Created by KiCad (PCBNEW (5.0.0)) date 01/18/19 23:40:16*
%MOMM*%
%LPD*%
G01*
G04 APERTURE LIST*
G04 #@! TA.AperFunction,ComponentPad*
%ADD10R,1.700000X1.700000*%
G04 #@! TD*
G04 #@! TA.AperFunction,ComponentPad*
%ADD11O,1.700000X1.700000*%
G04 #@! TD*
G04 #@! TA.AperFunction,SMDPad,CuDef*
%ADD12R,1.450000X0.450000*%
G04 #@! TD*
G04 #@! TA.AperFunction,Conductor*
%ADD13C,0.100000*%
G04 #@! TD*
G04 #@! TA.AperFunction,SMDPad,CuDef*
%ADD14C,0.875000*%
G04 #@! TD*
G04 #@! TA.AperFunction,ComponentPad*
%ADD15R,1.600000X1.600000*%
G04 #@! TD*
G04 #@! TA.AperFunction,ComponentPad*
%ADD16C,1.600000*%
G04 #@! TD*
G04 #@! TA.AperFunction,SMDPad,CuDef*
%ADD17R,1.380000X0.450000*%
G04 #@! TD*
G04 #@! TA.AperFunction,SMDPad,CuDef*
%ADD18R,2.100000X1.475000*%
G04 #@! TD*
G04 #@! TA.AperFunction,SMDPad,CuDef*
%ADD19R,1.900000X2.375000*%
G04 #@! TD*
G04 #@! TA.AperFunction,SMDPad,CuDef*
%ADD20R,1.900000X1.175000*%
G04 #@! TD*
G04 #@! TA.AperFunction,SMDPad,CuDef*
%ADD21C,1.250000*%
G04 #@! TD*
G04 #@! TA.AperFunction,SMDPad,CuDef*
%ADD22R,0.700000X4.200000*%
G04 #@! TD*
G04 #@! TA.AperFunction,SMDPad,CuDef*
%ADD23R,0.600000X2.000000*%
G04 #@! TD*
G04 #@! TA.AperFunction,SMDPad,CuDef*
%ADD24R,1.750000X0.450000*%
G04 #@! TD*
G04 #@! TA.AperFunction,SMDPad,CuDef*
%ADD25C,0.975000*%
G04 #@! TD*
G04 #@! TA.AperFunction,ViaPad*
%ADD26C,0.800000*%
G04 #@! TD*
G04 #@! TA.AperFunction,Conductor*
%ADD27C,0.250000*%
G04 #@! TD*
G04 #@! TA.AperFunction,Conductor*
%ADD28C,0.254000*%
G04 #@! TD*
G04 APERTURE END LIST*
D10*
G04 #@! TO.P,J3,1*
G04 #@! TO.N,VCC*
X168750000Y-100750000D03*
D11*
G04 #@! TO.P,J3,2*
G04 #@! TO.N,/UART_TX*
X171290000Y-100750000D03*
G04 #@! TO.P,J3,3*
G04 #@! TO.N,/UART_RX*
X173830000Y-100750000D03*
G04 #@! TO.P,J3,4*
G04 #@! TO.N,GND*
X176370000Y-100750000D03*
G04 #@! TD*
D12*
G04 #@! TO.P,U2,1*
G04 #@! TO.N,/UART_RX*
X161550000Y-111325000D03*
G04 #@! TO.P,U2,2*
G04 #@! TO.N,VCC*
X161550000Y-111975000D03*
G04 #@! TO.P,U2,3*
G04 #@! TO.N,/UART_TX*
X161550000Y-112625000D03*
G04 #@! TO.P,U2,4*
G04 #@! TO.N,Net-(U2-Pad4)*
X161550000Y-113275000D03*
G04 #@! TO.P,U2,5*
G04 #@! TO.N,Net-(U2-Pad5)*
X161550000Y-113925000D03*
G04 #@! TO.P,U2,6*
G04 #@! TO.N,Net-(U2-Pad6)*
X161550000Y-114575000D03*
G04 #@! TO.P,U2,7*
G04 #@! TO.N,Net-(U2-Pad7)*
X161550000Y-115225000D03*
G04 #@! TO.P,U2,8*
G04 #@! TO.N,Net-(U2-Pad8)*
X161550000Y-115875000D03*
G04 #@! TO.P,U2,9*
G04 #@! TO.N,Net-(U2-Pad9)*
X161550000Y-116525000D03*
G04 #@! TO.P,U2,10*
G04 #@! TO.N,VCC*
X161550000Y-117175000D03*
G04 #@! TO.P,U2,11*
G04 #@! TO.N,GND*
X167450000Y-117175000D03*
G04 #@! TO.P,U2,12*
G04 #@! TO.N,Net-(U2-Pad12)*
X167450000Y-116525000D03*
G04 #@! TO.P,U2,13*
G04 #@! TO.N,Net-(U2-Pad13)*
X167450000Y-115875000D03*
G04 #@! TO.P,U2,14*
G04 #@! TO.N,Net-(U2-Pad14)*
X167450000Y-115225000D03*
G04 #@! TO.P,U2,15*
G04 #@! TO.N,Net-(U2-Pad15)*
X167450000Y-114575000D03*
G04 #@! TO.P,U2,16*
G04 #@! TO.N,Net-(U2-Pad16)*
X167450000Y-113925000D03*
G04 #@! TO.P,U2,17*
G04 #@! TO.N,Net-(U2-Pad17)*
X167450000Y-113275000D03*
G04 #@! TO.P,U2,18*
G04 #@! TO.N,/RXD*
X167450000Y-112625000D03*
G04 #@! TO.P,U2,19*
G04 #@! TO.N,VBUS*
X167450000Y-111975000D03*
G04 #@! TO.P,U2,20*
G04 #@! TO.N,/TXD*
X167450000Y-111325000D03*
G04 #@! TD*
D11*
G04 #@! TO.P,J2,20*
G04 #@! TO.N,GND*
X184960000Y-122510000D03*
G04 #@! TO.P,J2,19*
G04 #@! TO.N,Net-(J2-Pad19)*
X184960000Y-125050000D03*
G04 #@! TO.P,J2,18*
G04 #@! TO.N,GND*
X182420000Y-122510000D03*
G04 #@! TO.P,J2,17*
G04 #@! TO.N,Net-(J2-Pad17)*
X182420000Y-125050000D03*
G04 #@! TO.P,J2,16*
G04 #@! TO.N,GND*
X179880000Y-122510000D03*
G04 #@! TO.P,J2,15*
G04 #@! TO.N,/MCU_RESET*
X179880000Y-125050000D03*
G04 #@! TO.P,J2,14*
G04 #@! TO.N,GND*
X177340000Y-122510000D03*
G04 #@! TO.P,J2,13*
G04 #@! TO.N,Net-(J2-Pad13)*
X177340000Y-125050000D03*
G04 #@! TO.P,J2,12*
G04 #@! TO.N,GND*
X174800000Y-122510000D03*
G04 #@! TO.P,J2,11*
G04 #@! TO.N,Net-(J2-Pad11)*
X174800000Y-125050000D03*
G04 #@! TO.P,J2,10*
G04 #@! TO.N,GND*
X172260000Y-122510000D03*
G04 #@! TO.P,J2,9*
G04 #@! TO.N,/SWCLK*
X172260000Y-125050000D03*
G04 #@! TO.P,J2,8*
G04 #@! TO.N,GND*
X169720000Y-122510000D03*
G04 #@! TO.P,J2,7*
G04 #@! TO.N,/SWDIO*
X169720000Y-125050000D03*
G04 #@! TO.P,J2,6*
G04 #@! TO.N,GND*
X167180000Y-122510000D03*
G04 #@! TO.P,J2,5*
G04 #@! TO.N,Net-(J2-Pad5)*
X167180000Y-125050000D03*
G04 #@! TO.P,J2,4*
G04 #@! TO.N,GND*
X164640000Y-122510000D03*
G04 #@! TO.P,J2,3*
G04 #@! TO.N,Net-(J2-Pad3)*
X164640000Y-125050000D03*
G04 #@! TO.P,J2,2*
G04 #@! TO.N,Net-(J2-Pad2)*
X162100000Y-122510000D03*
D10*
G04 #@! TO.P,J2,1*
G04 #@! TO.N,VCC*
X162100000Y-125050000D03*
G04 #@! TD*
D13*
G04 #@! TO.N,GND*
G04 #@! TO.C,C5*
G36*
X168027691Y-108276053D02*
X168048926Y-108279203D01*
X168069750Y-108284419D01*
X168089962Y-108291651D01*
X168109368Y-108300830D01*
X168127781Y-108311866D01*
X168145024Y-108324654D01*
X168160930Y-108339070D01*
X168175346Y-108354976D01*
X168188134Y-108372219D01*
X168199170Y-108390632D01*
X168208349Y-108410038D01*
X168215581Y-108430250D01*
X168220797Y-108451074D01*
X168223947Y-108472309D01*
X168225000Y-108493750D01*
X168225000Y-109006250D01*
X168223947Y-109027691D01*
X168220797Y-109048926D01*
X168215581Y-109069750D01*
X168208349Y-109089962D01*
X168199170Y-109109368D01*
X168188134Y-109127781D01*
X168175346Y-109145024D01*
X168160930Y-109160930D01*
X168145024Y-109175346D01*
X168127781Y-109188134D01*
X168109368Y-109199170D01*
X168089962Y-109208349D01*
X168069750Y-109215581D01*
X168048926Y-109220797D01*
X168027691Y-109223947D01*
X168006250Y-109225000D01*
X167568750Y-109225000D01*
X167547309Y-109223947D01*
X167526074Y-109220797D01*
X167505250Y-109215581D01*
X167485038Y-109208349D01*
X167465632Y-109199170D01*
X167447219Y-109188134D01*
X167429976Y-109175346D01*
X167414070Y-109160930D01*
X167399654Y-109145024D01*
X167386866Y-109127781D01*
X167375830Y-109109368D01*
X167366651Y-109089962D01*
X167359419Y-109069750D01*
X167354203Y-109048926D01*
X167351053Y-109027691D01*
X167350000Y-109006250D01*
X167350000Y-108493750D01*
X167351053Y-108472309D01*
X167354203Y-108451074D01*
X167359419Y-108430250D01*
X167366651Y-108410038D01*
X167375830Y-108390632D01*
X167386866Y-108372219D01*
X167399654Y-108354976D01*
X167414070Y-108339070D01*
X167429976Y-108324654D01*
X167447219Y-108311866D01*
X167465632Y-108300830D01*
X167485038Y-108291651D01*
X167505250Y-108284419D01*
X167526074Y-108279203D01*
X167547309Y-108276053D01*
X167568750Y-108275000D01*
X168006250Y-108275000D01*
X168027691Y-108276053D01*
X168027691Y-108276053D01*
G37*
D14*
G04 #@! TD*
G04 #@! TO.P,C5,2*
G04 #@! TO.N,GND*
X167787500Y-108750000D03*
D13*
G04 #@! TO.N,VBUS*
G04 #@! TO.C,C5*
G36*
X166452691Y-108276053D02*
X166473926Y-108279203D01*
X166494750Y-108284419D01*
X166514962Y-108291651D01*
X166534368Y-108300830D01*
X166552781Y-108311866D01*
X166570024Y-108324654D01*
X166585930Y-108339070D01*
X166600346Y-108354976D01*
X166613134Y-108372219D01*
X166624170Y-108390632D01*
X166633349Y-108410038D01*
X166640581Y-108430250D01*
X166645797Y-108451074D01*
X166648947Y-108472309D01*
X166650000Y-108493750D01*
X166650000Y-109006250D01*
X166648947Y-109027691D01*
X166645797Y-109048926D01*
X166640581Y-109069750D01*
X166633349Y-109089962D01*
X166624170Y-109109368D01*
X166613134Y-109127781D01*
X166600346Y-109145024D01*
X166585930Y-109160930D01*
X166570024Y-109175346D01*
X166552781Y-109188134D01*
X166534368Y-109199170D01*
X166514962Y-109208349D01*
X166494750Y-109215581D01*
X166473926Y-109220797D01*
X166452691Y-109223947D01*
X166431250Y-109225000D01*
X165993750Y-109225000D01*
X165972309Y-109223947D01*
X165951074Y-109220797D01*
X165930250Y-109215581D01*
X165910038Y-109208349D01*
X165890632Y-109199170D01*
X165872219Y-109188134D01*
X165854976Y-109175346D01*
X165839070Y-109160930D01*
X165824654Y-109145024D01*
X165811866Y-109127781D01*
X165800830Y-109109368D01*
X165791651Y-109089962D01*
X165784419Y-109069750D01*
X165779203Y-109048926D01*
X165776053Y-109027691D01*
X165775000Y-109006250D01*
X165775000Y-108493750D01*
X165776053Y-108472309D01*
X165779203Y-108451074D01*
X165784419Y-108430250D01*
X165791651Y-108410038D01*
X165800830Y-108390632D01*
X165811866Y-108372219D01*
X165824654Y-108354976D01*
X165839070Y-108339070D01*
X165854976Y-108324654D01*
X165872219Y-108311866D01*
X165890632Y-108300830D01*
X165910038Y-108291651D01*
X165930250Y-108284419D01*
X165951074Y-108279203D01*
X165972309Y-108276053D01*
X165993750Y-108275000D01*
X166431250Y-108275000D01*
X166452691Y-108276053D01*
X166452691Y-108276053D01*
G37*
D14*
G04 #@! TD*
G04 #@! TO.P,C5,1*
G04 #@! TO.N,VBUS*
X166212500Y-108750000D03*
D13*
G04 #@! TO.N,VCC*
G04 #@! TO.C,C4*
G36*
X159027691Y-109776053D02*
X159048926Y-109779203D01*
X159069750Y-109784419D01*
X159089962Y-109791651D01*
X159109368Y-109800830D01*
X159127781Y-109811866D01*
X159145024Y-109824654D01*
X159160930Y-109839070D01*
X159175346Y-109854976D01*
X159188134Y-109872219D01*
X159199170Y-109890632D01*
X159208349Y-109910038D01*
X159215581Y-109930250D01*
X159220797Y-109951074D01*
X159223947Y-109972309D01*
X159225000Y-109993750D01*
X159225000Y-110431250D01*
X159223947Y-110452691D01*
X159220797Y-110473926D01*
X159215581Y-110494750D01*
X159208349Y-110514962D01*
X159199170Y-110534368D01*
X159188134Y-110552781D01*
X159175346Y-110570024D01*
X159160930Y-110585930D01*
X159145024Y-110600346D01*
X159127781Y-110613134D01*
X159109368Y-110624170D01*
X159089962Y-110633349D01*
X159069750Y-110640581D01*
X159048926Y-110645797D01*
X159027691Y-110648947D01*
X159006250Y-110650000D01*
X158493750Y-110650000D01*
X158472309Y-110648947D01*
X158451074Y-110645797D01*
X158430250Y-110640581D01*
X158410038Y-110633349D01*
X158390632Y-110624170D01*
X158372219Y-110613134D01*
X158354976Y-110600346D01*
X158339070Y-110585930D01*
X158324654Y-110570024D01*
X158311866Y-110552781D01*
X158300830Y-110534368D01*
X158291651Y-110514962D01*
X158284419Y-110494750D01*
X158279203Y-110473926D01*
X158276053Y-110452691D01*
X158275000Y-110431250D01*
X158275000Y-109993750D01*
X158276053Y-109972309D01*
X158279203Y-109951074D01*
X158284419Y-109930250D01*
X158291651Y-109910038D01*
X158300830Y-109890632D01*
X158311866Y-109872219D01*
X158324654Y-109854976D01*
X158339070Y-109839070D01*
X158354976Y-109824654D01*
X158372219Y-109811866D01*
X158390632Y-109800830D01*
X158410038Y-109791651D01*
X158430250Y-109784419D01*
X158451074Y-109779203D01*
X158472309Y-109776053D01*
X158493750Y-109775000D01*
X159006250Y-109775000D01*
X159027691Y-109776053D01*
X159027691Y-109776053D01*
G37*
D14*
G04 #@! TD*
G04 #@! TO.P,C4,1*
G04 #@! TO.N,VCC*
X158750000Y-110212500D03*
D13*
G04 #@! TO.N,GND*
G04 #@! TO.C,C4*
G36*
X159027691Y-111351053D02*
X159048926Y-111354203D01*
X159069750Y-111359419D01*
X159089962Y-111366651D01*
X159109368Y-111375830D01*
X159127781Y-111386866D01*
X159145024Y-111399654D01*
X159160930Y-111414070D01*
X159175346Y-111429976D01*
X159188134Y-111447219D01*
X159199170Y-111465632D01*
X159208349Y-111485038D01*
X159215581Y-111505250D01*
X159220797Y-111526074D01*
X159223947Y-111547309D01*
X159225000Y-111568750D01*
X159225000Y-112006250D01*
X159223947Y-112027691D01*
X159220797Y-112048926D01*
X159215581Y-112069750D01*
X159208349Y-112089962D01*
X159199170Y-112109368D01*
X159188134Y-112127781D01*
X159175346Y-112145024D01*
X159160930Y-112160930D01*
X159145024Y-112175346D01*
X159127781Y-112188134D01*
X159109368Y-112199170D01*
X159089962Y-112208349D01*
X159069750Y-112215581D01*
X159048926Y-112220797D01*
X159027691Y-112223947D01*
X159006250Y-112225000D01*
X158493750Y-112225000D01*
X158472309Y-112223947D01*
X158451074Y-112220797D01*
X158430250Y-112215581D01*
X158410038Y-112208349D01*
X158390632Y-112199170D01*
X158372219Y-112188134D01*
X158354976Y-112175346D01*
X158339070Y-112160930D01*
X158324654Y-112145024D01*
X158311866Y-112127781D01*
X158300830Y-112109368D01*
X158291651Y-112089962D01*
X158284419Y-112069750D01*
X158279203Y-112048926D01*
X158276053Y-112027691D01*
X158275000Y-112006250D01*
X158275000Y-111568750D01*
X158276053Y-111547309D01*
X158279203Y-111526074D01*
X158284419Y-111505250D01*
X158291651Y-111485038D01*
X158300830Y-111465632D01*
X158311866Y-111447219D01*
X158324654Y-111429976D01*
X158339070Y-111414070D01*
X158354976Y-111399654D01*
X158372219Y-111386866D01*
X158390632Y-111375830D01*
X158410038Y-111366651D01*
X158430250Y-111359419D01*
X158451074Y-111354203D01*
X158472309Y-111351053D01*
X158493750Y-111350000D01*
X159006250Y-111350000D01*
X159027691Y-111351053D01*
X159027691Y-111351053D01*
G37*
D14*
G04 #@! TD*
G04 #@! TO.P,C4,2*
G04 #@! TO.N,GND*
X158750000Y-111787500D03*
D13*
G04 #@! TO.N,GND*
G04 #@! TO.C,C3*
G36*
X178027691Y-117351053D02*
X178048926Y-117354203D01*
X178069750Y-117359419D01*
X178089962Y-117366651D01*
X178109368Y-117375830D01*
X178127781Y-117386866D01*
X178145024Y-117399654D01*
X178160930Y-117414070D01*
X178175346Y-117429976D01*
X178188134Y-117447219D01*
X178199170Y-117465632D01*
X178208349Y-117485038D01*
X178215581Y-117505250D01*
X178220797Y-117526074D01*
X178223947Y-117547309D01*
X178225000Y-117568750D01*
X178225000Y-118006250D01*
X178223947Y-118027691D01*
X178220797Y-118048926D01*
X178215581Y-118069750D01*
X178208349Y-118089962D01*
X178199170Y-118109368D01*
X178188134Y-118127781D01*
X178175346Y-118145024D01*
X178160930Y-118160930D01*
X178145024Y-118175346D01*
X178127781Y-118188134D01*
X178109368Y-118199170D01*
X178089962Y-118208349D01*
X178069750Y-118215581D01*
X178048926Y-118220797D01*
X178027691Y-118223947D01*
X178006250Y-118225000D01*
X177493750Y-118225000D01*
X177472309Y-118223947D01*
X177451074Y-118220797D01*
X177430250Y-118215581D01*
X177410038Y-118208349D01*
X177390632Y-118199170D01*
X177372219Y-118188134D01*
X177354976Y-118175346D01*
X177339070Y-118160930D01*
X177324654Y-118145024D01*
X177311866Y-118127781D01*
X177300830Y-118109368D01*
X177291651Y-118089962D01*
X177284419Y-118069750D01*
X177279203Y-118048926D01*
X177276053Y-118027691D01*
X177275000Y-118006250D01*
X177275000Y-117568750D01*
X177276053Y-117547309D01*
X177279203Y-117526074D01*
X177284419Y-117505250D01*
X177291651Y-117485038D01*
X177300830Y-117465632D01*
X177311866Y-117447219D01*
X177324654Y-117429976D01*
X177339070Y-117414070D01*
X177354976Y-117399654D01*
X177372219Y-117386866D01*
X177390632Y-117375830D01*
X177410038Y-117366651D01*
X177430250Y-117359419D01*
X177451074Y-117354203D01*
X177472309Y-117351053D01*
X177493750Y-117350000D01*
X178006250Y-117350000D01*
X178027691Y-117351053D01*
X178027691Y-117351053D01*
G37*
D14*
G04 #@! TD*
G04 #@! TO.P,C3,2*
G04 #@! TO.N,GND*
X177750000Y-117787500D03*
D13*
G04 #@! TO.N,+3V3*
G04 #@! TO.C,C3*
G36*
X178027691Y-115776053D02*
X178048926Y-115779203D01*
X178069750Y-115784419D01*
X178089962Y-115791651D01*
X178109368Y-115800830D01*
X178127781Y-115811866D01*
X178145024Y-115824654D01*
X178160930Y-115839070D01*
X178175346Y-115854976D01*
X178188134Y-115872219D01*
X178199170Y-115890632D01*
X178208349Y-115910038D01*
X178215581Y-115930250D01*
X178220797Y-115951074D01*
X178223947Y-115972309D01*
X178225000Y-115993750D01*
X178225000Y-116431250D01*
X178223947Y-116452691D01*
X178220797Y-116473926D01*
X178215581Y-116494750D01*
X178208349Y-116514962D01*
X178199170Y-116534368D01*
X178188134Y-116552781D01*
X178175346Y-116570024D01*
X178160930Y-116585930D01*
X178145024Y-116600346D01*
X178127781Y-116613134D01*
X178109368Y-116624170D01*
X178089962Y-116633349D01*
X178069750Y-116640581D01*
X178048926Y-116645797D01*
X178027691Y-116648947D01*
X178006250Y-116650000D01*
X177493750Y-116650000D01*
X177472309Y-116648947D01*
X177451074Y-116645797D01*
X177430250Y-116640581D01*
X177410038Y-116633349D01*
X177390632Y-116624170D01*
X177372219Y-116613134D01*
X177354976Y-116600346D01*
X177339070Y-116585930D01*
X177324654Y-116570024D01*
X177311866Y-116552781D01*
X177300830Y-116534368D01*
X177291651Y-116514962D01*
X177284419Y-116494750D01*
X177279203Y-116473926D01*
X177276053Y-116452691D01*
X177275000Y-116431250D01*
X177275000Y-115993750D01*
X177276053Y-115972309D01*
X177279203Y-115951074D01*
X177284419Y-115930250D01*
X177291651Y-115910038D01*
X177300830Y-115890632D01*
X177311866Y-115872219D01*
X177324654Y-115854976D01*
X177339070Y-115839070D01*
X177354976Y-115824654D01*
X177372219Y-115811866D01*
X177390632Y-115800830D01*
X177410038Y-115791651D01*
X177430250Y-115784419D01*
X177451074Y-115779203D01*
X177472309Y-115776053D01*
X177493750Y-115775000D01*
X178006250Y-115775000D01*
X178027691Y-115776053D01*
X178027691Y-115776053D01*
G37*
D14*
G04 #@! TD*
G04 #@! TO.P,C3,1*
G04 #@! TO.N,+3V3*
X177750000Y-116212500D03*
D13*
G04 #@! TO.N,Net-(C1-Pad1)*
G04 #@! TO.C,C1*
G36*
X186527691Y-116026053D02*
X186548926Y-116029203D01*
X186569750Y-116034419D01*
X186589962Y-116041651D01*
X186609368Y-116050830D01*
X186627781Y-116061866D01*
X186645024Y-116074654D01*
X186660930Y-116089070D01*
X186675346Y-116104976D01*
X186688134Y-116122219D01*
X186699170Y-116140632D01*
X186708349Y-116160038D01*
X186715581Y-116180250D01*
X186720797Y-116201074D01*
X186723947Y-116222309D01*
X186725000Y-116243750D01*
X186725000Y-116681250D01*
X186723947Y-116702691D01*
X186720797Y-116723926D01*
X186715581Y-116744750D01*
X186708349Y-116764962D01*
X186699170Y-116784368D01*
X186688134Y-116802781D01*
X186675346Y-116820024D01*
X186660930Y-116835930D01*
X186645024Y-116850346D01*
X186627781Y-116863134D01*
X186609368Y-116874170D01*
X186589962Y-116883349D01*
X186569750Y-116890581D01*
X186548926Y-116895797D01*
X186527691Y-116898947D01*
X186506250Y-116900000D01*
X185993750Y-116900000D01*
X185972309Y-116898947D01*
X185951074Y-116895797D01*
X185930250Y-116890581D01*
X185910038Y-116883349D01*
X185890632Y-116874170D01*
X185872219Y-116863134D01*
X185854976Y-116850346D01*
X185839070Y-116835930D01*
X185824654Y-116820024D01*
X185811866Y-116802781D01*
X185800830Y-116784368D01*
X185791651Y-116764962D01*
X185784419Y-116744750D01*
X185779203Y-116723926D01*
X185776053Y-116702691D01*
X185775000Y-116681250D01*
X185775000Y-116243750D01*
X185776053Y-116222309D01*
X185779203Y-116201074D01*
X185784419Y-116180250D01*
X185791651Y-116160038D01*
X185800830Y-116140632D01*
X185811866Y-116122219D01*
X185824654Y-116104976D01*
X185839070Y-116089070D01*
X185854976Y-116074654D01*
X185872219Y-116061866D01*
X185890632Y-116050830D01*
X185910038Y-116041651D01*
X185930250Y-116034419D01*
X185951074Y-116029203D01*
X185972309Y-116026053D01*
X185993750Y-116025000D01*
X186506250Y-116025000D01*
X186527691Y-116026053D01*
X186527691Y-116026053D01*
G37*
D14*
G04 #@! TD*
G04 #@! TO.P,C1,1*
G04 #@! TO.N,Net-(C1-Pad1)*
X186250000Y-116462500D03*
D13*
G04 #@! TO.N,GND*
G04 #@! TO.C,C1*
G36*
X186527691Y-117601053D02*
X186548926Y-117604203D01*
X186569750Y-117609419D01*
X186589962Y-117616651D01*
X186609368Y-117625830D01*
X186627781Y-117636866D01*
X186645024Y-117649654D01*
X186660930Y-117664070D01*
X186675346Y-117679976D01*
X186688134Y-117697219D01*
X186699170Y-117715632D01*
X186708349Y-117735038D01*
X186715581Y-117755250D01*
X186720797Y-117776074D01*
X186723947Y-117797309D01*
X186725000Y-117818750D01*
X186725000Y-118256250D01*
X186723947Y-118277691D01*
X186720797Y-118298926D01*
X186715581Y-118319750D01*
X186708349Y-118339962D01*
X186699170Y-118359368D01*
X186688134Y-118377781D01*
X186675346Y-118395024D01*
X186660930Y-118410930D01*
X186645024Y-118425346D01*
X186627781Y-118438134D01*
X186609368Y-118449170D01*
X186589962Y-118458349D01*
X186569750Y-118465581D01*
X186548926Y-118470797D01*
X186527691Y-118473947D01*
X186506250Y-118475000D01*
X185993750Y-118475000D01*
X185972309Y-118473947D01*
X185951074Y-118470797D01*
X185930250Y-118465581D01*
X185910038Y-118458349D01*
X185890632Y-118449170D01*
X185872219Y-118438134D01*
X185854976Y-118425346D01*
X185839070Y-118410930D01*
X185824654Y-118395024D01*
X185811866Y-118377781D01*
X185800830Y-118359368D01*
X185791651Y-118339962D01*
X185784419Y-118319750D01*
X185779203Y-118298926D01*
X185776053Y-118277691D01*
X185775000Y-118256250D01*
X185775000Y-117818750D01*
X185776053Y-117797309D01*
X185779203Y-117776074D01*
X185784419Y-117755250D01*
X185791651Y-117735038D01*
X185800830Y-117715632D01*
X185811866Y-117697219D01*
X185824654Y-117679976D01*
X185839070Y-117664070D01*
X185854976Y-117649654D01*
X185872219Y-117636866D01*
X185890632Y-117625830D01*
X185910038Y-117616651D01*
X185930250Y-117609419D01*
X185951074Y-117604203D01*
X185972309Y-117601053D01*
X185993750Y-117600000D01*
X186506250Y-117600000D01*
X186527691Y-117601053D01*
X186527691Y-117601053D01*
G37*
D14*
G04 #@! TD*
G04 #@! TO.P,C1,2*
G04 #@! TO.N,GND*
X186250000Y-118037500D03*
D15*
G04 #@! TO.P,C2,1*
G04 #@! TO.N,+3V3*
X181750000Y-115000000D03*
D16*
G04 #@! TO.P,C2,2*
G04 #@! TO.N,GND*
X181750000Y-117000000D03*
G04 #@! TD*
D17*
G04 #@! TO.P,J1,1*
G04 #@! TO.N,Net-(C1-Pad1)*
X189040000Y-114800000D03*
G04 #@! TO.P,J1,2*
G04 #@! TO.N,/D-*
X189040000Y-114150000D03*
G04 #@! TO.P,J1,3*
G04 #@! TO.N,/D+*
X189040000Y-113500000D03*
G04 #@! TO.P,J1,4*
G04 #@! TO.N,Net-(J1-Pad4)*
X189040000Y-112850000D03*
G04 #@! TO.P,J1,5*
G04 #@! TO.N,GND*
X189040000Y-112200000D03*
D18*
G04 #@! TO.P,J1,6*
X189400000Y-115962500D03*
X189400000Y-111037500D03*
D19*
X191700000Y-116410000D03*
X191700000Y-110590000D03*
D20*
X191700000Y-114340000D03*
X191700000Y-112660000D03*
G04 #@! TD*
D13*
G04 #@! TO.N,Net-(D2-Pad2)*
G04 #@! TO.C,D2*
G36*
X188749504Y-105626204D02*
X188773773Y-105629804D01*
X188797571Y-105635765D01*
X188820671Y-105644030D01*
X188842849Y-105654520D01*
X188863893Y-105667133D01*
X188883598Y-105681747D01*
X188901777Y-105698223D01*
X188918253Y-105716402D01*
X188932867Y-105736107D01*
X188945480Y-105757151D01*
X188955970Y-105779329D01*
X188964235Y-105802429D01*
X188970196Y-105826227D01*
X188973796Y-105850496D01*
X188975000Y-105875000D01*
X188975000Y-107125000D01*
X188973796Y-107149504D01*
X188970196Y-107173773D01*
X188964235Y-107197571D01*
X188955970Y-107220671D01*
X188945480Y-107242849D01*
X188932867Y-107263893D01*
X188918253Y-107283598D01*
X188901777Y-107301777D01*
X188883598Y-107318253D01*
X188863893Y-107332867D01*
X188842849Y-107345480D01*
X188820671Y-107355970D01*
X188797571Y-107364235D01*
X188773773Y-107370196D01*
X188749504Y-107373796D01*
X188725000Y-107375000D01*
X187975000Y-107375000D01*
X187950496Y-107373796D01*
X187926227Y-107370196D01*
X187902429Y-107364235D01*
X187879329Y-107355970D01*
X187857151Y-107345480D01*
X187836107Y-107332867D01*
X187816402Y-107318253D01*
X187798223Y-107301777D01*
X187781747Y-107283598D01*
X187767133Y-107263893D01*
X187754520Y-107242849D01*
X187744030Y-107220671D01*
X187735765Y-107197571D01*
X187729804Y-107173773D01*
X187726204Y-107149504D01*
X187725000Y-107125000D01*
X187725000Y-105875000D01*
X187726204Y-105850496D01*
X187729804Y-105826227D01*
X187735765Y-105802429D01*
X187744030Y-105779329D01*
X187754520Y-105757151D01*
X187767133Y-105736107D01*
X187781747Y-105716402D01*
X187798223Y-105698223D01*
X187816402Y-105681747D01*
X187836107Y-105667133D01*
X187857151Y-105654520D01*
X187879329Y-105644030D01*
X187902429Y-105635765D01*
X187926227Y-105629804D01*
X187950496Y-105626204D01*
X187975000Y-105625000D01*
X188725000Y-105625000D01*
X188749504Y-105626204D01*
X188749504Y-105626204D01*
G37*
D21*
G04 #@! TD*
G04 #@! TO.P,D2,2*
G04 #@! TO.N,Net-(D2-Pad2)*
X188350000Y-106500000D03*
D13*
G04 #@! TO.N,Net-(D2-Pad1)*
G04 #@! TO.C,D2*
G36*
X191549504Y-105626204D02*
X191573773Y-105629804D01*
X191597571Y-105635765D01*
X191620671Y-105644030D01*
X191642849Y-105654520D01*
X191663893Y-105667133D01*
X191683598Y-105681747D01*
X191701777Y-105698223D01*
X191718253Y-105716402D01*
X191732867Y-105736107D01*
X191745480Y-105757151D01*
X191755970Y-105779329D01*
X191764235Y-105802429D01*
X191770196Y-105826227D01*
X191773796Y-105850496D01*
X191775000Y-105875000D01*
X191775000Y-107125000D01*
X191773796Y-107149504D01*
X191770196Y-107173773D01*
X191764235Y-107197571D01*
X191755970Y-107220671D01*
X191745480Y-107242849D01*
X191732867Y-107263893D01*
X191718253Y-107283598D01*
X191701777Y-107301777D01*
X191683598Y-107318253D01*
X191663893Y-107332867D01*
X191642849Y-107345480D01*
X191620671Y-107355970D01*
X191597571Y-107364235D01*
X191573773Y-107370196D01*
X191549504Y-107373796D01*
X191525000Y-107375000D01*
X190775000Y-107375000D01*
X190750496Y-107373796D01*
X190726227Y-107370196D01*
X190702429Y-107364235D01*
X190679329Y-107355970D01*
X190657151Y-107345480D01*
X190636107Y-107332867D01*
X190616402Y-107318253D01*
X190598223Y-107301777D01*
X190581747Y-107283598D01*
X190567133Y-107263893D01*
X190554520Y-107242849D01*
X190544030Y-107220671D01*
X190535765Y-107197571D01*
X190529804Y-107173773D01*
X190526204Y-107149504D01*
X190525000Y-107125000D01*
X190525000Y-105875000D01*
X190526204Y-105850496D01*
X190529804Y-105826227D01*
X190535765Y-105802429D01*
X190544030Y-105779329D01*
X190554520Y-105757151D01*
X190567133Y-105736107D01*
X190581747Y-105716402D01*
X190598223Y-105698223D01*
X190616402Y-105681747D01*
X190636107Y-105667133D01*
X190657151Y-105654520D01*
X190679329Y-105644030D01*
X190702429Y-105635765D01*
X190726227Y-105629804D01*
X190750496Y-105626204D01*
X190775000Y-105625000D01*
X191525000Y-105625000D01*
X191549504Y-105626204D01*
X191549504Y-105626204D01*
G37*
D21*
G04 #@! TD*
G04 #@! TO.P,D2,1*
G04 #@! TO.N,Net-(D2-Pad1)*
X191150000Y-106500000D03*
D13*
G04 #@! TO.N,Net-(D1-Pad1)*
G04 #@! TO.C,D1*
G36*
X191449504Y-100876204D02*
X191473773Y-100879804D01*
X191497571Y-100885765D01*
X191520671Y-100894030D01*
X191542849Y-100904520D01*
X191563893Y-100917133D01*
X191583598Y-100931747D01*
X191601777Y-100948223D01*
X191618253Y-100966402D01*
X191632867Y-100986107D01*
X191645480Y-101007151D01*
X191655970Y-101029329D01*
X191664235Y-101052429D01*
X191670196Y-101076227D01*
X191673796Y-101100496D01*
X191675000Y-101125000D01*
X191675000Y-102375000D01*
X191673796Y-102399504D01*
X191670196Y-102423773D01*
X191664235Y-102447571D01*
X191655970Y-102470671D01*
X191645480Y-102492849D01*
X191632867Y-102513893D01*
X191618253Y-102533598D01*
X191601777Y-102551777D01*
X191583598Y-102568253D01*
X191563893Y-102582867D01*
X191542849Y-102595480D01*
X191520671Y-102605970D01*
X191497571Y-102614235D01*
X191473773Y-102620196D01*
X191449504Y-102623796D01*
X191425000Y-102625000D01*
X190675000Y-102625000D01*
X190650496Y-102623796D01*
X190626227Y-102620196D01*
X190602429Y-102614235D01*
X190579329Y-102605970D01*
X190557151Y-102595480D01*
X190536107Y-102582867D01*
X190516402Y-102568253D01*
X190498223Y-102551777D01*
X190481747Y-102533598D01*
X190467133Y-102513893D01*
X190454520Y-102492849D01*
X190444030Y-102470671D01*
X190435765Y-102447571D01*
X190429804Y-102423773D01*
X190426204Y-102399504D01*
X190425000Y-102375000D01*
X190425000Y-101125000D01*
X190426204Y-101100496D01*
X190429804Y-101076227D01*
X190435765Y-101052429D01*
X190444030Y-101029329D01*
X190454520Y-101007151D01*
X190467133Y-100986107D01*
X190481747Y-100966402D01*
X190498223Y-100948223D01*
X190516402Y-100931747D01*
X190536107Y-100917133D01*
X190557151Y-100904520D01*
X190579329Y-100894030D01*
X190602429Y-100885765D01*
X190626227Y-100879804D01*
X190650496Y-100876204D01*
X190675000Y-100875000D01*
X191425000Y-100875000D01*
X191449504Y-100876204D01*
X191449504Y-100876204D01*
G37*
D21*
G04 #@! TD*
G04 #@! TO.P,D1,1*
G04 #@! TO.N,Net-(D1-Pad1)*
X191050000Y-101750000D03*
D13*
G04 #@! TO.N,Net-(D1-Pad2)*
G04 #@! TO.C,D1*
G36*
X188649504Y-100876204D02*
X188673773Y-100879804D01*
X188697571Y-100885765D01*
X188720671Y-100894030D01*
X188742849Y-100904520D01*
X188763893Y-100917133D01*
X188783598Y-100931747D01*
X188801777Y-100948223D01*
X188818253Y-100966402D01*
X188832867Y-100986107D01*
X188845480Y-101007151D01*
X188855970Y-101029329D01*
X188864235Y-101052429D01*
X188870196Y-101076227D01*
X188873796Y-101100496D01*
X188875000Y-101125000D01*
X188875000Y-102375000D01*
X188873796Y-102399504D01*
X188870196Y-102423773D01*
X188864235Y-102447571D01*
X188855970Y-102470671D01*
X188845480Y-102492849D01*
X188832867Y-102513893D01*
X188818253Y-102533598D01*
X188801777Y-102551777D01*
X188783598Y-102568253D01*
X188763893Y-102582867D01*
X188742849Y-102595480D01*
X188720671Y-102605970D01*
X188697571Y-102614235D01*
X188673773Y-102620196D01*
X188649504Y-102623796D01*
X188625000Y-102625000D01*
X187875000Y-102625000D01*
X187850496Y-102623796D01*
X187826227Y-102620196D01*
X187802429Y-102614235D01*
X187779329Y-102605970D01*
X187757151Y-102595480D01*
X187736107Y-102582867D01*
X187716402Y-102568253D01*
X187698223Y-102551777D01*
X187681747Y-102533598D01*
X187667133Y-102513893D01*
X187654520Y-102492849D01*
X187644030Y-102470671D01*
X187635765Y-102447571D01*
X187629804Y-102423773D01*
X187626204Y-102399504D01*
X187625000Y-102375000D01*
X187625000Y-101125000D01*
X187626204Y-101100496D01*
X187629804Y-101076227D01*
X187635765Y-101052429D01*
X187644030Y-101029329D01*
X187654520Y-101007151D01*
X187667133Y-100986107D01*
X187681747Y-100966402D01*
X187698223Y-100948223D01*
X187716402Y-100931747D01*
X187736107Y-100917133D01*
X187757151Y-100904520D01*
X187779329Y-100894030D01*
X187802429Y-100885765D01*
X187826227Y-100879804D01*
X187850496Y-100876204D01*
X187875000Y-100875000D01*
X188625000Y-100875000D01*
X188649504Y-100876204D01*
X188649504Y-100876204D01*
G37*
D21*
G04 #@! TD*
G04 #@! TO.P,D1,2*
G04 #@! TO.N,Net-(D1-Pad2)*
X188250000Y-101750000D03*
D22*
G04 #@! TO.P,CON1,*
G04 #@! TO.N,*
X157250000Y-103900000D03*
D23*
G04 #@! TO.P,CON1,1*
G04 #@! TO.N,VCC*
X158250000Y-106000000D03*
G04 #@! TO.P,CON1,2*
G04 #@! TO.N,/SWDIO*
X159250000Y-106000000D03*
G04 #@! TO.P,CON1,3*
G04 #@! TO.N,/SWCLK*
X160250000Y-106000000D03*
G04 #@! TO.P,CON1,4*
G04 #@! TO.N,/MCU_RESET*
X161250000Y-106000000D03*
G04 #@! TO.P,CON1,5*
G04 #@! TO.N,/UART_TX*
X162250000Y-106000000D03*
G04 #@! TO.P,CON1,6*
G04 #@! TO.N,GND*
X163250000Y-106000000D03*
D22*
G04 #@! TO.P,CON1,*
G04 #@! TO.N,*
X164250000Y-103900000D03*
G04 #@! TD*
D13*
G04 #@! TO.N,VBUS*
G04 #@! TO.C,L1*
G36*
X185527691Y-108276053D02*
X185548926Y-108279203D01*
X185569750Y-108284419D01*
X185589962Y-108291651D01*
X185609368Y-108300830D01*
X185627781Y-108311866D01*
X185645024Y-108324654D01*
X185660930Y-108339070D01*
X185675346Y-108354976D01*
X185688134Y-108372219D01*
X185699170Y-108390632D01*
X185708349Y-108410038D01*
X185715581Y-108430250D01*
X185720797Y-108451074D01*
X185723947Y-108472309D01*
X185725000Y-108493750D01*
X185725000Y-108931250D01*
X185723947Y-108952691D01*
X185720797Y-108973926D01*
X185715581Y-108994750D01*
X185708349Y-109014962D01*
X185699170Y-109034368D01*
X185688134Y-109052781D01*
X185675346Y-109070024D01*
X185660930Y-109085930D01*
X185645024Y-109100346D01*
X185627781Y-109113134D01*
X185609368Y-109124170D01*
X185589962Y-109133349D01*
X185569750Y-109140581D01*
X185548926Y-109145797D01*
X185527691Y-109148947D01*
X185506250Y-109150000D01*
X184993750Y-109150000D01*
X184972309Y-109148947D01*
X184951074Y-109145797D01*
X184930250Y-109140581D01*
X184910038Y-109133349D01*
X184890632Y-109124170D01*
X184872219Y-109113134D01*
X184854976Y-109100346D01*
X184839070Y-109085930D01*
X184824654Y-109070024D01*
X184811866Y-109052781D01*
X184800830Y-109034368D01*
X184791651Y-109014962D01*
X184784419Y-108994750D01*
X184779203Y-108973926D01*
X184776053Y-108952691D01*
X184775000Y-108931250D01*
X184775000Y-108493750D01*
X184776053Y-108472309D01*
X184779203Y-108451074D01*
X184784419Y-108430250D01*
X184791651Y-108410038D01*
X184800830Y-108390632D01*
X184811866Y-108372219D01*
X184824654Y-108354976D01*
X184839070Y-108339070D01*
X184854976Y-108324654D01*
X184872219Y-108311866D01*
X184890632Y-108300830D01*
X184910038Y-108291651D01*
X184930250Y-108284419D01*
X184951074Y-108279203D01*
X184972309Y-108276053D01*
X184993750Y-108275000D01*
X185506250Y-108275000D01*
X185527691Y-108276053D01*
X185527691Y-108276053D01*
G37*
D14*
G04 #@! TD*
G04 #@! TO.P,L1,1*
G04 #@! TO.N,VBUS*
X185250000Y-108712500D03*
D13*
G04 #@! TO.N,Net-(C1-Pad1)*
G04 #@! TO.C,L1*
G36*
X185527691Y-109851053D02*
X185548926Y-109854203D01*
X185569750Y-109859419D01*
X185589962Y-109866651D01*
X185609368Y-109875830D01*
X185627781Y-109886866D01*
X185645024Y-109899654D01*
X185660930Y-109914070D01*
X185675346Y-109929976D01*
X185688134Y-109947219D01*
X185699170Y-109965632D01*
X185708349Y-109985038D01*
X185715581Y-110005250D01*
X185720797Y-110026074D01*
X185723947Y-110047309D01*
X185725000Y-110068750D01*
X185725000Y-110506250D01*
X185723947Y-110527691D01*
X185720797Y-110548926D01*
X185715581Y-110569750D01*
X185708349Y-110589962D01*
X185699170Y-110609368D01*
X185688134Y-110627781D01*
X185675346Y-110645024D01*
X185660930Y-110660930D01*
X185645024Y-110675346D01*
X185627781Y-110688134D01*
X185609368Y-110699170D01*
X185589962Y-110708349D01*
X185569750Y-110715581D01*
X185548926Y-110720797D01*
X185527691Y-110723947D01*
X185506250Y-110725000D01*
X184993750Y-110725000D01*
X184972309Y-110723947D01*
X184951074Y-110720797D01*
X184930250Y-110715581D01*
X184910038Y-110708349D01*
X184890632Y-110699170D01*
X184872219Y-110688134D01*
X184854976Y-110675346D01*
X184839070Y-110660930D01*
X184824654Y-110645024D01*
X184811866Y-110627781D01*
X184800830Y-110609368D01*
X184791651Y-110589962D01*
X184784419Y-110569750D01*
X184779203Y-110548926D01*
X184776053Y-110527691D01*
X184775000Y-110506250D01*
X184775000Y-110068750D01*
X184776053Y-110047309D01*
X184779203Y-110026074D01*
X184784419Y-110005250D01*
X184791651Y-109985038D01*
X184800830Y-109965632D01*
X184811866Y-109947219D01*
X184824654Y-109929976D01*
X184839070Y-109914070D01*
X184854976Y-109899654D01*
X184872219Y-109886866D01*
X184890632Y-109875830D01*
X184910038Y-109866651D01*
X184930250Y-109859419D01*
X184951074Y-109854203D01*
X184972309Y-109851053D01*
X184993750Y-109850000D01*
X185506250Y-109850000D01*
X185527691Y-109851053D01*
X185527691Y-109851053D01*
G37*
D14*
G04 #@! TD*
G04 #@! TO.P,L1,2*
G04 #@! TO.N,Net-(C1-Pad1)*
X185250000Y-110287500D03*
D24*
G04 #@! TO.P,U1,1*
G04 #@! TO.N,/RXD*
X170900000Y-104275000D03*
G04 #@! TO.P,U1,2*
G04 #@! TO.N,Net-(U1-Pad2)*
X170900000Y-104925000D03*
G04 #@! TO.P,U1,3*
G04 #@! TO.N,Net-(U1-Pad3)*
X170900000Y-105575000D03*
G04 #@! TO.P,U1,4*
G04 #@! TO.N,VBUS*
X170900000Y-106225000D03*
G04 #@! TO.P,U1,5*
G04 #@! TO.N,/TXD*
X170900000Y-106875000D03*
G04 #@! TO.P,U1,6*
G04 #@! TO.N,Net-(U1-Pad6)*
X170900000Y-107525000D03*
G04 #@! TO.P,U1,7*
G04 #@! TO.N,GND*
X170900000Y-108175000D03*
G04 #@! TO.P,U1,8*
G04 #@! TO.N,N/C*
X170900000Y-108825000D03*
G04 #@! TO.P,U1,9*
G04 #@! TO.N,Net-(U1-Pad9)*
X170900000Y-109475000D03*
G04 #@! TO.P,U1,10*
G04 #@! TO.N,Net-(U1-Pad10)*
X170900000Y-110125000D03*
G04 #@! TO.P,U1,11*
G04 #@! TO.N,Net-(U1-Pad11)*
X170900000Y-110775000D03*
G04 #@! TO.P,U1,12*
G04 #@! TO.N,Net-(U1-Pad12)*
X170900000Y-111425000D03*
G04 #@! TO.P,U1,13*
G04 #@! TO.N,Net-(U1-Pad13)*
X170900000Y-112075000D03*
G04 #@! TO.P,U1,14*
G04 #@! TO.N,Net-(U1-Pad14)*
X170900000Y-112725000D03*
G04 #@! TO.P,U1,15*
G04 #@! TO.N,/D+*
X178100000Y-112725000D03*
G04 #@! TO.P,U1,16*
G04 #@! TO.N,/D-*
X178100000Y-112075000D03*
G04 #@! TO.P,U1,17*
G04 #@! TO.N,+3V3*
X178100000Y-111425000D03*
G04 #@! TO.P,U1,18*
G04 #@! TO.N,GND*
X178100000Y-110775000D03*
G04 #@! TO.P,U1,19*
G04 #@! TO.N,Net-(U1-Pad19)*
X178100000Y-110125000D03*
G04 #@! TO.P,U1,20*
G04 #@! TO.N,VBUS*
X178100000Y-109475000D03*
G04 #@! TO.P,U1,21*
G04 #@! TO.N,GND*
X178100000Y-108825000D03*
G04 #@! TO.P,U1,22*
G04 #@! TO.N,Net-(D2-Pad1)*
X178100000Y-108175000D03*
G04 #@! TO.P,U1,23*
G04 #@! TO.N,Net-(D1-Pad1)*
X178100000Y-107525000D03*
G04 #@! TO.P,U1,24*
G04 #@! TO.N,N/C*
X178100000Y-106875000D03*
G04 #@! TO.P,U1,25*
G04 #@! TO.N,GND*
X178100000Y-106225000D03*
G04 #@! TO.P,U1,26*
X178100000Y-105575000D03*
G04 #@! TO.P,U1,27*
G04 #@! TO.N,Net-(U1-Pad27)*
X178100000Y-104925000D03*
G04 #@! TO.P,U1,28*
G04 #@! TO.N,Net-(U1-Pad28)*
X178100000Y-104275000D03*
G04 #@! TD*
D13*
G04 #@! TO.N,VBUS*
G04 #@! TO.C,R3*
G36*
X186230142Y-104576174D02*
X186253803Y-104579684D01*
X186277007Y-104585496D01*
X186299529Y-104593554D01*
X186321153Y-104603782D01*
X186341670Y-104616079D01*
X186360883Y-104630329D01*
X186378607Y-104646393D01*
X186394671Y-104664117D01*
X186408921Y-104683330D01*
X186421218Y-104703847D01*
X186431446Y-104725471D01*
X186439504Y-104747993D01*
X186445316Y-104771197D01*
X186448826Y-104794858D01*
X186450000Y-104818750D01*
X186450000Y-105306250D01*
X186448826Y-105330142D01*
X186445316Y-105353803D01*
X186439504Y-105377007D01*
X186431446Y-105399529D01*
X186421218Y-105421153D01*
X186408921Y-105441670D01*
X186394671Y-105460883D01*
X186378607Y-105478607D01*
X186360883Y-105494671D01*
X186341670Y-105508921D01*
X186321153Y-105521218D01*
X186299529Y-105531446D01*
X186277007Y-105539504D01*
X186253803Y-105545316D01*
X186230142Y-105548826D01*
X186206250Y-105550000D01*
X185293750Y-105550000D01*
X185269858Y-105548826D01*
X185246197Y-105545316D01*
X185222993Y-105539504D01*
X185200471Y-105531446D01*
X185178847Y-105521218D01*
X185158330Y-105508921D01*
X185139117Y-105494671D01*
X185121393Y-105478607D01*
X185105329Y-105460883D01*
X185091079Y-105441670D01*
X185078782Y-105421153D01*
X185068554Y-105399529D01*
X185060496Y-105377007D01*
X185054684Y-105353803D01*
X185051174Y-105330142D01*
X185050000Y-105306250D01*
X185050000Y-104818750D01*
X185051174Y-104794858D01*
X185054684Y-104771197D01*
X185060496Y-104747993D01*
X185068554Y-104725471D01*
X185078782Y-104703847D01*
X185091079Y-104683330D01*
X185105329Y-104664117D01*
X185121393Y-104646393D01*
X185139117Y-104630329D01*
X185158330Y-104616079D01*
X185178847Y-104603782D01*
X185200471Y-104593554D01*
X185222993Y-104585496D01*
X185246197Y-104579684D01*
X185269858Y-104576174D01*
X185293750Y-104575000D01*
X186206250Y-104575000D01*
X186230142Y-104576174D01*
X186230142Y-104576174D01*
G37*
D25*
G04 #@! TD*
G04 #@! TO.P,R3,1*
G04 #@! TO.N,VBUS*
X185750000Y-105062500D03*
D13*
G04 #@! TO.N,Net-(D2-Pad2)*
G04 #@! TO.C,R3*
G36*
X186230142Y-106451174D02*
X186253803Y-106454684D01*
X186277007Y-106460496D01*
X186299529Y-106468554D01*
X186321153Y-106478782D01*
X186341670Y-106491079D01*
X186360883Y-106505329D01*
X186378607Y-106521393D01*
X186394671Y-106539117D01*
X186408921Y-106558330D01*
X186421218Y-106578847D01*
X186431446Y-106600471D01*
X186439504Y-106622993D01*
X186445316Y-106646197D01*
X186448826Y-106669858D01*
X186450000Y-106693750D01*
X186450000Y-107181250D01*
X186448826Y-107205142D01*
X186445316Y-107228803D01*
X186439504Y-107252007D01*
X186431446Y-107274529D01*
X186421218Y-107296153D01*
X186408921Y-107316670D01*
X186394671Y-107335883D01*
X186378607Y-107353607D01*
X186360883Y-107369671D01*
X186341670Y-107383921D01*
X186321153Y-107396218D01*
X186299529Y-107406446D01*
X186277007Y-107414504D01*
X186253803Y-107420316D01*
X186230142Y-107423826D01*
X186206250Y-107425000D01*
X185293750Y-107425000D01*
X185269858Y-107423826D01*
X185246197Y-107420316D01*
X185222993Y-107414504D01*
X185200471Y-107406446D01*
X185178847Y-107396218D01*
X185158330Y-107383921D01*
X185139117Y-107369671D01*
X185121393Y-107353607D01*
X185105329Y-107335883D01*
X185091079Y-107316670D01*
X185078782Y-107296153D01*
X185068554Y-107274529D01*
X185060496Y-107252007D01*
X185054684Y-107228803D01*
X185051174Y-107205142D01*
X185050000Y-107181250D01*
X185050000Y-106693750D01*
X185051174Y-106669858D01*
X185054684Y-106646197D01*
X185060496Y-106622993D01*
X185068554Y-106600471D01*
X185078782Y-106578847D01*
X185091079Y-106558330D01*
X185105329Y-106539117D01*
X185121393Y-106521393D01*
X185139117Y-106505329D01*
X185158330Y-106491079D01*
X185178847Y-106478782D01*
X185200471Y-106468554D01*
X185222993Y-106460496D01*
X185246197Y-106454684D01*
X185269858Y-106451174D01*
X185293750Y-106450000D01*
X186206250Y-106450000D01*
X186230142Y-106451174D01*
X186230142Y-106451174D01*
G37*
D25*
G04 #@! TD*
G04 #@! TO.P,R3,2*
G04 #@! TO.N,Net-(D2-Pad2)*
X185750000Y-106937500D03*
D13*
G04 #@! TO.N,Net-(D1-Pad2)*
G04 #@! TO.C,R2*
G36*
X186230142Y-100826174D02*
X186253803Y-100829684D01*
X186277007Y-100835496D01*
X186299529Y-100843554D01*
X186321153Y-100853782D01*
X186341670Y-100866079D01*
X186360883Y-100880329D01*
X186378607Y-100896393D01*
X186394671Y-100914117D01*
X186408921Y-100933330D01*
X186421218Y-100953847D01*
X186431446Y-100975471D01*
X186439504Y-100997993D01*
X186445316Y-101021197D01*
X186448826Y-101044858D01*
X186450000Y-101068750D01*
X186450000Y-101556250D01*
X186448826Y-101580142D01*
X186445316Y-101603803D01*
X186439504Y-101627007D01*
X186431446Y-101649529D01*
X186421218Y-101671153D01*
X186408921Y-101691670D01*
X186394671Y-101710883D01*
X186378607Y-101728607D01*
X186360883Y-101744671D01*
X186341670Y-101758921D01*
X186321153Y-101771218D01*
X186299529Y-101781446D01*
X186277007Y-101789504D01*
X186253803Y-101795316D01*
X186230142Y-101798826D01*
X186206250Y-101800000D01*
X185293750Y-101800000D01*
X185269858Y-101798826D01*
X185246197Y-101795316D01*
X185222993Y-101789504D01*
X185200471Y-101781446D01*
X185178847Y-101771218D01*
X185158330Y-101758921D01*
X185139117Y-101744671D01*
X185121393Y-101728607D01*
X185105329Y-101710883D01*
X185091079Y-101691670D01*
X185078782Y-101671153D01*
X185068554Y-101649529D01*
X185060496Y-101627007D01*
X185054684Y-101603803D01*
X185051174Y-101580142D01*
X185050000Y-101556250D01*
X185050000Y-101068750D01*
X185051174Y-101044858D01*
X185054684Y-101021197D01*
X185060496Y-100997993D01*
X185068554Y-100975471D01*
X185078782Y-100953847D01*
X185091079Y-100933330D01*
X185105329Y-100914117D01*
X185121393Y-100896393D01*
X185139117Y-100880329D01*
X185158330Y-100866079D01*
X185178847Y-100853782D01*
X185200471Y-100843554D01*
X185222993Y-100835496D01*
X185246197Y-100829684D01*
X185269858Y-100826174D01*
X185293750Y-100825000D01*
X186206250Y-100825000D01*
X186230142Y-100826174D01*
X186230142Y-100826174D01*
G37*
D25*
G04 #@! TD*
G04 #@! TO.P,R2,2*
G04 #@! TO.N,Net-(D1-Pad2)*
X185750000Y-101312500D03*
D13*
G04 #@! TO.N,VBUS*
G04 #@! TO.C,R2*
G36*
X186230142Y-102701174D02*
X186253803Y-102704684D01*
X186277007Y-102710496D01*
X186299529Y-102718554D01*
X186321153Y-102728782D01*
X186341670Y-102741079D01*
X186360883Y-102755329D01*
X186378607Y-102771393D01*
X186394671Y-102789117D01*
X186408921Y-102808330D01*
X186421218Y-102828847D01*
X186431446Y-102850471D01*
X186439504Y-102872993D01*
X186445316Y-102896197D01*
X186448826Y-102919858D01*
X186450000Y-102943750D01*
X186450000Y-103431250D01*
X186448826Y-103455142D01*
X186445316Y-103478803D01*
X186439504Y-103502007D01*
X186431446Y-103524529D01*
X186421218Y-103546153D01*
X186408921Y-103566670D01*
X186394671Y-103585883D01*
X186378607Y-103603607D01*
X186360883Y-103619671D01*
X186341670Y-103633921D01*
X186321153Y-103646218D01*
X186299529Y-103656446D01*
X186277007Y-103664504D01*
X186253803Y-103670316D01*
X186230142Y-103673826D01*
X186206250Y-103675000D01*
X185293750Y-103675000D01*
X185269858Y-103673826D01*
X185246197Y-103670316D01*
X185222993Y-103664504D01*
X185200471Y-103656446D01*
X185178847Y-103646218D01*
X185158330Y-103633921D01*
X185139117Y-103619671D01*
X185121393Y-103603607D01*
X185105329Y-103585883D01*
X185091079Y-103566670D01*
X185078782Y-103546153D01*
X185068554Y-103524529D01*
X185060496Y-103502007D01*
X185054684Y-103478803D01*
X185051174Y-103455142D01*
X185050000Y-103431250D01*
X185050000Y-102943750D01*
X185051174Y-102919858D01*
X185054684Y-102896197D01*
X185060496Y-102872993D01*
X185068554Y-102850471D01*
X185078782Y-102828847D01*
X185091079Y-102808330D01*
X185105329Y-102789117D01*
X185121393Y-102771393D01*
X185139117Y-102755329D01*
X185158330Y-102741079D01*
X185178847Y-102728782D01*
X185200471Y-102718554D01*
X185222993Y-102710496D01*
X185246197Y-102704684D01*
X185269858Y-102701174D01*
X185293750Y-102700000D01*
X186206250Y-102700000D01*
X186230142Y-102701174D01*
X186230142Y-102701174D01*
G37*
D25*
G04 #@! TD*
G04 #@! TO.P,R2,1*
G04 #@! TO.N,VBUS*
X185750000Y-103187500D03*
D13*
G04 #@! TO.N,GND*
G04 #@! TO.C,R1*
G36*
X158730142Y-116888674D02*
X158753803Y-116892184D01*
X158777007Y-116897996D01*
X158799529Y-116906054D01*
X158821153Y-116916282D01*
X158841670Y-116928579D01*
X158860883Y-116942829D01*
X158878607Y-116958893D01*
X158894671Y-116976617D01*
X158908921Y-116995830D01*
X158921218Y-117016347D01*
X158931446Y-117037971D01*
X158939504Y-117060493D01*
X158945316Y-117083697D01*
X158948826Y-117107358D01*
X158950000Y-117131250D01*
X158950000Y-117618750D01*
X158948826Y-117642642D01*
X158945316Y-117666303D01*
X158939504Y-117689507D01*
X158931446Y-117712029D01*
X158921218Y-117733653D01*
X158908921Y-117754170D01*
X158894671Y-117773383D01*
X158878607Y-117791107D01*
X158860883Y-117807171D01*
X158841670Y-117821421D01*
X158821153Y-117833718D01*
X158799529Y-117843946D01*
X158777007Y-117852004D01*
X158753803Y-117857816D01*
X158730142Y-117861326D01*
X158706250Y-117862500D01*
X157793750Y-117862500D01*
X157769858Y-117861326D01*
X157746197Y-117857816D01*
X157722993Y-117852004D01*
X157700471Y-117843946D01*
X157678847Y-117833718D01*
X157658330Y-117821421D01*
X157639117Y-117807171D01*
X157621393Y-117791107D01*
X157605329Y-117773383D01*
X157591079Y-117754170D01*
X157578782Y-117733653D01*
X157568554Y-117712029D01*
X157560496Y-117689507D01*
X157554684Y-117666303D01*
X157551174Y-117642642D01*
X157550000Y-117618750D01*
X157550000Y-117131250D01*
X157551174Y-117107358D01*
X157554684Y-117083697D01*
X157560496Y-117060493D01*
X157568554Y-117037971D01*
X157578782Y-117016347D01*
X157591079Y-116995830D01*
X157605329Y-116976617D01*
X157621393Y-116958893D01*
X157639117Y-116942829D01*
X157658330Y-116928579D01*
X157678847Y-116916282D01*
X157700471Y-116906054D01*
X157722993Y-116897996D01*
X157746197Y-116892184D01*
X157769858Y-116888674D01*
X157793750Y-116887500D01*
X158706250Y-116887500D01*
X158730142Y-116888674D01*
X158730142Y-116888674D01*
G37*
D25*
G04 #@! TD*
G04 #@! TO.P,R1,1*
G04 #@! TO.N,GND*
X158250000Y-117375000D03*
D13*
G04 #@! TO.N,VCC*
G04 #@! TO.C,R1*
G36*
X158730142Y-115013674D02*
X158753803Y-115017184D01*
X158777007Y-115022996D01*
X158799529Y-115031054D01*
X158821153Y-115041282D01*
X158841670Y-115053579D01*
X158860883Y-115067829D01*
X158878607Y-115083893D01*
X158894671Y-115101617D01*
X158908921Y-115120830D01*
X158921218Y-115141347D01*
X158931446Y-115162971D01*
X158939504Y-115185493D01*
X158945316Y-115208697D01*
X158948826Y-115232358D01*
X158950000Y-115256250D01*
X158950000Y-115743750D01*
X158948826Y-115767642D01*
X158945316Y-115791303D01*
X158939504Y-115814507D01*
X158931446Y-115837029D01*
X158921218Y-115858653D01*
X158908921Y-115879170D01*
X158894671Y-115898383D01*
X158878607Y-115916107D01*
X158860883Y-115932171D01*
X158841670Y-115946421D01*
X158821153Y-115958718D01*
X158799529Y-115968946D01*
X158777007Y-115977004D01*
X158753803Y-115982816D01*
X158730142Y-115986326D01*
X158706250Y-115987500D01*
X157793750Y-115987500D01*
X157769858Y-115986326D01*
X157746197Y-115982816D01*
X157722993Y-115977004D01*
X157700471Y-115968946D01*
X157678847Y-115958718D01*
X157658330Y-115946421D01*
X157639117Y-115932171D01*
X157621393Y-115916107D01*
X157605329Y-115898383D01*
X157591079Y-115879170D01*
X157578782Y-115858653D01*
X157568554Y-115837029D01*
X157560496Y-115814507D01*
X157554684Y-115791303D01*
X157551174Y-115767642D01*
X157550000Y-115743750D01*
X157550000Y-115256250D01*
X157551174Y-115232358D01*
X157554684Y-115208697D01*
X157560496Y-115185493D01*
X157568554Y-115162971D01*
X157578782Y-115141347D01*
X157591079Y-115120830D01*
X157605329Y-115101617D01*
X157621393Y-115083893D01*
X157639117Y-115067829D01*
X157658330Y-115053579D01*
X157678847Y-115041282D01*
X157700471Y-115031054D01*
X157722993Y-115022996D01*
X157746197Y-115017184D01*
X157769858Y-115013674D01*
X157793750Y-115012500D01*
X158706250Y-115012500D01*
X158730142Y-115013674D01*
X158730142Y-115013674D01*
G37*
D25*
G04 #@! TD*
G04 #@! TO.P,R1,2*
G04 #@! TO.N,VCC*
X158250000Y-115500000D03*
D26*
G04 #@! TO.N,GND*
X192250000Y-111250000D03*
X192250000Y-116250000D03*
X167750000Y-108750000D03*
X158750000Y-111750000D03*
X158250000Y-117500000D03*
X177750000Y-117750000D03*
X186250000Y-118000000D03*
X183000000Y-101000000D03*
X160750000Y-109250000D03*
X158000000Y-113750000D03*
X169000000Y-117250000D03*
X167500000Y-118250000D03*
X172750000Y-108250000D03*
X164350542Y-108424777D03*
X191750000Y-127750000D03*
X189000000Y-128000000D03*
X186000000Y-128000000D03*
X183000000Y-128000000D03*
X180000000Y-128000000D03*
X177000000Y-128000000D03*
X174000000Y-128000000D03*
X171000000Y-128000000D03*
X168000000Y-128000000D03*
X165000000Y-128000000D03*
X162000000Y-128000000D03*
X159000000Y-128000000D03*
X156000000Y-128000000D03*
X155000000Y-126000000D03*
X155000000Y-123000000D03*
X154750000Y-120250000D03*
X154750000Y-117250000D03*
X154750000Y-114500000D03*
X154750000Y-112250000D03*
X154750000Y-110000000D03*
X154750000Y-107500000D03*
X154750000Y-105000000D03*
X154750000Y-102500000D03*
X155250000Y-100000000D03*
X159000000Y-99750000D03*
X161500000Y-99750000D03*
X164000000Y-99750000D03*
X166500000Y-99750000D03*
X191750000Y-100000000D03*
X190000000Y-99500000D03*
X187500000Y-99500000D03*
X185000000Y-99500000D03*
X182500000Y-99500000D03*
X180000000Y-99500000D03*
X177750000Y-99500000D03*
X175000000Y-99500000D03*
X172500000Y-99500000D03*
X170250000Y-99500000D03*
X192000000Y-125500000D03*
X192000000Y-123000000D03*
X192000000Y-120500000D03*
X191250000Y-118500000D03*
X192250000Y-113750000D03*
X192250000Y-108750000D03*
X192250000Y-103750000D03*
X188750000Y-120750000D03*
X188750000Y-123000000D03*
X188750000Y-125500000D03*
X186000000Y-120250000D03*
X182750000Y-120250000D03*
X179750000Y-120250000D03*
X176750000Y-120250000D03*
X174250000Y-120250000D03*
X170750000Y-120250000D03*
X167750000Y-120250000D03*
X164500000Y-120250000D03*
X161500000Y-120250000D03*
X159500000Y-119000000D03*
X162750000Y-118750000D03*
X163500000Y-116500000D03*
X165250000Y-115000000D03*
X163500000Y-113750000D03*
X165000000Y-112750000D03*
X172000000Y-117250000D03*
X174750000Y-117250000D03*
X174500000Y-114750000D03*
X171500000Y-114750000D03*
X169250000Y-114500000D03*
X172750000Y-104000000D03*
X176250000Y-104500000D03*
X176000000Y-108250000D03*
X175750000Y-112750000D03*
X172750000Y-112750000D03*
X174000000Y-110500000D03*
X174000000Y-106250000D03*
X176000000Y-110500000D03*
X179500000Y-102250000D03*
X182000000Y-102500000D03*
X183750000Y-104000000D03*
X182250000Y-106250000D03*
X180250000Y-106250000D03*
X180000000Y-104000000D03*
X181750000Y-104250000D03*
X181000000Y-101000000D03*
X178500000Y-101000000D03*
X169250000Y-103750000D03*
X167500000Y-105500000D03*
X165750000Y-104500000D03*
X165750000Y-102750000D03*
X180750000Y-109500000D03*
X180250000Y-111250000D03*
X183500000Y-109750000D03*
X187000000Y-109500000D03*
X187250000Y-111500000D03*
X190000000Y-104500000D03*
X161750000Y-102250000D03*
X157250000Y-108250000D03*
X157250000Y-112000000D03*
X157750000Y-124000000D03*
X157500000Y-126000000D03*
X159750000Y-115250000D03*
G04 #@! TO.N,VCC*
X158500000Y-103500000D03*
G04 #@! TO.N,/UART_RX*
X161500000Y-110250000D03*
X163500000Y-110750000D03*
X169000000Y-102750000D03*
G04 #@! TO.N,/UART_TX*
X162750000Y-103500000D03*
G04 #@! TO.N,/D+*
X186500000Y-112750000D03*
X184500000Y-112750000D03*
G04 #@! TO.N,/D-*
X186500000Y-114000000D03*
X183249984Y-111750000D03*
G04 #@! TO.N,Net-(D2-Pad1)*
X187750000Y-108500000D03*
X183250012Y-108000000D03*
G04 #@! TO.N,Net-(D1-Pad1)*
X183250000Y-107000000D03*
X187750000Y-104750016D03*
G04 #@! TO.N,/SWDIO*
X159795497Y-122454497D03*
G04 #@! TO.N,/SWCLK*
X160250000Y-124500004D03*
G04 #@! TO.N,/MCU_RESET*
X159750000Y-126000000D03*
G04 #@! TD*
D27*
G04 #@! TO.N,VCC*
X158250000Y-109500000D02*
X159000000Y-110250000D01*
X158250000Y-106000000D02*
X158250000Y-109500000D01*
X159037500Y-110437500D02*
X159037500Y-110250000D01*
X160575000Y-111975000D02*
X159037500Y-110437500D01*
X160575000Y-111975000D02*
X161550000Y-111975000D01*
X158250000Y-103750000D02*
X158250000Y-106000000D01*
X158500000Y-103500000D02*
X158250000Y-103750000D01*
X158500000Y-115500000D02*
X158250000Y-115500000D01*
X161550000Y-117175000D02*
X160175000Y-117175000D01*
X160175000Y-117175000D02*
X158500000Y-115500000D01*
X160500000Y-112050000D02*
X160575000Y-111975000D01*
X160500000Y-113000000D02*
X160500000Y-112050000D01*
X158250000Y-115500000D02*
X158250000Y-115250000D01*
X158250000Y-115250000D02*
X160500000Y-113000000D01*
X162000000Y-125000000D02*
X160520499Y-123520499D01*
X160520499Y-122106495D02*
X160143499Y-121729495D01*
X160052499Y-121729495D02*
X157000000Y-118676996D01*
X160520499Y-123520499D02*
X160520499Y-122106495D01*
X157000000Y-118676996D02*
X157000000Y-116750000D01*
X160143499Y-121729495D02*
X160052499Y-121729495D01*
X157693763Y-116056237D02*
X158250000Y-115500000D01*
X157000000Y-116750000D02*
X157693763Y-116056237D01*
G04 #@! TO.N,Net-(D1-Pad2)*
X188012500Y-101312500D02*
X188450000Y-101750000D01*
X185750000Y-101312500D02*
X188012500Y-101312500D01*
G04 #@! TO.N,VBUS*
X166475000Y-111975000D02*
X167450000Y-111975000D01*
X166212500Y-108750000D02*
X166212500Y-111712500D01*
X166212500Y-111712500D02*
X166475000Y-111975000D01*
X185750000Y-105062500D02*
X185750000Y-104000000D01*
X185750000Y-104000000D02*
X185750000Y-103187500D01*
X168712500Y-106250000D02*
X171000000Y-106250000D01*
X166212500Y-108750000D02*
X168712500Y-106250000D01*
X185750000Y-105500000D02*
X185750000Y-105062500D01*
X184500000Y-106312500D02*
X185750000Y-105062500D01*
X184500000Y-107425000D02*
X184500000Y-106312500D01*
X185250000Y-108712500D02*
X185250000Y-108175000D01*
X185250000Y-108175000D02*
X184500000Y-107425000D01*
X171225000Y-106225000D02*
X170900000Y-106225000D01*
X178025000Y-109475000D02*
X178000000Y-109500000D01*
X178100000Y-109475000D02*
X178025000Y-109475000D01*
X178000000Y-109500000D02*
X175500000Y-109500000D01*
X175500000Y-109500000D02*
X172250000Y-106250000D01*
X172250000Y-106250000D02*
X171250000Y-106250000D01*
X171250000Y-106250000D02*
X171225000Y-106225000D01*
X185212500Y-108750000D02*
X185250000Y-108712500D01*
X180250000Y-108750000D02*
X185212500Y-108750000D01*
X178100000Y-109475000D02*
X179525000Y-109475000D01*
X179525000Y-109475000D02*
X180250000Y-108750000D01*
G04 #@! TO.N,Net-(D2-Pad2)*
X188012500Y-106937500D02*
X188450000Y-106500000D01*
X185750000Y-106937500D02*
X188012500Y-106937500D01*
G04 #@! TO.N,/UART_RX*
X161500000Y-111275000D02*
X161550000Y-111325000D01*
X161500000Y-110250000D02*
X161500000Y-111275000D01*
X163500000Y-110750000D02*
X163500000Y-108250000D01*
X168600001Y-103149999D02*
X169000000Y-102750000D01*
X163500000Y-108250000D02*
X168600001Y-103149999D01*
G04 #@! TO.N,/UART_TX*
X162250000Y-106000000D02*
X162250000Y-104000000D01*
X162250000Y-104000000D02*
X162750000Y-103500000D01*
X162600001Y-107600001D02*
X162600001Y-112549999D01*
X162250000Y-106000000D02*
X162250000Y-107250000D01*
X162525000Y-112625000D02*
X161550000Y-112625000D01*
X162600001Y-112549999D02*
X162525000Y-112625000D01*
X162250000Y-107250000D02*
X162600001Y-107600001D01*
G04 #@! TO.N,/D+*
X187250000Y-113500000D02*
X186899999Y-113149999D01*
X189040000Y-113500000D02*
X187250000Y-113500000D01*
X186899999Y-113149999D02*
X186500000Y-112750000D01*
X184475000Y-112725000D02*
X184500000Y-112750000D01*
X178100000Y-112725000D02*
X184475000Y-112725000D01*
G04 #@! TO.N,/D-*
X188100000Y-114150000D02*
X189040000Y-114150000D01*
X187215685Y-114150000D02*
X188100000Y-114150000D01*
X187065685Y-114000000D02*
X187215685Y-114150000D01*
X186500000Y-114000000D02*
X187065685Y-114000000D01*
X182924984Y-112075000D02*
X183249984Y-111750000D01*
X178100000Y-112075000D02*
X182924984Y-112075000D01*
G04 #@! TO.N,+3V3*
X178962500Y-115000000D02*
X177750000Y-116212500D01*
X181750000Y-115000000D02*
X178962500Y-115000000D01*
X177288388Y-115750888D02*
X177750000Y-116212500D01*
X176500000Y-114962500D02*
X177288388Y-115750888D01*
X176500000Y-111900000D02*
X176500000Y-114962500D01*
X178100000Y-111425000D02*
X176975000Y-111425000D01*
X176975000Y-111425000D02*
X176500000Y-111900000D01*
G04 #@! TO.N,Net-(D2-Pad1)*
X189650000Y-108500000D02*
X191650000Y-106500000D01*
X187750000Y-108500000D02*
X189650000Y-108500000D01*
X178100000Y-108175000D02*
X183075012Y-108175000D01*
X183075012Y-108175000D02*
X183250012Y-108000000D01*
G04 #@! TO.N,Net-(D1-Pad1)*
X191250000Y-101500000D02*
X191250000Y-101750000D01*
X182475000Y-107525000D02*
X183000000Y-107000000D01*
X183000000Y-107000000D02*
X183250000Y-107000000D01*
X178100000Y-107525000D02*
X182475000Y-107525000D01*
X191050000Y-101750000D02*
X188049984Y-104750016D01*
X188049984Y-104750016D02*
X187750000Y-104750016D01*
G04 #@! TO.N,Net-(C1-Pad1)*
X186300000Y-114800000D02*
X189040000Y-114800000D01*
X186250000Y-114850000D02*
X186300000Y-114800000D01*
X186250000Y-116462500D02*
X186250000Y-114850000D01*
X185250000Y-110287500D02*
X185250000Y-113823002D01*
X186226998Y-114800000D02*
X186300000Y-114800000D01*
X185250000Y-113823002D02*
X186226998Y-114800000D01*
G04 #@! TO.N,/SWDIO*
X159250000Y-106000000D02*
X159250000Y-102886410D01*
X156400022Y-119059022D02*
X159395498Y-122054498D01*
X159395498Y-122054498D02*
X159795497Y-122454497D01*
X156864998Y-101250000D02*
X156400022Y-101714976D01*
X159250000Y-102886410D02*
X157613590Y-101250000D01*
X157613590Y-101250000D02*
X156864998Y-101250000D01*
X156400022Y-101714976D02*
X156400022Y-119059022D01*
G04 #@! TO.N,/SWCLK*
X155950011Y-119634330D02*
X160250000Y-123934319D01*
X160250000Y-123934319D02*
X160250000Y-124500004D01*
X157799990Y-100799989D02*
X156678598Y-100799989D01*
X160250000Y-103249999D02*
X157799990Y-100799989D01*
X160250000Y-106000000D02*
X160250000Y-103249999D01*
X156678598Y-100799989D02*
X155950011Y-101528576D01*
X155950011Y-101528576D02*
X155950011Y-119634330D01*
G04 #@! TO.N,/MCU_RESET*
X159500000Y-124000000D02*
X159500000Y-125750000D01*
X161250000Y-106000000D02*
X161250000Y-103500000D01*
X158099978Y-100349978D02*
X156492198Y-100349978D01*
X156492198Y-100349978D02*
X155500000Y-101342176D01*
X161250000Y-103500000D02*
X158099978Y-100349978D01*
X155500000Y-101342176D02*
X155500000Y-120000000D01*
X159500000Y-125750000D02*
X159750000Y-126000000D01*
X155500000Y-120000000D02*
X159500000Y-124000000D01*
G04 #@! TO.N,/RXD*
X166475000Y-112625000D02*
X167450000Y-112625000D01*
X170000000Y-104250000D02*
X166500000Y-107750000D01*
X170750000Y-104250000D02*
X170000000Y-104250000D01*
X166500000Y-107750000D02*
X165800000Y-107750000D01*
X165800000Y-107750000D02*
X165250000Y-108300000D01*
X165250000Y-108300000D02*
X165250000Y-111400000D01*
X165250000Y-111400000D02*
X166475000Y-112625000D01*
G04 #@! TO.N,/TXD*
X167450000Y-110850000D02*
X167450000Y-111325000D01*
X168750000Y-109550000D02*
X167450000Y-110850000D01*
X168750000Y-107900000D02*
X168750000Y-109550000D01*
X170900000Y-106875000D02*
X169775000Y-106875000D01*
X169775000Y-106875000D02*
X168750000Y-107900000D01*
G04 #@! TD*
D28*
G04 #@! TO.N,GND*
G36*
X191447354Y-99470167D02*
X191858746Y-99657217D01*
X192201105Y-99952212D01*
X192446906Y-100331437D01*
X192580373Y-100777721D01*
X192598001Y-101014935D01*
X192598000Y-126971361D01*
X192529833Y-127447354D01*
X192342784Y-127858745D01*
X192047788Y-128201105D01*
X191668564Y-128446906D01*
X191222279Y-128580373D01*
X190985079Y-128598000D01*
X156028639Y-128598000D01*
X155552646Y-128529833D01*
X155141255Y-128342784D01*
X154798895Y-128047788D01*
X154553094Y-127668564D01*
X154419627Y-127222279D01*
X154402000Y-126985079D01*
X154402000Y-101342176D01*
X155039145Y-101342176D01*
X155048000Y-101386694D01*
X155048001Y-119955477D01*
X155039145Y-120000000D01*
X155074225Y-120176361D01*
X155074226Y-120176362D01*
X155174127Y-120325874D01*
X155211867Y-120351091D01*
X159048000Y-124187225D01*
X159048001Y-125705478D01*
X159039145Y-125750000D01*
X159048070Y-125794867D01*
X159023000Y-125855391D01*
X159023000Y-126144609D01*
X159133679Y-126411813D01*
X159338187Y-126616321D01*
X159605391Y-126727000D01*
X159894609Y-126727000D01*
X160161813Y-126616321D01*
X160366321Y-126411813D01*
X160477000Y-126144609D01*
X160477000Y-125855391D01*
X160366321Y-125588187D01*
X160161813Y-125383679D01*
X159952000Y-125296772D01*
X159952000Y-125163468D01*
X160105391Y-125227004D01*
X160394609Y-125227004D01*
X160661813Y-125116325D01*
X160866321Y-124911817D01*
X160916594Y-124790447D01*
X160916594Y-125900000D01*
X160941973Y-126027589D01*
X161014246Y-126135754D01*
X161122411Y-126208027D01*
X161250000Y-126233406D01*
X162950000Y-126233406D01*
X163077589Y-126208027D01*
X163185754Y-126135754D01*
X163258027Y-126027589D01*
X163283406Y-125900000D01*
X163283406Y-125050000D01*
X163439942Y-125050000D01*
X163531291Y-125509242D01*
X163791431Y-125898569D01*
X164180758Y-126158709D01*
X164524080Y-126227000D01*
X164755920Y-126227000D01*
X165099242Y-126158709D01*
X165488569Y-125898569D01*
X165748709Y-125509242D01*
X165840058Y-125050000D01*
X165979942Y-125050000D01*
X166071291Y-125509242D01*
X166331431Y-125898569D01*
X166720758Y-126158709D01*
X167064080Y-126227000D01*
X167295920Y-126227000D01*
X167639242Y-126158709D01*
X168028569Y-125898569D01*
X168288709Y-125509242D01*
X168380058Y-125050000D01*
X168519942Y-125050000D01*
X168611291Y-125509242D01*
X168871431Y-125898569D01*
X169260758Y-126158709D01*
X169604080Y-126227000D01*
X169835920Y-126227000D01*
X170179242Y-126158709D01*
X170568569Y-125898569D01*
X170828709Y-125509242D01*
X170920058Y-125050000D01*
X171059942Y-125050000D01*
X171151291Y-125509242D01*
X171411431Y-125898569D01*
X171800758Y-126158709D01*
X172144080Y-126227000D01*
X172375920Y-126227000D01*
X172719242Y-126158709D01*
X173108569Y-125898569D01*
X173368709Y-125509242D01*
X173460058Y-125050000D01*
X173599942Y-125050000D01*
X173691291Y-125509242D01*
X173951431Y-125898569D01*
X174340758Y-126158709D01*
X174684080Y-126227000D01*
X174915920Y-126227000D01*
X175259242Y-126158709D01*
X175648569Y-125898569D01*
X175908709Y-125509242D01*
X176000058Y-125050000D01*
X176139942Y-125050000D01*
X176231291Y-125509242D01*
X176491431Y-125898569D01*
X176880758Y-126158709D01*
X177224080Y-126227000D01*
X177455920Y-126227000D01*
X177799242Y-126158709D01*
X178188569Y-125898569D01*
X178448709Y-125509242D01*
X178540058Y-125050000D01*
X178679942Y-125050000D01*
X178771291Y-125509242D01*
X179031431Y-125898569D01*
X179420758Y-126158709D01*
X179764080Y-126227000D01*
X179995920Y-126227000D01*
X180339242Y-126158709D01*
X180728569Y-125898569D01*
X180988709Y-125509242D01*
X181080058Y-125050000D01*
X181219942Y-125050000D01*
X181311291Y-125509242D01*
X181571431Y-125898569D01*
X181960758Y-126158709D01*
X182304080Y-126227000D01*
X182535920Y-126227000D01*
X182879242Y-126158709D01*
X183268569Y-125898569D01*
X183528709Y-125509242D01*
X183620058Y-125050000D01*
X183759942Y-125050000D01*
X183851291Y-125509242D01*
X184111431Y-125898569D01*
X184500758Y-126158709D01*
X184844080Y-126227000D01*
X185075920Y-126227000D01*
X185419242Y-126158709D01*
X185808569Y-125898569D01*
X186068709Y-125509242D01*
X186160058Y-125050000D01*
X186068709Y-124590758D01*
X185808569Y-124201431D01*
X185419242Y-123941291D01*
X185075920Y-123873000D01*
X184844080Y-123873000D01*
X184500758Y-123941291D01*
X184111431Y-124201431D01*
X183851291Y-124590758D01*
X183759942Y-125050000D01*
X183620058Y-125050000D01*
X183528709Y-124590758D01*
X183268569Y-124201431D01*
X182879242Y-123941291D01*
X182535920Y-123873000D01*
X182304080Y-123873000D01*
X181960758Y-123941291D01*
X181571431Y-124201431D01*
X181311291Y-124590758D01*
X181219942Y-125050000D01*
X181080058Y-125050000D01*
X180988709Y-124590758D01*
X180728569Y-124201431D01*
X180339242Y-123941291D01*
X179995920Y-123873000D01*
X179764080Y-123873000D01*
X179420758Y-123941291D01*
X179031431Y-124201431D01*
X178771291Y-124590758D01*
X178679942Y-125050000D01*
X178540058Y-125050000D01*
X178448709Y-124590758D01*
X178188569Y-124201431D01*
X177799242Y-123941291D01*
X177455920Y-123873000D01*
X177224080Y-123873000D01*
X176880758Y-123941291D01*
X176491431Y-124201431D01*
X176231291Y-124590758D01*
X176139942Y-125050000D01*
X176000058Y-125050000D01*
X175908709Y-124590758D01*
X175648569Y-124201431D01*
X175259242Y-123941291D01*
X174915920Y-123873000D01*
X174684080Y-123873000D01*
X174340758Y-123941291D01*
X173951431Y-124201431D01*
X173691291Y-124590758D01*
X173599942Y-125050000D01*
X173460058Y-125050000D01*
X173368709Y-124590758D01*
X173108569Y-124201431D01*
X172719242Y-123941291D01*
X172375920Y-123873000D01*
X172144080Y-123873000D01*
X171800758Y-123941291D01*
X171411431Y-124201431D01*
X171151291Y-124590758D01*
X171059942Y-125050000D01*
X170920058Y-125050000D01*
X170828709Y-124590758D01*
X170568569Y-124201431D01*
X170179242Y-123941291D01*
X169835920Y-123873000D01*
X169604080Y-123873000D01*
X169260758Y-123941291D01*
X168871431Y-124201431D01*
X168611291Y-124590758D01*
X168519942Y-125050000D01*
X168380058Y-125050000D01*
X168288709Y-124590758D01*
X168028569Y-124201431D01*
X167639242Y-123941291D01*
X167295920Y-123873000D01*
X167064080Y-123873000D01*
X166720758Y-123941291D01*
X166331431Y-124201431D01*
X166071291Y-124590758D01*
X165979942Y-125050000D01*
X165840058Y-125050000D01*
X165748709Y-124590758D01*
X165488569Y-124201431D01*
X165099242Y-123941291D01*
X164755920Y-123873000D01*
X164524080Y-123873000D01*
X164180758Y-123941291D01*
X163791431Y-124201431D01*
X163531291Y-124590758D01*
X163439942Y-125050000D01*
X163283406Y-125050000D01*
X163283406Y-124200000D01*
X163258027Y-124072411D01*
X163185754Y-123964246D01*
X163077589Y-123891973D01*
X162950000Y-123866594D01*
X161505818Y-123866594D01*
X160972499Y-123333275D01*
X160972499Y-122874768D01*
X160991291Y-122969242D01*
X161251431Y-123358569D01*
X161640758Y-123618709D01*
X161984080Y-123687000D01*
X162215920Y-123687000D01*
X162559242Y-123618709D01*
X162948569Y-123358569D01*
X163208709Y-122969242D01*
X163300058Y-122510000D01*
X163208709Y-122050758D01*
X162948569Y-121661431D01*
X162559242Y-121401291D01*
X162215920Y-121333000D01*
X161984080Y-121333000D01*
X161640758Y-121401291D01*
X161251431Y-121661431D01*
X160991291Y-122050758D01*
X160980779Y-122103605D01*
X160946274Y-121930133D01*
X160930053Y-121905857D01*
X160846373Y-121780621D01*
X160808630Y-121755402D01*
X160494592Y-121441364D01*
X160469373Y-121403621D01*
X160319861Y-121303720D01*
X160252562Y-121290334D01*
X157452000Y-118489772D01*
X157452000Y-116937224D01*
X158044854Y-116344371D01*
X158044856Y-116344368D01*
X158068318Y-116320906D01*
X158681682Y-116320906D01*
X159823909Y-117463133D01*
X159849126Y-117500874D01*
X159886866Y-117526091D01*
X159998638Y-117600775D01*
X160175000Y-117635855D01*
X160219518Y-117627000D01*
X160583397Y-117627000D01*
X160589246Y-117635754D01*
X160697411Y-117708027D01*
X160825000Y-117733406D01*
X162275000Y-117733406D01*
X162402589Y-117708027D01*
X162510754Y-117635754D01*
X162583027Y-117527589D01*
X162608406Y-117400000D01*
X162608406Y-116950000D01*
X162588515Y-116850000D01*
X162608406Y-116750000D01*
X162608406Y-116300000D01*
X162588515Y-116200000D01*
X162608406Y-116100000D01*
X162608406Y-115650000D01*
X162588515Y-115550000D01*
X162608406Y-115450000D01*
X162608406Y-115000000D01*
X162588515Y-114900000D01*
X162608406Y-114800000D01*
X162608406Y-114350000D01*
X162588515Y-114250000D01*
X162608406Y-114150000D01*
X162608406Y-113700000D01*
X162588515Y-113600000D01*
X162608406Y-113500000D01*
X162608406Y-113069265D01*
X162701362Y-113050775D01*
X162850874Y-112950874D01*
X162876094Y-112913129D01*
X162888130Y-112901094D01*
X162925875Y-112875873D01*
X163025776Y-112726361D01*
X163052001Y-112594517D01*
X163052001Y-112594516D01*
X163060856Y-112550000D01*
X163052001Y-112505483D01*
X163052001Y-111330135D01*
X163088187Y-111366321D01*
X163355391Y-111477000D01*
X163644609Y-111477000D01*
X163911813Y-111366321D01*
X164116321Y-111161813D01*
X164227000Y-110894609D01*
X164227000Y-110605391D01*
X164116321Y-110338187D01*
X163952000Y-110173866D01*
X163952000Y-108437224D01*
X164089224Y-108300000D01*
X164789145Y-108300000D01*
X164798000Y-108344518D01*
X164798001Y-111355478D01*
X164789145Y-111400000D01*
X164824225Y-111576361D01*
X164898063Y-111686867D01*
X164924127Y-111725874D01*
X164961867Y-111751091D01*
X166123909Y-112913133D01*
X166149126Y-112950874D01*
X166186866Y-112976091D01*
X166298638Y-113050775D01*
X166391594Y-113069265D01*
X166391594Y-113500000D01*
X166411485Y-113600000D01*
X166391594Y-113700000D01*
X166391594Y-114150000D01*
X166411485Y-114250000D01*
X166391594Y-114350000D01*
X166391594Y-114800000D01*
X166411485Y-114900000D01*
X166391594Y-115000000D01*
X166391594Y-115450000D01*
X166411485Y-115550000D01*
X166391594Y-115650000D01*
X166391594Y-116100000D01*
X166411485Y-116200000D01*
X166391594Y-116300000D01*
X166391594Y-116750000D01*
X166416973Y-116877589D01*
X166489246Y-116985754D01*
X166597411Y-117058027D01*
X166725000Y-117083406D01*
X168175000Y-117083406D01*
X168302589Y-117058027D01*
X168410754Y-116985754D01*
X168483027Y-116877589D01*
X168508406Y-116750000D01*
X168508406Y-116300000D01*
X168488515Y-116200000D01*
X168508406Y-116100000D01*
X168508406Y-115650000D01*
X168488515Y-115550000D01*
X168508406Y-115450000D01*
X168508406Y-115000000D01*
X168488515Y-114900000D01*
X168508406Y-114800000D01*
X168508406Y-114350000D01*
X168488515Y-114250000D01*
X168508406Y-114150000D01*
X168508406Y-113700000D01*
X168488515Y-113600000D01*
X168508406Y-113500000D01*
X168508406Y-113050000D01*
X168488515Y-112950000D01*
X168508406Y-112850000D01*
X168508406Y-112400000D01*
X168488515Y-112300000D01*
X168508406Y-112200000D01*
X168508406Y-111750000D01*
X168488515Y-111650000D01*
X168508406Y-111550000D01*
X168508406Y-111100000D01*
X168483027Y-110972411D01*
X168410754Y-110864246D01*
X168302589Y-110791973D01*
X168175000Y-110766594D01*
X168172630Y-110766594D01*
X169038133Y-109901091D01*
X169075874Y-109875874D01*
X169175775Y-109726362D01*
X169202000Y-109594518D01*
X169210855Y-109550000D01*
X169202000Y-109505482D01*
X169202000Y-108600000D01*
X169691594Y-108600000D01*
X169691594Y-109050000D01*
X169711485Y-109150000D01*
X169691594Y-109250000D01*
X169691594Y-109700000D01*
X169711485Y-109800000D01*
X169691594Y-109900000D01*
X169691594Y-110350000D01*
X169711485Y-110450000D01*
X169691594Y-110550000D01*
X169691594Y-111000000D01*
X169711485Y-111100000D01*
X169691594Y-111200000D01*
X169691594Y-111650000D01*
X169711485Y-111750000D01*
X169691594Y-111850000D01*
X169691594Y-112300000D01*
X169711485Y-112400000D01*
X169691594Y-112500000D01*
X169691594Y-112950000D01*
X169716973Y-113077589D01*
X169789246Y-113185754D01*
X169897411Y-113258027D01*
X170025000Y-113283406D01*
X171775000Y-113283406D01*
X171902589Y-113258027D01*
X172010754Y-113185754D01*
X172083027Y-113077589D01*
X172108406Y-112950000D01*
X172108406Y-112500000D01*
X172088515Y-112400000D01*
X172108406Y-112300000D01*
X172108406Y-111900000D01*
X176039145Y-111900000D01*
X176048000Y-111944518D01*
X176048001Y-114917978D01*
X176039145Y-114962500D01*
X176074225Y-115138861D01*
X176148486Y-115250000D01*
X176174127Y-115288374D01*
X176211867Y-115313591D01*
X176941594Y-116043319D01*
X176941594Y-116431250D01*
X176983624Y-116642551D01*
X177103317Y-116821683D01*
X177282449Y-116941376D01*
X177493750Y-116983406D01*
X178006250Y-116983406D01*
X178217551Y-116941376D01*
X178396683Y-116821683D01*
X178516376Y-116642551D01*
X178558406Y-116431250D01*
X178558406Y-116043318D01*
X179149725Y-115452000D01*
X180616594Y-115452000D01*
X180616594Y-115800000D01*
X180641973Y-115927589D01*
X180714246Y-116035754D01*
X180822411Y-116108027D01*
X180950000Y-116133406D01*
X182550000Y-116133406D01*
X182677589Y-116108027D01*
X182785754Y-116035754D01*
X182858027Y-115927589D01*
X182883406Y-115800000D01*
X182883406Y-114200000D01*
X182858027Y-114072411D01*
X182785754Y-113964246D01*
X182677589Y-113891973D01*
X182550000Y-113866594D01*
X180950000Y-113866594D01*
X180822411Y-113891973D01*
X180714246Y-113964246D01*
X180641973Y-114072411D01*
X180616594Y-114200000D01*
X180616594Y-114548000D01*
X179007018Y-114548000D01*
X178962500Y-114539145D01*
X178917982Y-114548000D01*
X178786138Y-114574225D01*
X178636626Y-114674126D01*
X178611409Y-114711867D01*
X177881682Y-115441594D01*
X177618319Y-115441594D01*
X176952000Y-114775276D01*
X176952000Y-113130011D01*
X176989246Y-113185754D01*
X177097411Y-113258027D01*
X177225000Y-113283406D01*
X178975000Y-113283406D01*
X179102589Y-113258027D01*
X179210754Y-113185754D01*
X179216603Y-113177000D01*
X183898866Y-113177000D01*
X184088187Y-113366321D01*
X184355391Y-113477000D01*
X184644609Y-113477000D01*
X184798001Y-113413463D01*
X184798001Y-113778480D01*
X184789145Y-113823002D01*
X184824225Y-113999363D01*
X184898909Y-114111135D01*
X184924127Y-114148876D01*
X184961867Y-114174093D01*
X185798001Y-115010228D01*
X185798000Y-115730531D01*
X185782449Y-115733624D01*
X185603317Y-115853317D01*
X185483624Y-116032449D01*
X185441594Y-116243750D01*
X185441594Y-116681250D01*
X185483624Y-116892551D01*
X185603317Y-117071683D01*
X185782449Y-117191376D01*
X185993750Y-117233406D01*
X186506250Y-117233406D01*
X186717551Y-117191376D01*
X186896683Y-117071683D01*
X187016376Y-116892551D01*
X187058406Y-116681250D01*
X187058406Y-116243750D01*
X187016376Y-116032449D01*
X186896683Y-115853317D01*
X186717551Y-115733624D01*
X186702000Y-115730531D01*
X186702000Y-115252000D01*
X188108397Y-115252000D01*
X188114246Y-115260754D01*
X188222411Y-115333027D01*
X188350000Y-115358406D01*
X189730000Y-115358406D01*
X189857589Y-115333027D01*
X189965754Y-115260754D01*
X190038027Y-115152589D01*
X190063406Y-115025000D01*
X190063406Y-114575000D01*
X190043515Y-114475000D01*
X190063406Y-114375000D01*
X190063406Y-113925000D01*
X190043515Y-113825000D01*
X190063406Y-113725000D01*
X190063406Y-113275000D01*
X190043515Y-113175000D01*
X190063406Y-113075000D01*
X190063406Y-112625000D01*
X190038027Y-112497411D01*
X189965754Y-112389246D01*
X189857589Y-112316973D01*
X189730000Y-112291594D01*
X188350000Y-112291594D01*
X188222411Y-112316973D01*
X188114246Y-112389246D01*
X188041973Y-112497411D01*
X188016594Y-112625000D01*
X188016594Y-113048000D01*
X187437225Y-113048000D01*
X187251092Y-112861868D01*
X187251090Y-112861865D01*
X187227000Y-112837775D01*
X187227000Y-112605391D01*
X187116321Y-112338187D01*
X186911813Y-112133679D01*
X186644609Y-112023000D01*
X186355391Y-112023000D01*
X186088187Y-112133679D01*
X185883679Y-112338187D01*
X185773000Y-112605391D01*
X185773000Y-112894609D01*
X185883679Y-113161813D01*
X186088187Y-113366321D01*
X186109140Y-113375000D01*
X186088187Y-113383679D01*
X185883679Y-113588187D01*
X185816528Y-113750305D01*
X185702000Y-113635778D01*
X185702000Y-111019469D01*
X185717551Y-111016376D01*
X185896683Y-110896683D01*
X186016376Y-110717551D01*
X186058406Y-110506250D01*
X186058406Y-110068750D01*
X186016376Y-109857449D01*
X185896683Y-109678317D01*
X185717551Y-109558624D01*
X185506250Y-109516594D01*
X184993750Y-109516594D01*
X184782449Y-109558624D01*
X184603317Y-109678317D01*
X184483624Y-109857449D01*
X184441594Y-110068750D01*
X184441594Y-110506250D01*
X184483624Y-110717551D01*
X184603317Y-110896683D01*
X184782449Y-111016376D01*
X184798000Y-111019469D01*
X184798001Y-112086537D01*
X184644609Y-112023000D01*
X184355391Y-112023000D01*
X184088187Y-112133679D01*
X183948866Y-112273000D01*
X183755118Y-112273000D01*
X183866305Y-112161813D01*
X183976984Y-111894609D01*
X183976984Y-111605391D01*
X183866305Y-111338187D01*
X183661797Y-111133679D01*
X183394593Y-111023000D01*
X183105375Y-111023000D01*
X182838171Y-111133679D01*
X182633663Y-111338187D01*
X182522984Y-111605391D01*
X182522984Y-111623000D01*
X179308406Y-111623000D01*
X179308406Y-111200000D01*
X179283027Y-111072411D01*
X179210754Y-110964246D01*
X179102589Y-110891973D01*
X178975000Y-110866594D01*
X177225000Y-110866594D01*
X177097411Y-110891973D01*
X176989246Y-110964246D01*
X176987634Y-110966658D01*
X176974999Y-110964145D01*
X176930483Y-110973000D01*
X176930482Y-110973000D01*
X176798638Y-110999225D01*
X176649126Y-111099126D01*
X176623907Y-111136869D01*
X176211869Y-111548907D01*
X176174126Y-111574126D01*
X176104995Y-111677589D01*
X176074225Y-111723639D01*
X176039145Y-111900000D01*
X172108406Y-111900000D01*
X172108406Y-111850000D01*
X172088515Y-111750000D01*
X172108406Y-111650000D01*
X172108406Y-111200000D01*
X172088515Y-111100000D01*
X172108406Y-111000000D01*
X172108406Y-110550000D01*
X172088515Y-110450000D01*
X172108406Y-110350000D01*
X172108406Y-109900000D01*
X172088515Y-109800000D01*
X172108406Y-109700000D01*
X172108406Y-109250000D01*
X172088515Y-109150000D01*
X172108406Y-109050000D01*
X172108406Y-108600000D01*
X172083027Y-108472411D01*
X172010754Y-108364246D01*
X171902589Y-108291973D01*
X171775000Y-108266594D01*
X170025000Y-108266594D01*
X169897411Y-108291973D01*
X169789246Y-108364246D01*
X169716973Y-108472411D01*
X169691594Y-108600000D01*
X169202000Y-108600000D01*
X169202000Y-108087224D01*
X169691594Y-107597631D01*
X169691594Y-107750000D01*
X169716973Y-107877589D01*
X169789246Y-107985754D01*
X169897411Y-108058027D01*
X170025000Y-108083406D01*
X171775000Y-108083406D01*
X171902589Y-108058027D01*
X172010754Y-107985754D01*
X172083027Y-107877589D01*
X172108406Y-107750000D01*
X172108406Y-107300000D01*
X172088515Y-107200000D01*
X172108406Y-107100000D01*
X172108406Y-106747630D01*
X175148908Y-109788133D01*
X175174126Y-109825874D01*
X175211866Y-109851091D01*
X175323638Y-109925775D01*
X175499999Y-109960855D01*
X175544517Y-109952000D01*
X176891594Y-109952000D01*
X176891594Y-110350000D01*
X176916973Y-110477589D01*
X176989246Y-110585754D01*
X177097411Y-110658027D01*
X177225000Y-110683406D01*
X178975000Y-110683406D01*
X179102589Y-110658027D01*
X179210754Y-110585754D01*
X179283027Y-110477589D01*
X179308406Y-110350000D01*
X179308406Y-109927000D01*
X179480482Y-109927000D01*
X179525000Y-109935855D01*
X179569518Y-109927000D01*
X179701362Y-109900775D01*
X179850874Y-109800874D01*
X179876093Y-109763131D01*
X180437225Y-109202000D01*
X184523347Y-109202000D01*
X184603317Y-109321683D01*
X184782449Y-109441376D01*
X184993750Y-109483406D01*
X185506250Y-109483406D01*
X185717551Y-109441376D01*
X185896683Y-109321683D01*
X186016376Y-109142551D01*
X186058406Y-108931250D01*
X186058406Y-108493750D01*
X186030885Y-108355391D01*
X187023000Y-108355391D01*
X187023000Y-108644609D01*
X187133679Y-108911813D01*
X187338187Y-109116321D01*
X187605391Y-109227000D01*
X187894609Y-109227000D01*
X188161813Y-109116321D01*
X188326134Y-108952000D01*
X189605482Y-108952000D01*
X189650000Y-108960855D01*
X189694518Y-108952000D01*
X189826362Y-108925775D01*
X189975874Y-108825874D01*
X190001093Y-108788131D01*
X191080819Y-107708406D01*
X191525000Y-107708406D01*
X191748260Y-107663997D01*
X191937530Y-107537530D01*
X192063997Y-107348260D01*
X192108406Y-107125000D01*
X192108406Y-106512313D01*
X192110855Y-106500001D01*
X192108406Y-106487689D01*
X192108406Y-105875000D01*
X192063997Y-105651740D01*
X191937530Y-105462470D01*
X191748260Y-105336003D01*
X191525000Y-105291594D01*
X190775000Y-105291594D01*
X190551740Y-105336003D01*
X190362470Y-105462470D01*
X190236003Y-105651740D01*
X190191594Y-105875000D01*
X190191594Y-107125000D01*
X190223811Y-107286965D01*
X189462776Y-108048000D01*
X188326134Y-108048000D01*
X188161813Y-107883679D01*
X187894609Y-107773000D01*
X187605391Y-107773000D01*
X187338187Y-107883679D01*
X187133679Y-108088187D01*
X187023000Y-108355391D01*
X186030885Y-108355391D01*
X186016376Y-108282449D01*
X185896683Y-108103317D01*
X185717551Y-107983624D01*
X185657802Y-107971739D01*
X185627481Y-107926361D01*
X185575874Y-107849126D01*
X185538133Y-107823908D01*
X185472631Y-107758406D01*
X186206250Y-107758406D01*
X186427118Y-107714473D01*
X186614361Y-107589361D01*
X186739473Y-107402118D01*
X186741983Y-107389500D01*
X187463559Y-107389500D01*
X187562470Y-107537530D01*
X187751740Y-107663997D01*
X187975000Y-107708406D01*
X188725000Y-107708406D01*
X188948260Y-107663997D01*
X189137530Y-107537530D01*
X189263997Y-107348260D01*
X189308406Y-107125000D01*
X189308406Y-105875000D01*
X189263997Y-105651740D01*
X189137530Y-105462470D01*
X188948260Y-105336003D01*
X188725000Y-105291594D01*
X188236556Y-105291594D01*
X188366321Y-105161829D01*
X188429201Y-105010023D01*
X190513035Y-102926189D01*
X190675000Y-102958406D01*
X191425000Y-102958406D01*
X191648260Y-102913997D01*
X191837530Y-102787530D01*
X191963997Y-102598260D01*
X192008406Y-102375000D01*
X192008406Y-101125000D01*
X191963997Y-100901740D01*
X191837530Y-100712470D01*
X191648260Y-100586003D01*
X191425000Y-100541594D01*
X190675000Y-100541594D01*
X190451740Y-100586003D01*
X190262470Y-100712470D01*
X190136003Y-100901740D01*
X190091594Y-101125000D01*
X190091594Y-102069181D01*
X188066543Y-104094233D01*
X187894609Y-104023016D01*
X187605391Y-104023016D01*
X187338187Y-104133695D01*
X187133679Y-104338203D01*
X187023000Y-104605407D01*
X187023000Y-104894625D01*
X187133679Y-105161829D01*
X187338187Y-105366337D01*
X187565456Y-105460475D01*
X187562470Y-105462470D01*
X187436003Y-105651740D01*
X187391594Y-105875000D01*
X187391594Y-106485500D01*
X186741983Y-106485500D01*
X186739473Y-106472882D01*
X186614361Y-106285639D01*
X186427118Y-106160527D01*
X186206250Y-106116594D01*
X185335130Y-106116594D01*
X185545051Y-105906674D01*
X185573638Y-105925775D01*
X185750000Y-105960855D01*
X185926361Y-105925775D01*
X185989771Y-105883406D01*
X186206250Y-105883406D01*
X186427118Y-105839473D01*
X186614361Y-105714361D01*
X186739473Y-105527118D01*
X186783406Y-105306250D01*
X186783406Y-104818750D01*
X186739473Y-104597882D01*
X186614361Y-104410639D01*
X186427118Y-104285527D01*
X186206250Y-104241594D01*
X186202000Y-104241594D01*
X186202000Y-104008406D01*
X186206250Y-104008406D01*
X186427118Y-103964473D01*
X186614361Y-103839361D01*
X186739473Y-103652118D01*
X186783406Y-103431250D01*
X186783406Y-102943750D01*
X186739473Y-102722882D01*
X186614361Y-102535639D01*
X186427118Y-102410527D01*
X186206250Y-102366594D01*
X185293750Y-102366594D01*
X185072882Y-102410527D01*
X184885639Y-102535639D01*
X184760527Y-102722882D01*
X184716594Y-102943750D01*
X184716594Y-103431250D01*
X184760527Y-103652118D01*
X184885639Y-103839361D01*
X185072882Y-103964473D01*
X185293750Y-104008406D01*
X185298000Y-104008406D01*
X185298000Y-104044517D01*
X185298001Y-104044522D01*
X185298001Y-104241594D01*
X185293750Y-104241594D01*
X185072882Y-104285527D01*
X184885639Y-104410639D01*
X184760527Y-104597882D01*
X184716594Y-104818750D01*
X184716594Y-105306250D01*
X184741552Y-105431724D01*
X184211867Y-105961409D01*
X184174127Y-105986626D01*
X184148910Y-106024366D01*
X184148909Y-106024367D01*
X184074225Y-106136139D01*
X184039145Y-106312500D01*
X184048001Y-106357022D01*
X184048000Y-107380482D01*
X184039145Y-107425000D01*
X184048000Y-107469517D01*
X184074225Y-107601361D01*
X184174126Y-107750874D01*
X184211869Y-107776093D01*
X184577592Y-108141817D01*
X184483624Y-108282449D01*
X184480531Y-108298000D01*
X183913476Y-108298000D01*
X183977012Y-108144609D01*
X183977012Y-107855391D01*
X183866333Y-107588187D01*
X183778140Y-107499994D01*
X183866321Y-107411813D01*
X183977000Y-107144609D01*
X183977000Y-106855391D01*
X183866321Y-106588187D01*
X183661813Y-106383679D01*
X183394609Y-106273000D01*
X183105391Y-106273000D01*
X182838187Y-106383679D01*
X182633679Y-106588187D01*
X182535456Y-106825319D01*
X182287776Y-107073000D01*
X179308406Y-107073000D01*
X179308406Y-106650000D01*
X179283027Y-106522411D01*
X179210754Y-106414246D01*
X179102589Y-106341973D01*
X178975000Y-106316594D01*
X177225000Y-106316594D01*
X177097411Y-106341973D01*
X176989246Y-106414246D01*
X176916973Y-106522411D01*
X176891594Y-106650000D01*
X176891594Y-107100000D01*
X176911485Y-107200000D01*
X176891594Y-107300000D01*
X176891594Y-107750000D01*
X176911485Y-107850000D01*
X176891594Y-107950000D01*
X176891594Y-108400000D01*
X176916973Y-108527589D01*
X176989246Y-108635754D01*
X177097411Y-108708027D01*
X177225000Y-108733406D01*
X178975000Y-108733406D01*
X179102589Y-108708027D01*
X179210754Y-108635754D01*
X179216603Y-108627000D01*
X179733775Y-108627000D01*
X179337776Y-109023000D01*
X179216603Y-109023000D01*
X179210754Y-109014246D01*
X179102589Y-108941973D01*
X178975000Y-108916594D01*
X177225000Y-108916594D01*
X177097411Y-108941973D01*
X176989246Y-109014246D01*
X176966692Y-109048000D01*
X175687225Y-109048000D01*
X172601093Y-105961869D01*
X172575874Y-105924126D01*
X172426362Y-105824225D01*
X172294518Y-105798000D01*
X172250000Y-105789145D01*
X172205482Y-105798000D01*
X172108406Y-105798000D01*
X172108406Y-105350000D01*
X172088515Y-105250000D01*
X172108406Y-105150000D01*
X172108406Y-104700000D01*
X172088515Y-104600000D01*
X172108406Y-104500000D01*
X172108406Y-104050000D01*
X176891594Y-104050000D01*
X176891594Y-104500000D01*
X176911485Y-104600000D01*
X176891594Y-104700000D01*
X176891594Y-105150000D01*
X176916973Y-105277589D01*
X176989246Y-105385754D01*
X177097411Y-105458027D01*
X177225000Y-105483406D01*
X178975000Y-105483406D01*
X179102589Y-105458027D01*
X179210754Y-105385754D01*
X179283027Y-105277589D01*
X179308406Y-105150000D01*
X179308406Y-104700000D01*
X179288515Y-104600000D01*
X179308406Y-104500000D01*
X179308406Y-104050000D01*
X179283027Y-103922411D01*
X179210754Y-103814246D01*
X179102589Y-103741973D01*
X178975000Y-103716594D01*
X177225000Y-103716594D01*
X177097411Y-103741973D01*
X176989246Y-103814246D01*
X176916973Y-103922411D01*
X176891594Y-104050000D01*
X172108406Y-104050000D01*
X172083027Y-103922411D01*
X172010754Y-103814246D01*
X171902589Y-103741973D01*
X171775000Y-103716594D01*
X170025000Y-103716594D01*
X169897411Y-103741973D01*
X169789246Y-103814246D01*
X169749461Y-103873788D01*
X169674126Y-103924126D01*
X169648907Y-103961869D01*
X166312776Y-107298000D01*
X165844516Y-107298000D01*
X165799999Y-107289145D01*
X165755483Y-107298000D01*
X165755482Y-107298000D01*
X165623638Y-107324225D01*
X165474126Y-107424126D01*
X165448907Y-107461869D01*
X164961869Y-107948907D01*
X164924126Y-107974126D01*
X164855815Y-108076361D01*
X164824225Y-108123639D01*
X164789145Y-108300000D01*
X164089224Y-108300000D01*
X168912224Y-103477000D01*
X169144609Y-103477000D01*
X169411813Y-103366321D01*
X169616321Y-103161813D01*
X169727000Y-102894609D01*
X169727000Y-102605391D01*
X169616321Y-102338187D01*
X169411813Y-102133679D01*
X169144609Y-102023000D01*
X168855391Y-102023000D01*
X168588187Y-102133679D01*
X168383679Y-102338187D01*
X168273000Y-102605391D01*
X168273000Y-102837776D01*
X163211867Y-107898909D01*
X163174127Y-107924126D01*
X163148910Y-107961866D01*
X163148909Y-107961867D01*
X163074225Y-108073639D01*
X163052001Y-108185368D01*
X163052001Y-107644518D01*
X163060856Y-107600000D01*
X163025776Y-107423639D01*
X163002965Y-107389500D01*
X162925875Y-107274127D01*
X162888135Y-107248910D01*
X162821492Y-107182268D01*
X162858027Y-107127589D01*
X162883406Y-107000000D01*
X162883406Y-105000000D01*
X162858027Y-104872411D01*
X162785754Y-104764246D01*
X162702000Y-104708284D01*
X162702000Y-104227000D01*
X162894609Y-104227000D01*
X163161813Y-104116321D01*
X163366321Y-103911813D01*
X163477000Y-103644609D01*
X163477000Y-103355391D01*
X163366321Y-103088187D01*
X163161813Y-102883679D01*
X162894609Y-102773000D01*
X162605391Y-102773000D01*
X162338187Y-102883679D01*
X162133679Y-103088187D01*
X162023000Y-103355391D01*
X162023000Y-103587776D01*
X161961867Y-103648909D01*
X161924127Y-103674126D01*
X161898910Y-103711866D01*
X161898909Y-103711867D01*
X161824225Y-103823639D01*
X161789145Y-104000000D01*
X161798001Y-104044522D01*
X161798001Y-104708283D01*
X161750000Y-104740356D01*
X161702000Y-104708284D01*
X161702000Y-103544518D01*
X161710855Y-103500000D01*
X161675775Y-103323638D01*
X161601091Y-103211866D01*
X161575874Y-103174126D01*
X161538134Y-103148909D01*
X160189225Y-101800000D01*
X163566594Y-101800000D01*
X163566594Y-106000000D01*
X163591973Y-106127589D01*
X163664246Y-106235754D01*
X163772411Y-106308027D01*
X163900000Y-106333406D01*
X164600000Y-106333406D01*
X164727589Y-106308027D01*
X164835754Y-106235754D01*
X164908027Y-106127589D01*
X164933406Y-106000000D01*
X164933406Y-101800000D01*
X164908027Y-101672411D01*
X164835754Y-101564246D01*
X164727589Y-101491973D01*
X164600000Y-101466594D01*
X163900000Y-101466594D01*
X163772411Y-101491973D01*
X163664246Y-101564246D01*
X163591973Y-101672411D01*
X163566594Y-101800000D01*
X160189225Y-101800000D01*
X158451071Y-100061847D01*
X158425852Y-100024104D01*
X158276340Y-99924203D01*
X158154662Y-99900000D01*
X167566594Y-99900000D01*
X167566594Y-101600000D01*
X167591973Y-101727589D01*
X167664246Y-101835754D01*
X167772411Y-101908027D01*
X167900000Y-101933406D01*
X169600000Y-101933406D01*
X169727589Y-101908027D01*
X169835754Y-101835754D01*
X169908027Y-101727589D01*
X169933406Y-101600000D01*
X169933406Y-100750000D01*
X170089942Y-100750000D01*
X170181291Y-101209242D01*
X170441431Y-101598569D01*
X170830758Y-101858709D01*
X171174080Y-101927000D01*
X171405920Y-101927000D01*
X171749242Y-101858709D01*
X172138569Y-101598569D01*
X172398709Y-101209242D01*
X172490058Y-100750000D01*
X172629942Y-100750000D01*
X172721291Y-101209242D01*
X172981431Y-101598569D01*
X173370758Y-101858709D01*
X173714080Y-101927000D01*
X173945920Y-101927000D01*
X174289242Y-101858709D01*
X174678569Y-101598569D01*
X174938709Y-101209242D01*
X174966654Y-101068750D01*
X184716594Y-101068750D01*
X184716594Y-101556250D01*
X184760527Y-101777118D01*
X184885639Y-101964361D01*
X185072882Y-102089473D01*
X185293750Y-102133406D01*
X186206250Y-102133406D01*
X186427118Y-102089473D01*
X186614361Y-101964361D01*
X186739473Y-101777118D01*
X186741983Y-101764500D01*
X187291594Y-101764500D01*
X187291594Y-102375000D01*
X187336003Y-102598260D01*
X187462470Y-102787530D01*
X187651740Y-102913997D01*
X187875000Y-102958406D01*
X188625000Y-102958406D01*
X188848260Y-102913997D01*
X189037530Y-102787530D01*
X189163997Y-102598260D01*
X189208406Y-102375000D01*
X189208406Y-101125000D01*
X189163997Y-100901740D01*
X189037530Y-100712470D01*
X188848260Y-100586003D01*
X188625000Y-100541594D01*
X187875000Y-100541594D01*
X187651740Y-100586003D01*
X187462470Y-100712470D01*
X187363559Y-100860500D01*
X186741983Y-100860500D01*
X186739473Y-100847882D01*
X186614361Y-100660639D01*
X186427118Y-100535527D01*
X186206250Y-100491594D01*
X185293750Y-100491594D01*
X185072882Y-100535527D01*
X184885639Y-100660639D01*
X184760527Y-100847882D01*
X184716594Y-101068750D01*
X174966654Y-101068750D01*
X175030058Y-100750000D01*
X174938709Y-100290758D01*
X174678569Y-99901431D01*
X174289242Y-99641291D01*
X173945920Y-99573000D01*
X173714080Y-99573000D01*
X173370758Y-99641291D01*
X172981431Y-99901431D01*
X172721291Y-100290758D01*
X172629942Y-100750000D01*
X172490058Y-100750000D01*
X172398709Y-100290758D01*
X172138569Y-99901431D01*
X171749242Y-99641291D01*
X171405920Y-99573000D01*
X171174080Y-99573000D01*
X170830758Y-99641291D01*
X170441431Y-99901431D01*
X170181291Y-100290758D01*
X170089942Y-100750000D01*
X169933406Y-100750000D01*
X169933406Y-99900000D01*
X169908027Y-99772411D01*
X169835754Y-99664246D01*
X169727589Y-99591973D01*
X169600000Y-99566594D01*
X167900000Y-99566594D01*
X167772411Y-99591973D01*
X167664246Y-99664246D01*
X167591973Y-99772411D01*
X167566594Y-99900000D01*
X158154662Y-99900000D01*
X158144496Y-99897978D01*
X158099978Y-99889123D01*
X158055460Y-99897978D01*
X156536716Y-99897978D01*
X156492198Y-99889123D01*
X156447680Y-99897978D01*
X156315836Y-99924203D01*
X156166324Y-100024104D01*
X156141106Y-100061845D01*
X155211869Y-100991083D01*
X155174126Y-101016302D01*
X155094054Y-101136139D01*
X155074225Y-101165815D01*
X155039145Y-101342176D01*
X154402000Y-101342176D01*
X154402000Y-101028639D01*
X154470167Y-100552646D01*
X154657217Y-100141254D01*
X154952212Y-99798895D01*
X155331437Y-99553094D01*
X155777721Y-99419627D01*
X156014921Y-99402000D01*
X190971361Y-99402000D01*
X191447354Y-99470167D01*
X191447354Y-99470167D01*
G37*
X191447354Y-99470167D02*
X191858746Y-99657217D01*
X192201105Y-99952212D01*
X192446906Y-100331437D01*
X192580373Y-100777721D01*
X192598001Y-101014935D01*
X192598000Y-126971361D01*
X192529833Y-127447354D01*
X192342784Y-127858745D01*
X192047788Y-128201105D01*
X191668564Y-128446906D01*
X191222279Y-128580373D01*
X190985079Y-128598000D01*
X156028639Y-128598000D01*
X155552646Y-128529833D01*
X155141255Y-128342784D01*
X154798895Y-128047788D01*
X154553094Y-127668564D01*
X154419627Y-127222279D01*
X154402000Y-126985079D01*
X154402000Y-101342176D01*
X155039145Y-101342176D01*
X155048000Y-101386694D01*
X155048001Y-119955477D01*
X155039145Y-120000000D01*
X155074225Y-120176361D01*
X155074226Y-120176362D01*
X155174127Y-120325874D01*
X155211867Y-120351091D01*
X159048000Y-124187225D01*
X159048001Y-125705478D01*
X159039145Y-125750000D01*
X159048070Y-125794867D01*
X159023000Y-125855391D01*
X159023000Y-126144609D01*
X159133679Y-126411813D01*
X159338187Y-126616321D01*
X159605391Y-126727000D01*
X159894609Y-126727000D01*
X160161813Y-126616321D01*
X160366321Y-126411813D01*
X160477000Y-126144609D01*
X160477000Y-125855391D01*
X160366321Y-125588187D01*
X160161813Y-125383679D01*
X159952000Y-125296772D01*
X159952000Y-125163468D01*
X160105391Y-125227004D01*
X160394609Y-125227004D01*
X160661813Y-125116325D01*
X160866321Y-124911817D01*
X160916594Y-124790447D01*
X160916594Y-125900000D01*
X160941973Y-126027589D01*
X161014246Y-126135754D01*
X161122411Y-126208027D01*
X161250000Y-126233406D01*
X162950000Y-126233406D01*
X163077589Y-126208027D01*
X163185754Y-126135754D01*
X163258027Y-126027589D01*
X163283406Y-125900000D01*
X163283406Y-125050000D01*
X163439942Y-125050000D01*
X163531291Y-125509242D01*
X163791431Y-125898569D01*
X164180758Y-126158709D01*
X164524080Y-126227000D01*
X164755920Y-126227000D01*
X165099242Y-126158709D01*
X165488569Y-125898569D01*
X165748709Y-125509242D01*
X165840058Y-125050000D01*
X165979942Y-125050000D01*
X166071291Y-125509242D01*
X166331431Y-125898569D01*
X166720758Y-126158709D01*
X167064080Y-126227000D01*
X167295920Y-126227000D01*
X167639242Y-126158709D01*
X168028569Y-125898569D01*
X168288709Y-125509242D01*
X168380058Y-125050000D01*
X168519942Y-125050000D01*
X168611291Y-125509242D01*
X168871431Y-125898569D01*
X169260758Y-126158709D01*
X169604080Y-126227000D01*
X169835920Y-126227000D01*
X170179242Y-126158709D01*
X170568569Y-125898569D01*
X170828709Y-125509242D01*
X170920058Y-125050000D01*
X171059942Y-125050000D01*
X171151291Y-125509242D01*
X171411431Y-125898569D01*
X171800758Y-126158709D01*
X172144080Y-126227000D01*
X172375920Y-126227000D01*
X172719242Y-126158709D01*
X173108569Y-125898569D01*
X173368709Y-125509242D01*
X173460058Y-125050000D01*
X173599942Y-125050000D01*
X173691291Y-125509242D01*
X173951431Y-125898569D01*
X174340758Y-126158709D01*
X174684080Y-126227000D01*
X174915920Y-126227000D01*
X175259242Y-126158709D01*
X175648569Y-125898569D01*
X175908709Y-125509242D01*
X176000058Y-125050000D01*
X176139942Y-125050000D01*
X176231291Y-125509242D01*
X176491431Y-125898569D01*
X176880758Y-126158709D01*
X177224080Y-126227000D01*
X177455920Y-126227000D01*
X177799242Y-126158709D01*
X178188569Y-125898569D01*
X178448709Y-125509242D01*
X178540058Y-125050000D01*
X178679942Y-125050000D01*
X178771291Y-125509242D01*
X179031431Y-125898569D01*
X179420758Y-126158709D01*
X179764080Y-126227000D01*
X179995920Y-126227000D01*
X180339242Y-126158709D01*
X180728569Y-125898569D01*
X180988709Y-125509242D01*
X181080058Y-125050000D01*
X181219942Y-125050000D01*
X181311291Y-125509242D01*
X181571431Y-125898569D01*
X181960758Y-126158709D01*
X182304080Y-126227000D01*
X182535920Y-126227000D01*
X182879242Y-126158709D01*
X183268569Y-125898569D01*
X183528709Y-125509242D01*
X183620058Y-125050000D01*
X183759942Y-125050000D01*
X183851291Y-125509242D01*
X184111431Y-125898569D01*
X184500758Y-126158709D01*
X184844080Y-126227000D01*
X185075920Y-126227000D01*
X185419242Y-126158709D01*
X185808569Y-125898569D01*
X186068709Y-125509242D01*
X186160058Y-125050000D01*
X186068709Y-124590758D01*
X185808569Y-124201431D01*
X185419242Y-123941291D01*
X185075920Y-123873000D01*
X184844080Y-123873000D01*
X184500758Y-123941291D01*
X184111431Y-124201431D01*
X183851291Y-124590758D01*
X183759942Y-125050000D01*
X183620058Y-125050000D01*
X183528709Y-124590758D01*
X183268569Y-124201431D01*
X182879242Y-123941291D01*
X182535920Y-123873000D01*
X182304080Y-123873000D01*
X181960758Y-123941291D01*
X181571431Y-124201431D01*
X181311291Y-124590758D01*
X181219942Y-125050000D01*
X181080058Y-125050000D01*
X180988709Y-124590758D01*
X180728569Y-124201431D01*
X180339242Y-123941291D01*
X179995920Y-123873000D01*
X179764080Y-123873000D01*
X179420758Y-123941291D01*
X179031431Y-124201431D01*
X178771291Y-124590758D01*
X178679942Y-125050000D01*
X178540058Y-125050000D01*
X178448709Y-124590758D01*
X178188569Y-124201431D01*
X177799242Y-123941291D01*
X177455920Y-123873000D01*
X177224080Y-123873000D01*
X176880758Y-123941291D01*
X176491431Y-124201431D01*
X176231291Y-124590758D01*
X176139942Y-125050000D01*
X176000058Y-125050000D01*
X175908709Y-124590758D01*
X175648569Y-124201431D01*
X175259242Y-123941291D01*
X174915920Y-123873000D01*
X174684080Y-123873000D01*
X174340758Y-123941291D01*
X173951431Y-124201431D01*
X173691291Y-124590758D01*
X173599942Y-125050000D01*
X173460058Y-125050000D01*
X173368709Y-124590758D01*
X173108569Y-124201431D01*
X172719242Y-123941291D01*
X172375920Y-123873000D01*
X172144080Y-123873000D01*
X171800758Y-123941291D01*
X171411431Y-124201431D01*
X171151291Y-124590758D01*
X171059942Y-125050000D01*
X170920058Y-125050000D01*
X170828709Y-124590758D01*
X170568569Y-124201431D01*
X170179242Y-123941291D01*
X169835920Y-123873000D01*
X169604080Y-123873000D01*
X169260758Y-123941291D01*
X168871431Y-124201431D01*
X168611291Y-124590758D01*
X168519942Y-125050000D01*
X168380058Y-125050000D01*
X168288709Y-124590758D01*
X168028569Y-124201431D01*
X167639242Y-123941291D01*
X167295920Y-123873000D01*
X167064080Y-123873000D01*
X166720758Y-123941291D01*
X166331431Y-124201431D01*
X166071291Y-124590758D01*
X165979942Y-125050000D01*
X165840058Y-125050000D01*
X165748709Y-124590758D01*
X165488569Y-124201431D01*
X165099242Y-123941291D01*
X164755920Y-123873000D01*
X164524080Y-123873000D01*
X164180758Y-123941291D01*
X163791431Y-124201431D01*
X163531291Y-124590758D01*
X163439942Y-125050000D01*
X163283406Y-125050000D01*
X163283406Y-124200000D01*
X163258027Y-124072411D01*
X163185754Y-123964246D01*
X163077589Y-123891973D01*
X162950000Y-123866594D01*
X161505818Y-123866594D01*
X160972499Y-123333275D01*
X160972499Y-122874768D01*
X160991291Y-122969242D01*
X161251431Y-123358569D01*
X161640758Y-123618709D01*
X161984080Y-123687000D01*
X162215920Y-123687000D01*
X162559242Y-123618709D01*
X162948569Y-123358569D01*
X163208709Y-122969242D01*
X163300058Y-122510000D01*
X163208709Y-122050758D01*
X162948569Y-121661431D01*
X162559242Y-121401291D01*
X162215920Y-121333000D01*
X161984080Y-121333000D01*
X161640758Y-121401291D01*
X161251431Y-121661431D01*
X160991291Y-122050758D01*
X160980779Y-122103605D01*
X160946274Y-121930133D01*
X160930053Y-121905857D01*
X160846373Y-121780621D01*
X160808630Y-121755402D01*
X160494592Y-121441364D01*
X160469373Y-121403621D01*
X160319861Y-121303720D01*
X160252562Y-121290334D01*
X157452000Y-118489772D01*
X157452000Y-116937224D01*
X158044854Y-116344371D01*
X158044856Y-116344368D01*
X158068318Y-116320906D01*
X158681682Y-116320906D01*
X159823909Y-117463133D01*
X159849126Y-117500874D01*
X159886866Y-117526091D01*
X159998638Y-117600775D01*
X160175000Y-117635855D01*
X160219518Y-117627000D01*
X160583397Y-117627000D01*
X160589246Y-117635754D01*
X160697411Y-117708027D01*
X160825000Y-117733406D01*
X162275000Y-117733406D01*
X162402589Y-117708027D01*
X162510754Y-117635754D01*
X162583027Y-117527589D01*
X162608406Y-117400000D01*
X162608406Y-116950000D01*
X162588515Y-116850000D01*
X162608406Y-116750000D01*
X162608406Y-116300000D01*
X162588515Y-116200000D01*
X162608406Y-116100000D01*
X162608406Y-115650000D01*
X162588515Y-115550000D01*
X162608406Y-115450000D01*
X162608406Y-115000000D01*
X162588515Y-114900000D01*
X162608406Y-114800000D01*
X162608406Y-114350000D01*
X162588515Y-114250000D01*
X162608406Y-114150000D01*
X162608406Y-113700000D01*
X162588515Y-113600000D01*
X162608406Y-113500000D01*
X162608406Y-113069265D01*
X162701362Y-113050775D01*
X162850874Y-112950874D01*
X162876094Y-112913129D01*
X162888130Y-112901094D01*
X162925875Y-112875873D01*
X163025776Y-112726361D01*
X163052001Y-112594517D01*
X163052001Y-112594516D01*
X163060856Y-112550000D01*
X163052001Y-112505483D01*
X163052001Y-111330135D01*
X163088187Y-111366321D01*
X163355391Y-111477000D01*
X163644609Y-111477000D01*
X163911813Y-111366321D01*
X164116321Y-111161813D01*
X164227000Y-110894609D01*
X164227000Y-110605391D01*
X164116321Y-110338187D01*
X163952000Y-110173866D01*
X163952000Y-108437224D01*
X164089224Y-108300000D01*
X164789145Y-108300000D01*
X164798000Y-108344518D01*
X164798001Y-111355478D01*
X164789145Y-111400000D01*
X164824225Y-111576361D01*
X164898063Y-111686867D01*
X164924127Y-111725874D01*
X164961867Y-111751091D01*
X166123909Y-112913133D01*
X166149126Y-112950874D01*
X166186866Y-112976091D01*
X166298638Y-113050775D01*
X166391594Y-113069265D01*
X166391594Y-113500000D01*
X166411485Y-113600000D01*
X166391594Y-113700000D01*
X166391594Y-114150000D01*
X166411485Y-114250000D01*
X166391594Y-114350000D01*
X166391594Y-114800000D01*
X166411485Y-114900000D01*
X166391594Y-115000000D01*
X166391594Y-115450000D01*
X166411485Y-115550000D01*
X166391594Y-115650000D01*
X166391594Y-116100000D01*
X166411485Y-116200000D01*
X166391594Y-116300000D01*
X166391594Y-116750000D01*
X166416973Y-116877589D01*
X166489246Y-116985754D01*
X166597411Y-117058027D01*
X166725000Y-117083406D01*
X168175000Y-117083406D01*
X168302589Y-117058027D01*
X168410754Y-116985754D01*
X168483027Y-116877589D01*
X168508406Y-116750000D01*
X168508406Y-116300000D01*
X168488515Y-116200000D01*
X168508406Y-116100000D01*
X168508406Y-115650000D01*
X168488515Y-115550000D01*
X168508406Y-115450000D01*
X168508406Y-115000000D01*
X168488515Y-114900000D01*
X168508406Y-114800000D01*
X168508406Y-114350000D01*
X168488515Y-114250000D01*
X168508406Y-114150000D01*
X168508406Y-113700000D01*
X168488515Y-113600000D01*
X168508406Y-113500000D01*
X168508406Y-113050000D01*
X168488515Y-112950000D01*
X168508406Y-112850000D01*
X168508406Y-112400000D01*
X168488515Y-112300000D01*
X168508406Y-112200000D01*
X168508406Y-111750000D01*
X168488515Y-111650000D01*
X168508406Y-111550000D01*
X168508406Y-111100000D01*
X168483027Y-110972411D01*
X168410754Y-110864246D01*
X168302589Y-110791973D01*
X168175000Y-110766594D01*
X168172630Y-110766594D01*
X169038133Y-109901091D01*
X169075874Y-109875874D01*
X169175775Y-109726362D01*
X169202000Y-109594518D01*
X169210855Y-109550000D01*
X169202000Y-109505482D01*
X169202000Y-108600000D01*
X169691594Y-108600000D01*
X169691594Y-109050000D01*
X169711485Y-109150000D01*
X169691594Y-109250000D01*
X169691594Y-109700000D01*
X169711485Y-109800000D01*
X169691594Y-109900000D01*
X169691594Y-110350000D01*
X169711485Y-110450000D01*
X169691594Y-110550000D01*
X169691594Y-111000000D01*
X169711485Y-111100000D01*
X169691594Y-111200000D01*
X169691594Y-111650000D01*
X169711485Y-111750000D01*
X169691594Y-111850000D01*
X169691594Y-112300000D01*
X169711485Y-112400000D01*
X169691594Y-112500000D01*
X169691594Y-112950000D01*
X169716973Y-113077589D01*
X169789246Y-113185754D01*
X169897411Y-113258027D01*
X170025000Y-113283406D01*
X171775000Y-113283406D01*
X171902589Y-113258027D01*
X172010754Y-113185754D01*
X172083027Y-113077589D01*
X172108406Y-112950000D01*
X172108406Y-112500000D01*
X172088515Y-112400000D01*
X172108406Y-112300000D01*
X172108406Y-111900000D01*
X176039145Y-111900000D01*
X176048000Y-111944518D01*
X176048001Y-114917978D01*
X176039145Y-114962500D01*
X176074225Y-115138861D01*
X176148486Y-115250000D01*
X176174127Y-115288374D01*
X176211867Y-115313591D01*
X176941594Y-116043319D01*
X176941594Y-116431250D01*
X176983624Y-116642551D01*
X177103317Y-116821683D01*
X177282449Y-116941376D01*
X177493750Y-116983406D01*
X178006250Y-116983406D01*
X178217551Y-116941376D01*
X178396683Y-116821683D01*
X178516376Y-116642551D01*
X178558406Y-116431250D01*
X178558406Y-116043318D01*
X179149725Y-115452000D01*
X180616594Y-115452000D01*
X180616594Y-115800000D01*
X180641973Y-115927589D01*
X180714246Y-116035754D01*
X180822411Y-116108027D01*
X180950000Y-116133406D01*
X182550000Y-116133406D01*
X182677589Y-116108027D01*
X182785754Y-116035754D01*
X182858027Y-115927589D01*
X182883406Y-115800000D01*
X182883406Y-114200000D01*
X182858027Y-114072411D01*
X182785754Y-113964246D01*
X182677589Y-113891973D01*
X182550000Y-113866594D01*
X180950000Y-113866594D01*
X180822411Y-113891973D01*
X180714246Y-113964246D01*
X180641973Y-114072411D01*
X180616594Y-114200000D01*
X180616594Y-114548000D01*
X179007018Y-114548000D01*
X178962500Y-114539145D01*
X178917982Y-114548000D01*
X178786138Y-114574225D01*
X178636626Y-114674126D01*
X178611409Y-114711867D01*
X177881682Y-115441594D01*
X177618319Y-115441594D01*
X176952000Y-114775276D01*
X176952000Y-113130011D01*
X176989246Y-113185754D01*
X177097411Y-113258027D01*
X177225000Y-113283406D01*
X178975000Y-113283406D01*
X179102589Y-113258027D01*
X179210754Y-113185754D01*
X179216603Y-113177000D01*
X183898866Y-113177000D01*
X184088187Y-113366321D01*
X184355391Y-113477000D01*
X184644609Y-113477000D01*
X184798001Y-113413463D01*
X184798001Y-113778480D01*
X184789145Y-113823002D01*
X184824225Y-113999363D01*
X184898909Y-114111135D01*
X184924127Y-114148876D01*
X184961867Y-114174093D01*
X185798001Y-115010228D01*
X185798000Y-115730531D01*
X185782449Y-115733624D01*
X185603317Y-115853317D01*
X185483624Y-116032449D01*
X185441594Y-116243750D01*
X185441594Y-116681250D01*
X185483624Y-116892551D01*
X185603317Y-117071683D01*
X185782449Y-117191376D01*
X185993750Y-117233406D01*
X186506250Y-117233406D01*
X186717551Y-117191376D01*
X186896683Y-117071683D01*
X187016376Y-116892551D01*
X187058406Y-116681250D01*
X187058406Y-116243750D01*
X187016376Y-116032449D01*
X186896683Y-115853317D01*
X186717551Y-115733624D01*
X186702000Y-115730531D01*
X186702000Y-115252000D01*
X188108397Y-115252000D01*
X188114246Y-115260754D01*
X188222411Y-115333027D01*
X188350000Y-115358406D01*
X189730000Y-115358406D01*
X189857589Y-115333027D01*
X189965754Y-115260754D01*
X190038027Y-115152589D01*
X190063406Y-115025000D01*
X190063406Y-114575000D01*
X190043515Y-114475000D01*
X190063406Y-114375000D01*
X190063406Y-113925000D01*
X190043515Y-113825000D01*
X190063406Y-113725000D01*
X190063406Y-113275000D01*
X190043515Y-113175000D01*
X190063406Y-113075000D01*
X190063406Y-112625000D01*
X190038027Y-112497411D01*
X189965754Y-112389246D01*
X189857589Y-112316973D01*
X189730000Y-112291594D01*
X188350000Y-112291594D01*
X188222411Y-112316973D01*
X188114246Y-112389246D01*
X188041973Y-112497411D01*
X188016594Y-112625000D01*
X188016594Y-113048000D01*
X187437225Y-113048000D01*
X187251092Y-112861868D01*
X187251090Y-112861865D01*
X187227000Y-112837775D01*
X187227000Y-112605391D01*
X187116321Y-112338187D01*
X186911813Y-112133679D01*
X186644609Y-112023000D01*
X186355391Y-112023000D01*
X186088187Y-112133679D01*
X185883679Y-112338187D01*
X185773000Y-112605391D01*
X185773000Y-112894609D01*
X185883679Y-113161813D01*
X186088187Y-113366321D01*
X186109140Y-113375000D01*
X186088187Y-113383679D01*
X185883679Y-113588187D01*
X185816528Y-113750305D01*
X185702000Y-113635778D01*
X185702000Y-111019469D01*
X185717551Y-111016376D01*
X185896683Y-110896683D01*
X186016376Y-110717551D01*
X186058406Y-110506250D01*
X186058406Y-110068750D01*
X186016376Y-109857449D01*
X185896683Y-109678317D01*
X185717551Y-109558624D01*
X185506250Y-109516594D01*
X184993750Y-109516594D01*
X184782449Y-109558624D01*
X184603317Y-109678317D01*
X184483624Y-109857449D01*
X184441594Y-110068750D01*
X184441594Y-110506250D01*
X184483624Y-110717551D01*
X184603317Y-110896683D01*
X184782449Y-111016376D01*
X184798000Y-111019469D01*
X184798001Y-112086537D01*
X184644609Y-112023000D01*
X184355391Y-112023000D01*
X184088187Y-112133679D01*
X183948866Y-112273000D01*
X183755118Y-112273000D01*
X183866305Y-112161813D01*
X183976984Y-111894609D01*
X183976984Y-111605391D01*
X183866305Y-111338187D01*
X183661797Y-111133679D01*
X183394593Y-111023000D01*
X183105375Y-111023000D01*
X182838171Y-111133679D01*
X182633663Y-111338187D01*
X182522984Y-111605391D01*
X182522984Y-111623000D01*
X179308406Y-111623000D01*
X179308406Y-111200000D01*
X179283027Y-111072411D01*
X179210754Y-110964246D01*
X179102589Y-110891973D01*
X178975000Y-110866594D01*
X177225000Y-110866594D01*
X177097411Y-110891973D01*
X176989246Y-110964246D01*
X176987634Y-110966658D01*
X176974999Y-110964145D01*
X176930483Y-110973000D01*
X176930482Y-110973000D01*
X176798638Y-110999225D01*
X176649126Y-111099126D01*
X176623907Y-111136869D01*
X176211869Y-111548907D01*
X176174126Y-111574126D01*
X176104995Y-111677589D01*
X176074225Y-111723639D01*
X176039145Y-111900000D01*
X172108406Y-111900000D01*
X172108406Y-111850000D01*
X172088515Y-111750000D01*
X172108406Y-111650000D01*
X172108406Y-111200000D01*
X172088515Y-111100000D01*
X172108406Y-111000000D01*
X172108406Y-110550000D01*
X172088515Y-110450000D01*
X172108406Y-110350000D01*
X172108406Y-109900000D01*
X172088515Y-109800000D01*
X172108406Y-109700000D01*
X172108406Y-109250000D01*
X172088515Y-109150000D01*
X172108406Y-109050000D01*
X172108406Y-108600000D01*
X172083027Y-108472411D01*
X172010754Y-108364246D01*
X171902589Y-108291973D01*
X171775000Y-108266594D01*
X170025000Y-108266594D01*
X169897411Y-108291973D01*
X169789246Y-108364246D01*
X169716973Y-108472411D01*
X169691594Y-108600000D01*
X169202000Y-108600000D01*
X169202000Y-108087224D01*
X169691594Y-107597631D01*
X169691594Y-107750000D01*
X169716973Y-107877589D01*
X169789246Y-107985754D01*
X169897411Y-108058027D01*
X170025000Y-108083406D01*
X171775000Y-108083406D01*
X171902589Y-108058027D01*
X172010754Y-107985754D01*
X172083027Y-107877589D01*
X172108406Y-107750000D01*
X172108406Y-107300000D01*
X172088515Y-107200000D01*
X172108406Y-107100000D01*
X172108406Y-106747630D01*
X175148908Y-109788133D01*
X175174126Y-109825874D01*
X175211866Y-109851091D01*
X175323638Y-109925775D01*
X175499999Y-109960855D01*
X175544517Y-109952000D01*
X176891594Y-109952000D01*
X176891594Y-110350000D01*
X176916973Y-110477589D01*
X176989246Y-110585754D01*
X177097411Y-110658027D01*
X177225000Y-110683406D01*
X178975000Y-110683406D01*
X179102589Y-110658027D01*
X179210754Y-110585754D01*
X179283027Y-110477589D01*
X179308406Y-110350000D01*
X179308406Y-109927000D01*
X179480482Y-109927000D01*
X179525000Y-109935855D01*
X179569518Y-109927000D01*
X179701362Y-109900775D01*
X179850874Y-109800874D01*
X179876093Y-109763131D01*
X180437225Y-109202000D01*
X184523347Y-109202000D01*
X184603317Y-109321683D01*
X184782449Y-109441376D01*
X184993750Y-109483406D01*
X185506250Y-109483406D01*
X185717551Y-109441376D01*
X185896683Y-109321683D01*
X186016376Y-109142551D01*
X186058406Y-108931250D01*
X186058406Y-108493750D01*
X186030885Y-108355391D01*
X187023000Y-108355391D01*
X187023000Y-108644609D01*
X187133679Y-108911813D01*
X187338187Y-109116321D01*
X187605391Y-109227000D01*
X187894609Y-109227000D01*
X188161813Y-109116321D01*
X188326134Y-108952000D01*
X189605482Y-108952000D01*
X189650000Y-108960855D01*
X189694518Y-108952000D01*
X189826362Y-108925775D01*
X189975874Y-108825874D01*
X190001093Y-108788131D01*
X191080819Y-107708406D01*
X191525000Y-107708406D01*
X191748260Y-107663997D01*
X191937530Y-107537530D01*
X192063997Y-107348260D01*
X192108406Y-107125000D01*
X192108406Y-106512313D01*
X192110855Y-106500001D01*
X192108406Y-106487689D01*
X192108406Y-105875000D01*
X192063997Y-105651740D01*
X191937530Y-105462470D01*
X191748260Y-105336003D01*
X191525000Y-105291594D01*
X190775000Y-105291594D01*
X190551740Y-105336003D01*
X190362470Y-105462470D01*
X190236003Y-105651740D01*
X190191594Y-105875000D01*
X190191594Y-107125000D01*
X190223811Y-107286965D01*
X189462776Y-108048000D01*
X188326134Y-108048000D01*
X188161813Y-107883679D01*
X187894609Y-107773000D01*
X187605391Y-107773000D01*
X187338187Y-107883679D01*
X187133679Y-108088187D01*
X187023000Y-108355391D01*
X186030885Y-108355391D01*
X186016376Y-108282449D01*
X185896683Y-108103317D01*
X185717551Y-107983624D01*
X185657802Y-107971739D01*
X185627481Y-107926361D01*
X185575874Y-107849126D01*
X185538133Y-107823908D01*
X185472631Y-107758406D01*
X186206250Y-107758406D01*
X186427118Y-107714473D01*
X186614361Y-107589361D01*
X186739473Y-107402118D01*
X186741983Y-107389500D01*
X187463559Y-107389500D01*
X187562470Y-107537530D01*
X187751740Y-107663997D01*
X187975000Y-107708406D01*
X188725000Y-107708406D01*
X188948260Y-107663997D01*
X189137530Y-107537530D01*
X189263997Y-107348260D01*
X189308406Y-107125000D01*
X189308406Y-105875000D01*
X189263997Y-105651740D01*
X189137530Y-105462470D01*
X188948260Y-105336003D01*
X188725000Y-105291594D01*
X188236556Y-105291594D01*
X188366321Y-105161829D01*
X188429201Y-105010023D01*
X190513035Y-102926189D01*
X190675000Y-102958406D01*
X191425000Y-102958406D01*
X191648260Y-102913997D01*
X191837530Y-102787530D01*
X191963997Y-102598260D01*
X192008406Y-102375000D01*
X192008406Y-101125000D01*
X191963997Y-100901740D01*
X191837530Y-100712470D01*
X191648260Y-100586003D01*
X191425000Y-100541594D01*
X190675000Y-100541594D01*
X190451740Y-100586003D01*
X190262470Y-100712470D01*
X190136003Y-100901740D01*
X190091594Y-101125000D01*
X190091594Y-102069181D01*
X188066543Y-104094233D01*
X187894609Y-104023016D01*
X187605391Y-104023016D01*
X187338187Y-104133695D01*
X187133679Y-104338203D01*
X187023000Y-104605407D01*
X187023000Y-104894625D01*
X187133679Y-105161829D01*
X187338187Y-105366337D01*
X187565456Y-105460475D01*
X187562470Y-105462470D01*
X187436003Y-105651740D01*
X187391594Y-105875000D01*
X187391594Y-106485500D01*
X186741983Y-106485500D01*
X186739473Y-106472882D01*
X186614361Y-106285639D01*
X186427118Y-106160527D01*
X186206250Y-106116594D01*
X185335130Y-106116594D01*
X185545051Y-105906674D01*
X185573638Y-105925775D01*
X185750000Y-105960855D01*
X185926361Y-105925775D01*
X185989771Y-105883406D01*
X186206250Y-105883406D01*
X186427118Y-105839473D01*
X186614361Y-105714361D01*
X186739473Y-105527118D01*
X186783406Y-105306250D01*
X186783406Y-104818750D01*
X186739473Y-104597882D01*
X186614361Y-104410639D01*
X186427118Y-104285527D01*
X186206250Y-104241594D01*
X186202000Y-104241594D01*
X186202000Y-104008406D01*
X186206250Y-104008406D01*
X186427118Y-103964473D01*
X186614361Y-103839361D01*
X186739473Y-103652118D01*
X186783406Y-103431250D01*
X186783406Y-102943750D01*
X186739473Y-102722882D01*
X186614361Y-102535639D01*
X186427118Y-102410527D01*
X186206250Y-102366594D01*
X185293750Y-102366594D01*
X185072882Y-102410527D01*
X184885639Y-102535639D01*
X184760527Y-102722882D01*
X184716594Y-102943750D01*
X184716594Y-103431250D01*
X184760527Y-103652118D01*
X184885639Y-103839361D01*
X185072882Y-103964473D01*
X185293750Y-104008406D01*
X185298000Y-104008406D01*
X185298000Y-104044517D01*
X185298001Y-104044522D01*
X185298001Y-104241594D01*
X185293750Y-104241594D01*
X185072882Y-104285527D01*
X184885639Y-104410639D01*
X184760527Y-104597882D01*
X184716594Y-104818750D01*
X184716594Y-105306250D01*
X184741552Y-105431724D01*
X184211867Y-105961409D01*
X184174127Y-105986626D01*
X184148910Y-106024366D01*
X184148909Y-106024367D01*
X184074225Y-106136139D01*
X184039145Y-106312500D01*
X184048001Y-106357022D01*
X184048000Y-107380482D01*
X184039145Y-107425000D01*
X184048000Y-107469517D01*
X184074225Y-107601361D01*
X184174126Y-107750874D01*
X184211869Y-107776093D01*
X184577592Y-108141817D01*
X184483624Y-108282449D01*
X184480531Y-108298000D01*
X183913476Y-108298000D01*
X183977012Y-108144609D01*
X183977012Y-107855391D01*
X183866333Y-107588187D01*
X183778140Y-107499994D01*
X183866321Y-107411813D01*
X183977000Y-107144609D01*
X183977000Y-106855391D01*
X183866321Y-106588187D01*
X183661813Y-106383679D01*
X183394609Y-106273000D01*
X183105391Y-106273000D01*
X182838187Y-106383679D01*
X182633679Y-106588187D01*
X182535456Y-106825319D01*
X182287776Y-107073000D01*
X179308406Y-107073000D01*
X179308406Y-106650000D01*
X179283027Y-106522411D01*
X179210754Y-106414246D01*
X179102589Y-106341973D01*
X178975000Y-106316594D01*
X177225000Y-106316594D01*
X177097411Y-106341973D01*
X176989246Y-106414246D01*
X176916973Y-106522411D01*
X176891594Y-106650000D01*
X176891594Y-107100000D01*
X176911485Y-107200000D01*
X176891594Y-107300000D01*
X176891594Y-107750000D01*
X176911485Y-107850000D01*
X176891594Y-107950000D01*
X176891594Y-108400000D01*
X176916973Y-108527589D01*
X176989246Y-108635754D01*
X177097411Y-108708027D01*
X177225000Y-108733406D01*
X178975000Y-108733406D01*
X179102589Y-108708027D01*
X179210754Y-108635754D01*
X179216603Y-108627000D01*
X179733775Y-108627000D01*
X179337776Y-109023000D01*
X179216603Y-109023000D01*
X179210754Y-109014246D01*
X179102589Y-108941973D01*
X178975000Y-108916594D01*
X177225000Y-108916594D01*
X177097411Y-108941973D01*
X176989246Y-109014246D01*
X176966692Y-109048000D01*
X175687225Y-109048000D01*
X172601093Y-105961869D01*
X172575874Y-105924126D01*
X172426362Y-105824225D01*
X172294518Y-105798000D01*
X172250000Y-105789145D01*
X172205482Y-105798000D01*
X172108406Y-105798000D01*
X172108406Y-105350000D01*
X172088515Y-105250000D01*
X172108406Y-105150000D01*
X172108406Y-104700000D01*
X172088515Y-104600000D01*
X172108406Y-104500000D01*
X172108406Y-104050000D01*
X176891594Y-104050000D01*
X176891594Y-104500000D01*
X176911485Y-104600000D01*
X176891594Y-104700000D01*
X176891594Y-105150000D01*
X176916973Y-105277589D01*
X176989246Y-105385754D01*
X177097411Y-105458027D01*
X177225000Y-105483406D01*
X178975000Y-105483406D01*
X179102589Y-105458027D01*
X179210754Y-105385754D01*
X179283027Y-105277589D01*
X179308406Y-105150000D01*
X179308406Y-104700000D01*
X179288515Y-104600000D01*
X179308406Y-104500000D01*
X179308406Y-104050000D01*
X179283027Y-103922411D01*
X179210754Y-103814246D01*
X179102589Y-103741973D01*
X178975000Y-103716594D01*
X177225000Y-103716594D01*
X177097411Y-103741973D01*
X176989246Y-103814246D01*
X176916973Y-103922411D01*
X176891594Y-104050000D01*
X172108406Y-104050000D01*
X172083027Y-103922411D01*
X172010754Y-103814246D01*
X171902589Y-103741973D01*
X171775000Y-103716594D01*
X170025000Y-103716594D01*
X169897411Y-103741973D01*
X169789246Y-103814246D01*
X169749461Y-103873788D01*
X169674126Y-103924126D01*
X169648907Y-103961869D01*
X166312776Y-107298000D01*
X165844516Y-107298000D01*
X165799999Y-107289145D01*
X165755483Y-107298000D01*
X165755482Y-107298000D01*
X165623638Y-107324225D01*
X165474126Y-107424126D01*
X165448907Y-107461869D01*
X164961869Y-107948907D01*
X164924126Y-107974126D01*
X164855815Y-108076361D01*
X164824225Y-108123639D01*
X164789145Y-108300000D01*
X164089224Y-108300000D01*
X168912224Y-103477000D01*
X169144609Y-103477000D01*
X169411813Y-103366321D01*
X169616321Y-103161813D01*
X169727000Y-102894609D01*
X169727000Y-102605391D01*
X169616321Y-102338187D01*
X169411813Y-102133679D01*
X169144609Y-102023000D01*
X168855391Y-102023000D01*
X168588187Y-102133679D01*
X168383679Y-102338187D01*
X168273000Y-102605391D01*
X168273000Y-102837776D01*
X163211867Y-107898909D01*
X163174127Y-107924126D01*
X163148910Y-107961866D01*
X163148909Y-107961867D01*
X163074225Y-108073639D01*
X163052001Y-108185368D01*
X163052001Y-107644518D01*
X163060856Y-107600000D01*
X163025776Y-107423639D01*
X163002965Y-107389500D01*
X162925875Y-107274127D01*
X162888135Y-107248910D01*
X162821492Y-107182268D01*
X162858027Y-107127589D01*
X162883406Y-107000000D01*
X162883406Y-105000000D01*
X162858027Y-104872411D01*
X162785754Y-104764246D01*
X162702000Y-104708284D01*
X162702000Y-104227000D01*
X162894609Y-104227000D01*
X163161813Y-104116321D01*
X163366321Y-103911813D01*
X163477000Y-103644609D01*
X163477000Y-103355391D01*
X163366321Y-103088187D01*
X163161813Y-102883679D01*
X162894609Y-102773000D01*
X162605391Y-102773000D01*
X162338187Y-102883679D01*
X162133679Y-103088187D01*
X162023000Y-103355391D01*
X162023000Y-103587776D01*
X161961867Y-103648909D01*
X161924127Y-103674126D01*
X161898910Y-103711866D01*
X161898909Y-103711867D01*
X161824225Y-103823639D01*
X161789145Y-104000000D01*
X161798001Y-104044522D01*
X161798001Y-104708283D01*
X161750000Y-104740356D01*
X161702000Y-104708284D01*
X161702000Y-103544518D01*
X161710855Y-103500000D01*
X161675775Y-103323638D01*
X161601091Y-103211866D01*
X161575874Y-103174126D01*
X161538134Y-103148909D01*
X160189225Y-101800000D01*
X163566594Y-101800000D01*
X163566594Y-106000000D01*
X163591973Y-106127589D01*
X163664246Y-106235754D01*
X163772411Y-106308027D01*
X163900000Y-106333406D01*
X164600000Y-106333406D01*
X164727589Y-106308027D01*
X164835754Y-106235754D01*
X164908027Y-106127589D01*
X164933406Y-106000000D01*
X164933406Y-101800000D01*
X164908027Y-101672411D01*
X164835754Y-101564246D01*
X164727589Y-101491973D01*
X164600000Y-101466594D01*
X163900000Y-101466594D01*
X163772411Y-101491973D01*
X163664246Y-101564246D01*
X163591973Y-101672411D01*
X163566594Y-101800000D01*
X160189225Y-101800000D01*
X158451071Y-100061847D01*
X158425852Y-100024104D01*
X158276340Y-99924203D01*
X158154662Y-99900000D01*
X167566594Y-99900000D01*
X167566594Y-101600000D01*
X167591973Y-101727589D01*
X167664246Y-101835754D01*
X167772411Y-101908027D01*
X167900000Y-101933406D01*
X169600000Y-101933406D01*
X169727589Y-101908027D01*
X169835754Y-101835754D01*
X169908027Y-101727589D01*
X169933406Y-101600000D01*
X169933406Y-100750000D01*
X170089942Y-100750000D01*
X170181291Y-101209242D01*
X170441431Y-101598569D01*
X170830758Y-101858709D01*
X171174080Y-101927000D01*
X171405920Y-101927000D01*
X171749242Y-101858709D01*
X172138569Y-101598569D01*
X172398709Y-101209242D01*
X172490058Y-100750000D01*
X172629942Y-100750000D01*
X172721291Y-101209242D01*
X172981431Y-101598569D01*
X173370758Y-101858709D01*
X173714080Y-101927000D01*
X173945920Y-101927000D01*
X174289242Y-101858709D01*
X174678569Y-101598569D01*
X174938709Y-101209242D01*
X174966654Y-101068750D01*
X184716594Y-101068750D01*
X184716594Y-101556250D01*
X184760527Y-101777118D01*
X184885639Y-101964361D01*
X185072882Y-102089473D01*
X185293750Y-102133406D01*
X186206250Y-102133406D01*
X186427118Y-102089473D01*
X186614361Y-101964361D01*
X186739473Y-101777118D01*
X186741983Y-101764500D01*
X187291594Y-101764500D01*
X187291594Y-102375000D01*
X187336003Y-102598260D01*
X187462470Y-102787530D01*
X187651740Y-102913997D01*
X187875000Y-102958406D01*
X188625000Y-102958406D01*
X188848260Y-102913997D01*
X189037530Y-102787530D01*
X189163997Y-102598260D01*
X189208406Y-102375000D01*
X189208406Y-101125000D01*
X189163997Y-100901740D01*
X189037530Y-100712470D01*
X188848260Y-100586003D01*
X188625000Y-100541594D01*
X187875000Y-100541594D01*
X187651740Y-100586003D01*
X187462470Y-100712470D01*
X187363559Y-100860500D01*
X186741983Y-100860500D01*
X186739473Y-100847882D01*
X186614361Y-100660639D01*
X186427118Y-100535527D01*
X186206250Y-100491594D01*
X185293750Y-100491594D01*
X185072882Y-100535527D01*
X184885639Y-100660639D01*
X184760527Y-100847882D01*
X184716594Y-101068750D01*
X174966654Y-101068750D01*
X175030058Y-100750000D01*
X174938709Y-100290758D01*
X174678569Y-99901431D01*
X174289242Y-99641291D01*
X173945920Y-99573000D01*
X173714080Y-99573000D01*
X173370758Y-99641291D01*
X172981431Y-99901431D01*
X172721291Y-100290758D01*
X172629942Y-100750000D01*
X172490058Y-100750000D01*
X172398709Y-100290758D01*
X172138569Y-99901431D01*
X171749242Y-99641291D01*
X171405920Y-99573000D01*
X171174080Y-99573000D01*
X170830758Y-99641291D01*
X170441431Y-99901431D01*
X170181291Y-100290758D01*
X170089942Y-100750000D01*
X169933406Y-100750000D01*
X169933406Y-99900000D01*
X169908027Y-99772411D01*
X169835754Y-99664246D01*
X169727589Y-99591973D01*
X169600000Y-99566594D01*
X167900000Y-99566594D01*
X167772411Y-99591973D01*
X167664246Y-99664246D01*
X167591973Y-99772411D01*
X167566594Y-99900000D01*
X158154662Y-99900000D01*
X158144496Y-99897978D01*
X158099978Y-99889123D01*
X158055460Y-99897978D01*
X156536716Y-99897978D01*
X156492198Y-99889123D01*
X156447680Y-99897978D01*
X156315836Y-99924203D01*
X156166324Y-100024104D01*
X156141106Y-100061845D01*
X155211869Y-100991083D01*
X155174126Y-101016302D01*
X155094054Y-101136139D01*
X155074225Y-101165815D01*
X155039145Y-101342176D01*
X154402000Y-101342176D01*
X154402000Y-101028639D01*
X154470167Y-100552646D01*
X154657217Y-100141254D01*
X154952212Y-99798895D01*
X155331437Y-99553094D01*
X155777721Y-99419627D01*
X156014921Y-99402000D01*
X190971361Y-99402000D01*
X191447354Y-99470167D01*
G36*
X160491594Y-113700000D02*
X160491594Y-114150000D01*
X160511485Y-114250000D01*
X160491594Y-114350000D01*
X160491594Y-114800000D01*
X160511485Y-114900000D01*
X160491594Y-115000000D01*
X160491594Y-115450000D01*
X160511485Y-115550000D01*
X160491594Y-115650000D01*
X160491594Y-116100000D01*
X160511485Y-116200000D01*
X160491594Y-116300000D01*
X160491594Y-116723000D01*
X160362225Y-116723000D01*
X159283406Y-115644182D01*
X159283406Y-115256250D01*
X159239473Y-115035382D01*
X159185147Y-114954077D01*
X160504598Y-113634626D01*
X160491594Y-113700000D01*
X160491594Y-113700000D01*
G37*
X160491594Y-113700000D02*
X160491594Y-114150000D01*
X160511485Y-114250000D01*
X160491594Y-114350000D01*
X160491594Y-114800000D01*
X160511485Y-114900000D01*
X160491594Y-115000000D01*
X160491594Y-115450000D01*
X160511485Y-115550000D01*
X160491594Y-115650000D01*
X160491594Y-116100000D01*
X160511485Y-116200000D01*
X160491594Y-116300000D01*
X160491594Y-116723000D01*
X160362225Y-116723000D01*
X159283406Y-115644182D01*
X159283406Y-115256250D01*
X159239473Y-115035382D01*
X159185147Y-114954077D01*
X160504598Y-113634626D01*
X160491594Y-113700000D01*
G36*
X156900000Y-106333406D02*
X157600000Y-106333406D01*
X157616594Y-106330105D01*
X157616594Y-107000000D01*
X157641973Y-107127589D01*
X157714246Y-107235754D01*
X157798000Y-107291716D01*
X157798001Y-109455478D01*
X157789145Y-109500000D01*
X157824225Y-109676361D01*
X157888404Y-109772411D01*
X157924127Y-109825874D01*
X157961867Y-109851091D01*
X157968626Y-109857850D01*
X157941594Y-109993750D01*
X157941594Y-110431250D01*
X157983624Y-110642551D01*
X158103317Y-110821683D01*
X158282449Y-110941376D01*
X158493750Y-110983406D01*
X158944182Y-110983406D01*
X160046189Y-112085413D01*
X160048001Y-112094522D01*
X160048000Y-112812776D01*
X158181682Y-114679094D01*
X157793750Y-114679094D01*
X157572882Y-114723027D01*
X157385639Y-114848139D01*
X157260527Y-115035382D01*
X157216594Y-115256250D01*
X157216594Y-115743750D01*
X157241552Y-115869223D01*
X156852022Y-116258754D01*
X156852022Y-106323863D01*
X156900000Y-106333406D01*
X156900000Y-106333406D01*
G37*
X156900000Y-106333406D02*
X157600000Y-106333406D01*
X157616594Y-106330105D01*
X157616594Y-107000000D01*
X157641973Y-107127589D01*
X157714246Y-107235754D01*
X157798000Y-107291716D01*
X157798001Y-109455478D01*
X157789145Y-109500000D01*
X157824225Y-109676361D01*
X157888404Y-109772411D01*
X157924127Y-109825874D01*
X157961867Y-109851091D01*
X157968626Y-109857850D01*
X157941594Y-109993750D01*
X157941594Y-110431250D01*
X157983624Y-110642551D01*
X158103317Y-110821683D01*
X158282449Y-110941376D01*
X158493750Y-110983406D01*
X158944182Y-110983406D01*
X160046189Y-112085413D01*
X160048001Y-112094522D01*
X160048000Y-112812776D01*
X158181682Y-114679094D01*
X157793750Y-114679094D01*
X157572882Y-114723027D01*
X157385639Y-114848139D01*
X157260527Y-115035382D01*
X157216594Y-115256250D01*
X157216594Y-115743750D01*
X157241552Y-115869223D01*
X156852022Y-116258754D01*
X156852022Y-106323863D01*
X156900000Y-106333406D01*
G36*
X161797357Y-107291287D02*
X161824225Y-107426361D01*
X161853061Y-107469517D01*
X161924127Y-107575874D01*
X161961867Y-107601091D01*
X162148001Y-107787226D01*
X162148001Y-109914671D01*
X162116321Y-109838187D01*
X161911813Y-109633679D01*
X161644609Y-109523000D01*
X161355391Y-109523000D01*
X161088187Y-109633679D01*
X160883679Y-109838187D01*
X160773000Y-110105391D01*
X160773000Y-110394609D01*
X160883679Y-110661813D01*
X160988460Y-110766594D01*
X160825000Y-110766594D01*
X160697411Y-110791973D01*
X160589246Y-110864246D01*
X160516973Y-110972411D01*
X160491594Y-111100000D01*
X160491594Y-111252370D01*
X159558406Y-110319182D01*
X159558406Y-109993750D01*
X159516376Y-109782449D01*
X159396683Y-109603317D01*
X159217551Y-109483624D01*
X159006250Y-109441594D01*
X158830818Y-109441594D01*
X158702000Y-109312776D01*
X158702000Y-107291716D01*
X158750000Y-107259644D01*
X158822411Y-107308027D01*
X158950000Y-107333406D01*
X159550000Y-107333406D01*
X159677589Y-107308027D01*
X159750000Y-107259644D01*
X159822411Y-107308027D01*
X159950000Y-107333406D01*
X160550000Y-107333406D01*
X160677589Y-107308027D01*
X160750000Y-107259644D01*
X160822411Y-107308027D01*
X160950000Y-107333406D01*
X161550000Y-107333406D01*
X161677589Y-107308027D01*
X161750000Y-107259644D01*
X161797357Y-107291287D01*
X161797357Y-107291287D01*
G37*
X161797357Y-107291287D02*
X161824225Y-107426361D01*
X161853061Y-107469517D01*
X161924127Y-107575874D01*
X161961867Y-107601091D01*
X162148001Y-107787226D01*
X162148001Y-109914671D01*
X162116321Y-109838187D01*
X161911813Y-109633679D01*
X161644609Y-109523000D01*
X161355391Y-109523000D01*
X161088187Y-109633679D01*
X160883679Y-109838187D01*
X160773000Y-110105391D01*
X160773000Y-110394609D01*
X160883679Y-110661813D01*
X160988460Y-110766594D01*
X160825000Y-110766594D01*
X160697411Y-110791973D01*
X160589246Y-110864246D01*
X160516973Y-110972411D01*
X160491594Y-111100000D01*
X160491594Y-111252370D01*
X159558406Y-110319182D01*
X159558406Y-109993750D01*
X159516376Y-109782449D01*
X159396683Y-109603317D01*
X159217551Y-109483624D01*
X159006250Y-109441594D01*
X158830818Y-109441594D01*
X158702000Y-109312776D01*
X158702000Y-107291716D01*
X158750000Y-107259644D01*
X158822411Y-107308027D01*
X158950000Y-107333406D01*
X159550000Y-107333406D01*
X159677589Y-107308027D01*
X159750000Y-107259644D01*
X159822411Y-107308027D01*
X159950000Y-107333406D01*
X160550000Y-107333406D01*
X160677589Y-107308027D01*
X160750000Y-107259644D01*
X160822411Y-107308027D01*
X160950000Y-107333406D01*
X161550000Y-107333406D01*
X161677589Y-107308027D01*
X161750000Y-107259644D01*
X161797357Y-107291287D01*
G36*
X168461869Y-107548907D02*
X168424126Y-107574126D01*
X168357308Y-107674127D01*
X168324225Y-107723639D01*
X168289145Y-107900000D01*
X168298000Y-107944518D01*
X168298001Y-109362774D01*
X167161869Y-110498907D01*
X167124126Y-110524126D01*
X167064167Y-110613862D01*
X167024225Y-110673639D01*
X167005735Y-110766594D01*
X166725000Y-110766594D01*
X166664500Y-110778628D01*
X166664500Y-109501710D01*
X166821683Y-109396683D01*
X166941376Y-109217551D01*
X166983406Y-109006250D01*
X166983406Y-108618318D01*
X168899725Y-106702000D01*
X169308775Y-106702000D01*
X168461869Y-107548907D01*
X168461869Y-107548907D01*
G37*
X168461869Y-107548907D02*
X168424126Y-107574126D01*
X168357308Y-107674127D01*
X168324225Y-107723639D01*
X168289145Y-107900000D01*
X168298000Y-107944518D01*
X168298001Y-109362774D01*
X167161869Y-110498907D01*
X167124126Y-110524126D01*
X167064167Y-110613862D01*
X167024225Y-110673639D01*
X167005735Y-110766594D01*
X166725000Y-110766594D01*
X166664500Y-110778628D01*
X166664500Y-109501710D01*
X166821683Y-109396683D01*
X166941376Y-109217551D01*
X166983406Y-109006250D01*
X166983406Y-108618318D01*
X168899725Y-106702000D01*
X169308775Y-106702000D01*
X168461869Y-107548907D01*
G04 #@! TD*
M02*
