G04 #@! TF.GenerationSoftware,KiCad,Pcbnew,(5.0.0)*
G04 #@! TF.CreationDate,2019-01-18T23:40:16+01:00*
G04 #@! TF.ProjectId,converterboard,636F6E766572746572626F6172642E6B,rev?*
G04 #@! TF.SameCoordinates,Original*
G04 #@! TF.FileFunction,Legend,Bot*
G04 #@! TF.FilePolarity,Positive*
%FSLAX46Y46*%
G04 Gerber Fmt 4.6, Leading zero omitted, Abs format (unit mm)*
G04 Created by KiCad (PCBNEW (5.0.0)) date 01/18/19 23:40:16*
%MOMM*%
%LPD*%
G01*
G04 APERTURE LIST*
%ADD10C,0.300000*%
%ADD11C,0.200000*%
G04 APERTURE END LIST*
D10*
X189108928Y-101452380D02*
X189168452Y-101392857D01*
X189227976Y-101214285D01*
X189227976Y-101095238D01*
X189168452Y-100916666D01*
X189049404Y-100797619D01*
X188930357Y-100738095D01*
X188692261Y-100678571D01*
X188513690Y-100678571D01*
X188275595Y-100738095D01*
X188156547Y-100797619D01*
X188037500Y-100916666D01*
X187977976Y-101095238D01*
X187977976Y-101214285D01*
X188037500Y-101392857D01*
X188097023Y-101452380D01*
X189227976Y-102166666D02*
X189168452Y-102047619D01*
X189108928Y-101988095D01*
X188989880Y-101928571D01*
X188632738Y-101928571D01*
X188513690Y-101988095D01*
X188454166Y-102047619D01*
X188394642Y-102166666D01*
X188394642Y-102345238D01*
X188454166Y-102464285D01*
X188513690Y-102523809D01*
X188632738Y-102583333D01*
X188989880Y-102583333D01*
X189108928Y-102523809D01*
X189168452Y-102464285D01*
X189227976Y-102345238D01*
X189227976Y-102166666D01*
X188394642Y-103119047D02*
X189227976Y-103119047D01*
X188513690Y-103119047D02*
X188454166Y-103178571D01*
X188394642Y-103297619D01*
X188394642Y-103476190D01*
X188454166Y-103595238D01*
X188573214Y-103654761D01*
X189227976Y-103654761D01*
X188394642Y-104130952D02*
X189227976Y-104428571D01*
X188394642Y-104726190D01*
X189168452Y-105678571D02*
X189227976Y-105559523D01*
X189227976Y-105321428D01*
X189168452Y-105202380D01*
X189049404Y-105142857D01*
X188573214Y-105142857D01*
X188454166Y-105202380D01*
X188394642Y-105321428D01*
X188394642Y-105559523D01*
X188454166Y-105678571D01*
X188573214Y-105738095D01*
X188692261Y-105738095D01*
X188811309Y-105142857D01*
X189227976Y-106273809D02*
X188394642Y-106273809D01*
X188632738Y-106273809D02*
X188513690Y-106333333D01*
X188454166Y-106392857D01*
X188394642Y-106511904D01*
X188394642Y-106630952D01*
X188394642Y-106869047D02*
X188394642Y-107345238D01*
X187977976Y-107047619D02*
X189049404Y-107047619D01*
X189168452Y-107107142D01*
X189227976Y-107226190D01*
X189227976Y-107345238D01*
X189168452Y-108238095D02*
X189227976Y-108119047D01*
X189227976Y-107880952D01*
X189168452Y-107761904D01*
X189049404Y-107702380D01*
X188573214Y-107702380D01*
X188454166Y-107761904D01*
X188394642Y-107880952D01*
X188394642Y-108119047D01*
X188454166Y-108238095D01*
X188573214Y-108297619D01*
X188692261Y-108297619D01*
X188811309Y-107702380D01*
X189227976Y-108833333D02*
X188394642Y-108833333D01*
X188632738Y-108833333D02*
X188513690Y-108892857D01*
X188454166Y-108952380D01*
X188394642Y-109071428D01*
X188394642Y-109190476D01*
X189227976Y-110559523D02*
X187977976Y-110559523D01*
X188454166Y-110559523D02*
X188394642Y-110678571D01*
X188394642Y-110916666D01*
X188454166Y-111035714D01*
X188513690Y-111095238D01*
X188632738Y-111154761D01*
X188989880Y-111154761D01*
X189108928Y-111095238D01*
X189168452Y-111035714D01*
X189227976Y-110916666D01*
X189227976Y-110678571D01*
X189168452Y-110559523D01*
X189227976Y-111869047D02*
X189168452Y-111750000D01*
X189108928Y-111690476D01*
X188989880Y-111630952D01*
X188632738Y-111630952D01*
X188513690Y-111690476D01*
X188454166Y-111750000D01*
X188394642Y-111869047D01*
X188394642Y-112047619D01*
X188454166Y-112166666D01*
X188513690Y-112226190D01*
X188632738Y-112285714D01*
X188989880Y-112285714D01*
X189108928Y-112226190D01*
X189168452Y-112166666D01*
X189227976Y-112047619D01*
X189227976Y-111869047D01*
X189227976Y-113357142D02*
X188573214Y-113357142D01*
X188454166Y-113297619D01*
X188394642Y-113178571D01*
X188394642Y-112940476D01*
X188454166Y-112821428D01*
X189168452Y-113357142D02*
X189227976Y-113238095D01*
X189227976Y-112940476D01*
X189168452Y-112821428D01*
X189049404Y-112761904D01*
X188930357Y-112761904D01*
X188811309Y-112821428D01*
X188751785Y-112940476D01*
X188751785Y-113238095D01*
X188692261Y-113357142D01*
X189227976Y-113952380D02*
X188394642Y-113952380D01*
X188632738Y-113952380D02*
X188513690Y-114011904D01*
X188454166Y-114071428D01*
X188394642Y-114190476D01*
X188394642Y-114309523D01*
X189227976Y-115261904D02*
X187977976Y-115261904D01*
X189168452Y-115261904D02*
X189227976Y-115142857D01*
X189227976Y-114904761D01*
X189168452Y-114785714D01*
X189108928Y-114726190D01*
X188989880Y-114666666D01*
X188632738Y-114666666D01*
X188513690Y-114726190D01*
X188454166Y-114785714D01*
X188394642Y-114904761D01*
X188394642Y-115142857D01*
X188454166Y-115261904D01*
X191402976Y-101898809D02*
X190807738Y-101482142D01*
X191402976Y-101184523D02*
X190152976Y-101184523D01*
X190152976Y-101660714D01*
X190212500Y-101779761D01*
X190272023Y-101839285D01*
X190391071Y-101898809D01*
X190569642Y-101898809D01*
X190688690Y-101839285D01*
X190748214Y-101779761D01*
X190807738Y-101660714D01*
X190807738Y-101184523D01*
X191343452Y-102910714D02*
X191402976Y-102791666D01*
X191402976Y-102553571D01*
X191343452Y-102434523D01*
X191224404Y-102375000D01*
X190748214Y-102375000D01*
X190629166Y-102434523D01*
X190569642Y-102553571D01*
X190569642Y-102791666D01*
X190629166Y-102910714D01*
X190748214Y-102970238D01*
X190867261Y-102970238D01*
X190986309Y-102375000D01*
X190569642Y-103386904D02*
X191402976Y-103684523D01*
X190569642Y-103982142D01*
X191283928Y-104458333D02*
X191343452Y-104517857D01*
X191402976Y-104458333D01*
X191343452Y-104398809D01*
X191283928Y-104458333D01*
X191402976Y-104458333D01*
X191402976Y-106660714D02*
X191402976Y-105946428D01*
X191402976Y-106303571D02*
X190152976Y-106303571D01*
X190331547Y-106184523D01*
X190450595Y-106065476D01*
X190510119Y-105946428D01*
X190926785Y-108148809D02*
X190926785Y-109101190D01*
X191402976Y-111303571D02*
X191402976Y-110589285D01*
X191402976Y-110946428D02*
X190152976Y-110946428D01*
X190331547Y-110827380D01*
X190450595Y-110708333D01*
X190510119Y-110589285D01*
X191402976Y-111898809D02*
X191402976Y-112136904D01*
X191343452Y-112255952D01*
X191283928Y-112315476D01*
X191105357Y-112434523D01*
X190867261Y-112494047D01*
X190391071Y-112494047D01*
X190272023Y-112434523D01*
X190212500Y-112374999D01*
X190152976Y-112255952D01*
X190152976Y-112017857D01*
X190212500Y-111898809D01*
X190272023Y-111839285D01*
X190391071Y-111779761D01*
X190688690Y-111779761D01*
X190807738Y-111839285D01*
X190867261Y-111898809D01*
X190926785Y-112017857D01*
X190926785Y-112255952D01*
X190867261Y-112374999D01*
X190807738Y-112434523D01*
X190688690Y-112494047D01*
X190152976Y-113267857D02*
X190152976Y-113386904D01*
X190212500Y-113505952D01*
X190272023Y-113565476D01*
X190391071Y-113624999D01*
X190629166Y-113684523D01*
X190926785Y-113684523D01*
X191164880Y-113624999D01*
X191283928Y-113565476D01*
X191343452Y-113505952D01*
X191402976Y-113386904D01*
X191402976Y-113267857D01*
X191343452Y-113148809D01*
X191283928Y-113089285D01*
X191164880Y-113029761D01*
X190926785Y-112970238D01*
X190629166Y-112970238D01*
X190391071Y-113029761D01*
X190272023Y-113089285D01*
X190212500Y-113148809D01*
X190152976Y-113267857D01*
X190152976Y-114101190D02*
X190152976Y-114874999D01*
X190629166Y-114458333D01*
X190629166Y-114636904D01*
X190688690Y-114755952D01*
X190748214Y-114815476D01*
X190867261Y-114874999D01*
X191164880Y-114874999D01*
X191283928Y-114815476D01*
X191343452Y-114755952D01*
X191402976Y-114636904D01*
X191402976Y-114279761D01*
X191343452Y-114160714D01*
X191283928Y-114101190D01*
D11*
X176726190Y-102821428D02*
X175964285Y-102821428D01*
X174154761Y-103202380D02*
X174488095Y-102726190D01*
X174726190Y-103202380D02*
X174726190Y-102202380D01*
X174345238Y-102202380D01*
X174250000Y-102250000D01*
X174202380Y-102297619D01*
X174154761Y-102392857D01*
X174154761Y-102535714D01*
X174202380Y-102630952D01*
X174250000Y-102678571D01*
X174345238Y-102726190D01*
X174726190Y-102726190D01*
X173821428Y-102202380D02*
X173154761Y-103202380D01*
X173154761Y-102202380D02*
X173821428Y-103202380D01*
X172154761Y-102202380D02*
X171583333Y-102202380D01*
X171869047Y-103202380D02*
X171869047Y-102202380D01*
X171345238Y-102202380D02*
X170678571Y-103202380D01*
X170678571Y-102202380D02*
X171345238Y-103202380D01*
X169535714Y-102821428D02*
X168773809Y-102821428D01*
X169154761Y-103202380D02*
X169154761Y-102440476D01*
M02*
