M48
; DRILL file {KiCad (5.1.0)-1} date 05/30/19 16:28:15
; FORMAT={-:-/ absolute / metric / decimal}
; #@! TF.CreationDate,2019-05-30T16:28:15+02:00
; #@! TF.GenerationSoftware,Kicad,Pcbnew,(5.1.0)-1
FMAT,2
METRIC
T1C0.300
T2C0.400
T3C1.000
T4C0.500
T5C0.600
T6C0.700
%
G90
G05
T1
X188.6Y-114.0
X192.8Y-113.6
T2
X154.75Y-102.5
X154.75Y-105.0
X154.75Y-107.5
X154.75Y-110.0
X154.75Y-112.25
X154.75Y-114.5
X154.75Y-117.25
X154.75Y-120.25
X155.0Y-123.0
X155.0Y-126.0
X155.25Y-100.0
X156.0Y-128.0
X157.25Y-108.25
X157.25Y-112.0
X157.5Y-126.0
X157.75Y-124.0
X158.0Y-113.75
X158.25Y-117.5
X158.5Y-103.5
X158.75Y-111.75
X159.0Y-99.75
X159.0Y-128.0
X159.5Y-119.0
X159.75Y-115.25
X159.75Y-126.0
X159.795Y-122.454
X160.25Y-124.5
X160.75Y-109.25
X161.5Y-99.75
X161.5Y-110.25
X161.5Y-120.25
X161.75Y-102.25
X162.0Y-128.0
X162.75Y-103.5
X162.75Y-118.75
X163.5Y-110.75
X163.5Y-113.75
X163.5Y-116.5
X164.0Y-99.75
X164.351Y-108.425
X164.5Y-120.25
X165.0Y-112.75
X165.0Y-128.0
X165.25Y-115.0
X165.75Y-102.75
X165.75Y-104.5
X166.5Y-99.75
X167.5Y-105.5
X167.5Y-118.25
X167.75Y-108.75
X167.75Y-120.25
X168.0Y-128.0
X168.5Y-107.5
X169.0Y-102.75
X169.0Y-105.5
X169.0Y-117.25
X169.25Y-103.75
X169.25Y-114.5
X170.25Y-99.6
X170.75Y-120.25
X171.0Y-128.0
X171.5Y-114.75
X172.0Y-117.25
X172.5Y-99.6
X172.75Y-104.0
X172.75Y-108.25
X172.75Y-112.75
X174.0Y-106.25
X174.0Y-110.5
X174.0Y-128.0
X174.25Y-120.25
X174.5Y-114.75
X174.75Y-117.25
X175.0Y-99.6
X175.75Y-112.75
X176.0Y-108.25
X176.0Y-110.5
X176.25Y-104.5
X176.75Y-120.25
X177.0Y-128.0
X177.75Y-99.8
X178.5Y-101.0
X179.5Y-102.25
X179.75Y-120.25
X180.0Y-99.7
X180.0Y-104.0
X180.0Y-128.0
X180.25Y-106.25
X180.25Y-111.25
X180.5Y-117.5
X180.75Y-109.5
X181.0Y-101.0
X181.75Y-104.25
X182.0Y-102.5
X182.25Y-106.25
X182.5Y-99.7
X182.5Y-117.5
X182.75Y-120.25
X183.0Y-101.0
X183.0Y-128.0
X183.25Y-111.75
X183.25Y-107.0
X183.25Y-108.0
X183.5Y-109.75
X183.75Y-104.0
X184.5Y-112.75
X184.5Y-115.5
X185.0Y-99.7
X186.0Y-120.25
X186.0Y-128.0
X186.25Y-118.0
X187.0Y-109.5
X187.25Y-111.5
X187.4Y-114.0
X187.5Y-99.7
X187.75Y-104.75
X187.75Y-108.5
X188.75Y-120.75
X188.75Y-123.0
X188.75Y-125.5
X189.0Y-128.0
X190.0Y-99.7
X190.0Y-104.5
X191.75Y-100.0
X191.75Y-127.75
X192.0Y-120.5
X192.0Y-123.0
X192.0Y-125.5
X192.25Y-103.75
T3
X162.1Y-122.51
X162.1Y-125.05
X164.64Y-122.51
X164.64Y-125.05
X167.18Y-122.51
X167.18Y-125.05
X169.72Y-122.51
X169.72Y-125.05
X172.26Y-122.51
X172.26Y-125.05
X174.8Y-122.51
X174.8Y-125.05
X177.34Y-122.51
X177.34Y-125.05
X179.88Y-122.51
X179.88Y-125.05
X182.42Y-122.51
X182.42Y-125.05
X184.96Y-122.51
X184.96Y-125.05
X168.75Y-100.75
X171.29Y-100.75
X173.83Y-100.75
X176.37Y-100.75
T5
X192.75Y-117.5
T4
G00X192.685Y-110.475
M15
G01X192.685Y-110.125
M16
G05
T5
G00X190.05Y-109.58
M15
G01X191.45Y-109.58
M16
G05
G00X190.05Y-118.22
M15
G01X191.45Y-118.22
M16
G05
T6
G00X191.4Y-110.175
M15
G01X191.4Y-109.625
M16
G05
G00X191.4Y-118.175
M15
G01X191.4Y-117.625
M16
G05
G00X195.05Y-109.58
M15
G01X196.55Y-109.58
M16
G05
G00X195.05Y-118.22
M15
G01X196.55Y-118.22
M16
G05
T0
M30
