G04 #@! TF.GenerationSoftware,KiCad,Pcbnew,(5.1.0)-1*
G04 #@! TF.CreationDate,2019-04-13T16:10:58+02:00*
G04 #@! TF.ProjectId,converterboard,636f6e76-6572-4746-9572-626f6172642e,rev?*
G04 #@! TF.SameCoordinates,Original*
G04 #@! TF.FileFunction,Paste,Top*
G04 #@! TF.FilePolarity,Positive*
%FSLAX46Y46*%
G04 Gerber Fmt 4.6, Leading zero omitted, Abs format (unit mm)*
G04 Created by KiCad (PCBNEW (5.1.0)-1) date 2019-04-13 16:10:58*
%MOMM*%
%LPD*%
G04 APERTURE LIST*
%ADD10C,0.100000*%
%ADD11C,0.975000*%
%ADD12R,0.800000X0.270000*%
%ADD13R,0.900000X0.270000*%
%ADD14C,0.875000*%
%ADD15R,1.450000X0.450000*%
%ADD16C,1.250000*%
%ADD17R,0.700000X4.200000*%
%ADD18R,0.600000X2.000000*%
%ADD19R,1.750000X0.450000*%
G04 APERTURE END LIST*
D10*
G36*
X182955142Y-114801174D02*
G01*
X182978803Y-114804684D01*
X183002007Y-114810496D01*
X183024529Y-114818554D01*
X183046153Y-114828782D01*
X183066670Y-114841079D01*
X183085883Y-114855329D01*
X183103607Y-114871393D01*
X183119671Y-114889117D01*
X183133921Y-114908330D01*
X183146218Y-114928847D01*
X183156446Y-114950471D01*
X183164504Y-114972993D01*
X183170316Y-114996197D01*
X183173826Y-115019858D01*
X183175000Y-115043750D01*
X183175000Y-115956250D01*
X183173826Y-115980142D01*
X183170316Y-116003803D01*
X183164504Y-116027007D01*
X183156446Y-116049529D01*
X183146218Y-116071153D01*
X183133921Y-116091670D01*
X183119671Y-116110883D01*
X183103607Y-116128607D01*
X183085883Y-116144671D01*
X183066670Y-116158921D01*
X183046153Y-116171218D01*
X183024529Y-116181446D01*
X183002007Y-116189504D01*
X182978803Y-116195316D01*
X182955142Y-116198826D01*
X182931250Y-116200000D01*
X182443750Y-116200000D01*
X182419858Y-116198826D01*
X182396197Y-116195316D01*
X182372993Y-116189504D01*
X182350471Y-116181446D01*
X182328847Y-116171218D01*
X182308330Y-116158921D01*
X182289117Y-116144671D01*
X182271393Y-116128607D01*
X182255329Y-116110883D01*
X182241079Y-116091670D01*
X182228782Y-116071153D01*
X182218554Y-116049529D01*
X182210496Y-116027007D01*
X182204684Y-116003803D01*
X182201174Y-115980142D01*
X182200000Y-115956250D01*
X182200000Y-115043750D01*
X182201174Y-115019858D01*
X182204684Y-114996197D01*
X182210496Y-114972993D01*
X182218554Y-114950471D01*
X182228782Y-114928847D01*
X182241079Y-114908330D01*
X182255329Y-114889117D01*
X182271393Y-114871393D01*
X182289117Y-114855329D01*
X182308330Y-114841079D01*
X182328847Y-114828782D01*
X182350471Y-114818554D01*
X182372993Y-114810496D01*
X182396197Y-114804684D01*
X182419858Y-114801174D01*
X182443750Y-114800000D01*
X182931250Y-114800000D01*
X182955142Y-114801174D01*
X182955142Y-114801174D01*
G37*
D11*
X182687500Y-115500000D03*
D10*
G36*
X181080142Y-114801174D02*
G01*
X181103803Y-114804684D01*
X181127007Y-114810496D01*
X181149529Y-114818554D01*
X181171153Y-114828782D01*
X181191670Y-114841079D01*
X181210883Y-114855329D01*
X181228607Y-114871393D01*
X181244671Y-114889117D01*
X181258921Y-114908330D01*
X181271218Y-114928847D01*
X181281446Y-114950471D01*
X181289504Y-114972993D01*
X181295316Y-114996197D01*
X181298826Y-115019858D01*
X181300000Y-115043750D01*
X181300000Y-115956250D01*
X181298826Y-115980142D01*
X181295316Y-116003803D01*
X181289504Y-116027007D01*
X181281446Y-116049529D01*
X181271218Y-116071153D01*
X181258921Y-116091670D01*
X181244671Y-116110883D01*
X181228607Y-116128607D01*
X181210883Y-116144671D01*
X181191670Y-116158921D01*
X181171153Y-116171218D01*
X181149529Y-116181446D01*
X181127007Y-116189504D01*
X181103803Y-116195316D01*
X181080142Y-116198826D01*
X181056250Y-116200000D01*
X180568750Y-116200000D01*
X180544858Y-116198826D01*
X180521197Y-116195316D01*
X180497993Y-116189504D01*
X180475471Y-116181446D01*
X180453847Y-116171218D01*
X180433330Y-116158921D01*
X180414117Y-116144671D01*
X180396393Y-116128607D01*
X180380329Y-116110883D01*
X180366079Y-116091670D01*
X180353782Y-116071153D01*
X180343554Y-116049529D01*
X180335496Y-116027007D01*
X180329684Y-116003803D01*
X180326174Y-115980142D01*
X180325000Y-115956250D01*
X180325000Y-115043750D01*
X180326174Y-115019858D01*
X180329684Y-114996197D01*
X180335496Y-114972993D01*
X180343554Y-114950471D01*
X180353782Y-114928847D01*
X180366079Y-114908330D01*
X180380329Y-114889117D01*
X180396393Y-114871393D01*
X180414117Y-114855329D01*
X180433330Y-114841079D01*
X180453847Y-114828782D01*
X180475471Y-114818554D01*
X180497993Y-114810496D01*
X180521197Y-114804684D01*
X180544858Y-114801174D01*
X180568750Y-114800000D01*
X181056250Y-114800000D01*
X181080142Y-114801174D01*
X181080142Y-114801174D01*
G37*
D11*
X180812500Y-115500000D03*
D12*
X191650000Y-111765000D03*
X191650000Y-112765000D03*
X191650000Y-112265000D03*
X191650000Y-111265000D03*
X191650000Y-113765000D03*
X191650000Y-114775000D03*
X191650000Y-114275000D03*
X191650000Y-113265000D03*
X191650000Y-115775000D03*
X191650000Y-115275000D03*
X191650000Y-116275000D03*
X191650000Y-116775000D03*
D13*
X190050000Y-112025000D03*
X190050000Y-111025000D03*
X190050000Y-112525000D03*
X190050000Y-111525000D03*
X190050000Y-113525000D03*
X190050000Y-113025000D03*
X190050000Y-114025000D03*
X190050000Y-115025000D03*
X190050000Y-114525000D03*
X190050000Y-115525000D03*
X190050000Y-116025000D03*
X190050000Y-116525000D03*
D10*
G36*
X188477691Y-115976053D02*
G01*
X188498926Y-115979203D01*
X188519750Y-115984419D01*
X188539962Y-115991651D01*
X188559368Y-116000830D01*
X188577781Y-116011866D01*
X188595024Y-116024654D01*
X188610930Y-116039070D01*
X188625346Y-116054976D01*
X188638134Y-116072219D01*
X188649170Y-116090632D01*
X188658349Y-116110038D01*
X188665581Y-116130250D01*
X188670797Y-116151074D01*
X188673947Y-116172309D01*
X188675000Y-116193750D01*
X188675000Y-116631250D01*
X188673947Y-116652691D01*
X188670797Y-116673926D01*
X188665581Y-116694750D01*
X188658349Y-116714962D01*
X188649170Y-116734368D01*
X188638134Y-116752781D01*
X188625346Y-116770024D01*
X188610930Y-116785930D01*
X188595024Y-116800346D01*
X188577781Y-116813134D01*
X188559368Y-116824170D01*
X188539962Y-116833349D01*
X188519750Y-116840581D01*
X188498926Y-116845797D01*
X188477691Y-116848947D01*
X188456250Y-116850000D01*
X187943750Y-116850000D01*
X187922309Y-116848947D01*
X187901074Y-116845797D01*
X187880250Y-116840581D01*
X187860038Y-116833349D01*
X187840632Y-116824170D01*
X187822219Y-116813134D01*
X187804976Y-116800346D01*
X187789070Y-116785930D01*
X187774654Y-116770024D01*
X187761866Y-116752781D01*
X187750830Y-116734368D01*
X187741651Y-116714962D01*
X187734419Y-116694750D01*
X187729203Y-116673926D01*
X187726053Y-116652691D01*
X187725000Y-116631250D01*
X187725000Y-116193750D01*
X187726053Y-116172309D01*
X187729203Y-116151074D01*
X187734419Y-116130250D01*
X187741651Y-116110038D01*
X187750830Y-116090632D01*
X187761866Y-116072219D01*
X187774654Y-116054976D01*
X187789070Y-116039070D01*
X187804976Y-116024654D01*
X187822219Y-116011866D01*
X187840632Y-116000830D01*
X187860038Y-115991651D01*
X187880250Y-115984419D01*
X187901074Y-115979203D01*
X187922309Y-115976053D01*
X187943750Y-115975000D01*
X188456250Y-115975000D01*
X188477691Y-115976053D01*
X188477691Y-115976053D01*
G37*
D14*
X188200000Y-116412500D03*
D10*
G36*
X188477691Y-117551053D02*
G01*
X188498926Y-117554203D01*
X188519750Y-117559419D01*
X188539962Y-117566651D01*
X188559368Y-117575830D01*
X188577781Y-117586866D01*
X188595024Y-117599654D01*
X188610930Y-117614070D01*
X188625346Y-117629976D01*
X188638134Y-117647219D01*
X188649170Y-117665632D01*
X188658349Y-117685038D01*
X188665581Y-117705250D01*
X188670797Y-117726074D01*
X188673947Y-117747309D01*
X188675000Y-117768750D01*
X188675000Y-118206250D01*
X188673947Y-118227691D01*
X188670797Y-118248926D01*
X188665581Y-118269750D01*
X188658349Y-118289962D01*
X188649170Y-118309368D01*
X188638134Y-118327781D01*
X188625346Y-118345024D01*
X188610930Y-118360930D01*
X188595024Y-118375346D01*
X188577781Y-118388134D01*
X188559368Y-118399170D01*
X188539962Y-118408349D01*
X188519750Y-118415581D01*
X188498926Y-118420797D01*
X188477691Y-118423947D01*
X188456250Y-118425000D01*
X187943750Y-118425000D01*
X187922309Y-118423947D01*
X187901074Y-118420797D01*
X187880250Y-118415581D01*
X187860038Y-118408349D01*
X187840632Y-118399170D01*
X187822219Y-118388134D01*
X187804976Y-118375346D01*
X187789070Y-118360930D01*
X187774654Y-118345024D01*
X187761866Y-118327781D01*
X187750830Y-118309368D01*
X187741651Y-118289962D01*
X187734419Y-118269750D01*
X187729203Y-118248926D01*
X187726053Y-118227691D01*
X187725000Y-118206250D01*
X187725000Y-117768750D01*
X187726053Y-117747309D01*
X187729203Y-117726074D01*
X187734419Y-117705250D01*
X187741651Y-117685038D01*
X187750830Y-117665632D01*
X187761866Y-117647219D01*
X187774654Y-117629976D01*
X187789070Y-117614070D01*
X187804976Y-117599654D01*
X187822219Y-117586866D01*
X187840632Y-117575830D01*
X187860038Y-117566651D01*
X187880250Y-117559419D01*
X187901074Y-117554203D01*
X187922309Y-117551053D01*
X187943750Y-117550000D01*
X188456250Y-117550000D01*
X188477691Y-117551053D01*
X188477691Y-117551053D01*
G37*
D14*
X188200000Y-117987500D03*
D15*
X161550000Y-111325000D03*
X161550000Y-111975000D03*
X161550000Y-112625000D03*
X161550000Y-113275000D03*
X161550000Y-113925000D03*
X161550000Y-114575000D03*
X161550000Y-115225000D03*
X161550000Y-115875000D03*
X161550000Y-116525000D03*
X161550000Y-117175000D03*
X167450000Y-117175000D03*
X167450000Y-116525000D03*
X167450000Y-115875000D03*
X167450000Y-115225000D03*
X167450000Y-114575000D03*
X167450000Y-113925000D03*
X167450000Y-113275000D03*
X167450000Y-112625000D03*
X167450000Y-111975000D03*
X167450000Y-111325000D03*
D10*
G36*
X168027691Y-108276053D02*
G01*
X168048926Y-108279203D01*
X168069750Y-108284419D01*
X168089962Y-108291651D01*
X168109368Y-108300830D01*
X168127781Y-108311866D01*
X168145024Y-108324654D01*
X168160930Y-108339070D01*
X168175346Y-108354976D01*
X168188134Y-108372219D01*
X168199170Y-108390632D01*
X168208349Y-108410038D01*
X168215581Y-108430250D01*
X168220797Y-108451074D01*
X168223947Y-108472309D01*
X168225000Y-108493750D01*
X168225000Y-109006250D01*
X168223947Y-109027691D01*
X168220797Y-109048926D01*
X168215581Y-109069750D01*
X168208349Y-109089962D01*
X168199170Y-109109368D01*
X168188134Y-109127781D01*
X168175346Y-109145024D01*
X168160930Y-109160930D01*
X168145024Y-109175346D01*
X168127781Y-109188134D01*
X168109368Y-109199170D01*
X168089962Y-109208349D01*
X168069750Y-109215581D01*
X168048926Y-109220797D01*
X168027691Y-109223947D01*
X168006250Y-109225000D01*
X167568750Y-109225000D01*
X167547309Y-109223947D01*
X167526074Y-109220797D01*
X167505250Y-109215581D01*
X167485038Y-109208349D01*
X167465632Y-109199170D01*
X167447219Y-109188134D01*
X167429976Y-109175346D01*
X167414070Y-109160930D01*
X167399654Y-109145024D01*
X167386866Y-109127781D01*
X167375830Y-109109368D01*
X167366651Y-109089962D01*
X167359419Y-109069750D01*
X167354203Y-109048926D01*
X167351053Y-109027691D01*
X167350000Y-109006250D01*
X167350000Y-108493750D01*
X167351053Y-108472309D01*
X167354203Y-108451074D01*
X167359419Y-108430250D01*
X167366651Y-108410038D01*
X167375830Y-108390632D01*
X167386866Y-108372219D01*
X167399654Y-108354976D01*
X167414070Y-108339070D01*
X167429976Y-108324654D01*
X167447219Y-108311866D01*
X167465632Y-108300830D01*
X167485038Y-108291651D01*
X167505250Y-108284419D01*
X167526074Y-108279203D01*
X167547309Y-108276053D01*
X167568750Y-108275000D01*
X168006250Y-108275000D01*
X168027691Y-108276053D01*
X168027691Y-108276053D01*
G37*
D14*
X167787500Y-108750000D03*
D10*
G36*
X166452691Y-108276053D02*
G01*
X166473926Y-108279203D01*
X166494750Y-108284419D01*
X166514962Y-108291651D01*
X166534368Y-108300830D01*
X166552781Y-108311866D01*
X166570024Y-108324654D01*
X166585930Y-108339070D01*
X166600346Y-108354976D01*
X166613134Y-108372219D01*
X166624170Y-108390632D01*
X166633349Y-108410038D01*
X166640581Y-108430250D01*
X166645797Y-108451074D01*
X166648947Y-108472309D01*
X166650000Y-108493750D01*
X166650000Y-109006250D01*
X166648947Y-109027691D01*
X166645797Y-109048926D01*
X166640581Y-109069750D01*
X166633349Y-109089962D01*
X166624170Y-109109368D01*
X166613134Y-109127781D01*
X166600346Y-109145024D01*
X166585930Y-109160930D01*
X166570024Y-109175346D01*
X166552781Y-109188134D01*
X166534368Y-109199170D01*
X166514962Y-109208349D01*
X166494750Y-109215581D01*
X166473926Y-109220797D01*
X166452691Y-109223947D01*
X166431250Y-109225000D01*
X165993750Y-109225000D01*
X165972309Y-109223947D01*
X165951074Y-109220797D01*
X165930250Y-109215581D01*
X165910038Y-109208349D01*
X165890632Y-109199170D01*
X165872219Y-109188134D01*
X165854976Y-109175346D01*
X165839070Y-109160930D01*
X165824654Y-109145024D01*
X165811866Y-109127781D01*
X165800830Y-109109368D01*
X165791651Y-109089962D01*
X165784419Y-109069750D01*
X165779203Y-109048926D01*
X165776053Y-109027691D01*
X165775000Y-109006250D01*
X165775000Y-108493750D01*
X165776053Y-108472309D01*
X165779203Y-108451074D01*
X165784419Y-108430250D01*
X165791651Y-108410038D01*
X165800830Y-108390632D01*
X165811866Y-108372219D01*
X165824654Y-108354976D01*
X165839070Y-108339070D01*
X165854976Y-108324654D01*
X165872219Y-108311866D01*
X165890632Y-108300830D01*
X165910038Y-108291651D01*
X165930250Y-108284419D01*
X165951074Y-108279203D01*
X165972309Y-108276053D01*
X165993750Y-108275000D01*
X166431250Y-108275000D01*
X166452691Y-108276053D01*
X166452691Y-108276053D01*
G37*
D14*
X166212500Y-108750000D03*
D10*
G36*
X159027691Y-109776053D02*
G01*
X159048926Y-109779203D01*
X159069750Y-109784419D01*
X159089962Y-109791651D01*
X159109368Y-109800830D01*
X159127781Y-109811866D01*
X159145024Y-109824654D01*
X159160930Y-109839070D01*
X159175346Y-109854976D01*
X159188134Y-109872219D01*
X159199170Y-109890632D01*
X159208349Y-109910038D01*
X159215581Y-109930250D01*
X159220797Y-109951074D01*
X159223947Y-109972309D01*
X159225000Y-109993750D01*
X159225000Y-110431250D01*
X159223947Y-110452691D01*
X159220797Y-110473926D01*
X159215581Y-110494750D01*
X159208349Y-110514962D01*
X159199170Y-110534368D01*
X159188134Y-110552781D01*
X159175346Y-110570024D01*
X159160930Y-110585930D01*
X159145024Y-110600346D01*
X159127781Y-110613134D01*
X159109368Y-110624170D01*
X159089962Y-110633349D01*
X159069750Y-110640581D01*
X159048926Y-110645797D01*
X159027691Y-110648947D01*
X159006250Y-110650000D01*
X158493750Y-110650000D01*
X158472309Y-110648947D01*
X158451074Y-110645797D01*
X158430250Y-110640581D01*
X158410038Y-110633349D01*
X158390632Y-110624170D01*
X158372219Y-110613134D01*
X158354976Y-110600346D01*
X158339070Y-110585930D01*
X158324654Y-110570024D01*
X158311866Y-110552781D01*
X158300830Y-110534368D01*
X158291651Y-110514962D01*
X158284419Y-110494750D01*
X158279203Y-110473926D01*
X158276053Y-110452691D01*
X158275000Y-110431250D01*
X158275000Y-109993750D01*
X158276053Y-109972309D01*
X158279203Y-109951074D01*
X158284419Y-109930250D01*
X158291651Y-109910038D01*
X158300830Y-109890632D01*
X158311866Y-109872219D01*
X158324654Y-109854976D01*
X158339070Y-109839070D01*
X158354976Y-109824654D01*
X158372219Y-109811866D01*
X158390632Y-109800830D01*
X158410038Y-109791651D01*
X158430250Y-109784419D01*
X158451074Y-109779203D01*
X158472309Y-109776053D01*
X158493750Y-109775000D01*
X159006250Y-109775000D01*
X159027691Y-109776053D01*
X159027691Y-109776053D01*
G37*
D14*
X158750000Y-110212500D03*
D10*
G36*
X159027691Y-111351053D02*
G01*
X159048926Y-111354203D01*
X159069750Y-111359419D01*
X159089962Y-111366651D01*
X159109368Y-111375830D01*
X159127781Y-111386866D01*
X159145024Y-111399654D01*
X159160930Y-111414070D01*
X159175346Y-111429976D01*
X159188134Y-111447219D01*
X159199170Y-111465632D01*
X159208349Y-111485038D01*
X159215581Y-111505250D01*
X159220797Y-111526074D01*
X159223947Y-111547309D01*
X159225000Y-111568750D01*
X159225000Y-112006250D01*
X159223947Y-112027691D01*
X159220797Y-112048926D01*
X159215581Y-112069750D01*
X159208349Y-112089962D01*
X159199170Y-112109368D01*
X159188134Y-112127781D01*
X159175346Y-112145024D01*
X159160930Y-112160930D01*
X159145024Y-112175346D01*
X159127781Y-112188134D01*
X159109368Y-112199170D01*
X159089962Y-112208349D01*
X159069750Y-112215581D01*
X159048926Y-112220797D01*
X159027691Y-112223947D01*
X159006250Y-112225000D01*
X158493750Y-112225000D01*
X158472309Y-112223947D01*
X158451074Y-112220797D01*
X158430250Y-112215581D01*
X158410038Y-112208349D01*
X158390632Y-112199170D01*
X158372219Y-112188134D01*
X158354976Y-112175346D01*
X158339070Y-112160930D01*
X158324654Y-112145024D01*
X158311866Y-112127781D01*
X158300830Y-112109368D01*
X158291651Y-112089962D01*
X158284419Y-112069750D01*
X158279203Y-112048926D01*
X158276053Y-112027691D01*
X158275000Y-112006250D01*
X158275000Y-111568750D01*
X158276053Y-111547309D01*
X158279203Y-111526074D01*
X158284419Y-111505250D01*
X158291651Y-111485038D01*
X158300830Y-111465632D01*
X158311866Y-111447219D01*
X158324654Y-111429976D01*
X158339070Y-111414070D01*
X158354976Y-111399654D01*
X158372219Y-111386866D01*
X158390632Y-111375830D01*
X158410038Y-111366651D01*
X158430250Y-111359419D01*
X158451074Y-111354203D01*
X158472309Y-111351053D01*
X158493750Y-111350000D01*
X159006250Y-111350000D01*
X159027691Y-111351053D01*
X159027691Y-111351053D01*
G37*
D14*
X158750000Y-111787500D03*
D10*
G36*
X179277691Y-116851053D02*
G01*
X179298926Y-116854203D01*
X179319750Y-116859419D01*
X179339962Y-116866651D01*
X179359368Y-116875830D01*
X179377781Y-116886866D01*
X179395024Y-116899654D01*
X179410930Y-116914070D01*
X179425346Y-116929976D01*
X179438134Y-116947219D01*
X179449170Y-116965632D01*
X179458349Y-116985038D01*
X179465581Y-117005250D01*
X179470797Y-117026074D01*
X179473947Y-117047309D01*
X179475000Y-117068750D01*
X179475000Y-117506250D01*
X179473947Y-117527691D01*
X179470797Y-117548926D01*
X179465581Y-117569750D01*
X179458349Y-117589962D01*
X179449170Y-117609368D01*
X179438134Y-117627781D01*
X179425346Y-117645024D01*
X179410930Y-117660930D01*
X179395024Y-117675346D01*
X179377781Y-117688134D01*
X179359368Y-117699170D01*
X179339962Y-117708349D01*
X179319750Y-117715581D01*
X179298926Y-117720797D01*
X179277691Y-117723947D01*
X179256250Y-117725000D01*
X178743750Y-117725000D01*
X178722309Y-117723947D01*
X178701074Y-117720797D01*
X178680250Y-117715581D01*
X178660038Y-117708349D01*
X178640632Y-117699170D01*
X178622219Y-117688134D01*
X178604976Y-117675346D01*
X178589070Y-117660930D01*
X178574654Y-117645024D01*
X178561866Y-117627781D01*
X178550830Y-117609368D01*
X178541651Y-117589962D01*
X178534419Y-117569750D01*
X178529203Y-117548926D01*
X178526053Y-117527691D01*
X178525000Y-117506250D01*
X178525000Y-117068750D01*
X178526053Y-117047309D01*
X178529203Y-117026074D01*
X178534419Y-117005250D01*
X178541651Y-116985038D01*
X178550830Y-116965632D01*
X178561866Y-116947219D01*
X178574654Y-116929976D01*
X178589070Y-116914070D01*
X178604976Y-116899654D01*
X178622219Y-116886866D01*
X178640632Y-116875830D01*
X178660038Y-116866651D01*
X178680250Y-116859419D01*
X178701074Y-116854203D01*
X178722309Y-116851053D01*
X178743750Y-116850000D01*
X179256250Y-116850000D01*
X179277691Y-116851053D01*
X179277691Y-116851053D01*
G37*
D14*
X179000000Y-117287500D03*
D10*
G36*
X179277691Y-115276053D02*
G01*
X179298926Y-115279203D01*
X179319750Y-115284419D01*
X179339962Y-115291651D01*
X179359368Y-115300830D01*
X179377781Y-115311866D01*
X179395024Y-115324654D01*
X179410930Y-115339070D01*
X179425346Y-115354976D01*
X179438134Y-115372219D01*
X179449170Y-115390632D01*
X179458349Y-115410038D01*
X179465581Y-115430250D01*
X179470797Y-115451074D01*
X179473947Y-115472309D01*
X179475000Y-115493750D01*
X179475000Y-115931250D01*
X179473947Y-115952691D01*
X179470797Y-115973926D01*
X179465581Y-115994750D01*
X179458349Y-116014962D01*
X179449170Y-116034368D01*
X179438134Y-116052781D01*
X179425346Y-116070024D01*
X179410930Y-116085930D01*
X179395024Y-116100346D01*
X179377781Y-116113134D01*
X179359368Y-116124170D01*
X179339962Y-116133349D01*
X179319750Y-116140581D01*
X179298926Y-116145797D01*
X179277691Y-116148947D01*
X179256250Y-116150000D01*
X178743750Y-116150000D01*
X178722309Y-116148947D01*
X178701074Y-116145797D01*
X178680250Y-116140581D01*
X178660038Y-116133349D01*
X178640632Y-116124170D01*
X178622219Y-116113134D01*
X178604976Y-116100346D01*
X178589070Y-116085930D01*
X178574654Y-116070024D01*
X178561866Y-116052781D01*
X178550830Y-116034368D01*
X178541651Y-116014962D01*
X178534419Y-115994750D01*
X178529203Y-115973926D01*
X178526053Y-115952691D01*
X178525000Y-115931250D01*
X178525000Y-115493750D01*
X178526053Y-115472309D01*
X178529203Y-115451074D01*
X178534419Y-115430250D01*
X178541651Y-115410038D01*
X178550830Y-115390632D01*
X178561866Y-115372219D01*
X178574654Y-115354976D01*
X178589070Y-115339070D01*
X178604976Y-115324654D01*
X178622219Y-115311866D01*
X178640632Y-115300830D01*
X178660038Y-115291651D01*
X178680250Y-115284419D01*
X178701074Y-115279203D01*
X178722309Y-115276053D01*
X178743750Y-115275000D01*
X179256250Y-115275000D01*
X179277691Y-115276053D01*
X179277691Y-115276053D01*
G37*
D14*
X179000000Y-115712500D03*
D10*
G36*
X186527691Y-116026053D02*
G01*
X186548926Y-116029203D01*
X186569750Y-116034419D01*
X186589962Y-116041651D01*
X186609368Y-116050830D01*
X186627781Y-116061866D01*
X186645024Y-116074654D01*
X186660930Y-116089070D01*
X186675346Y-116104976D01*
X186688134Y-116122219D01*
X186699170Y-116140632D01*
X186708349Y-116160038D01*
X186715581Y-116180250D01*
X186720797Y-116201074D01*
X186723947Y-116222309D01*
X186725000Y-116243750D01*
X186725000Y-116681250D01*
X186723947Y-116702691D01*
X186720797Y-116723926D01*
X186715581Y-116744750D01*
X186708349Y-116764962D01*
X186699170Y-116784368D01*
X186688134Y-116802781D01*
X186675346Y-116820024D01*
X186660930Y-116835930D01*
X186645024Y-116850346D01*
X186627781Y-116863134D01*
X186609368Y-116874170D01*
X186589962Y-116883349D01*
X186569750Y-116890581D01*
X186548926Y-116895797D01*
X186527691Y-116898947D01*
X186506250Y-116900000D01*
X185993750Y-116900000D01*
X185972309Y-116898947D01*
X185951074Y-116895797D01*
X185930250Y-116890581D01*
X185910038Y-116883349D01*
X185890632Y-116874170D01*
X185872219Y-116863134D01*
X185854976Y-116850346D01*
X185839070Y-116835930D01*
X185824654Y-116820024D01*
X185811866Y-116802781D01*
X185800830Y-116784368D01*
X185791651Y-116764962D01*
X185784419Y-116744750D01*
X185779203Y-116723926D01*
X185776053Y-116702691D01*
X185775000Y-116681250D01*
X185775000Y-116243750D01*
X185776053Y-116222309D01*
X185779203Y-116201074D01*
X185784419Y-116180250D01*
X185791651Y-116160038D01*
X185800830Y-116140632D01*
X185811866Y-116122219D01*
X185824654Y-116104976D01*
X185839070Y-116089070D01*
X185854976Y-116074654D01*
X185872219Y-116061866D01*
X185890632Y-116050830D01*
X185910038Y-116041651D01*
X185930250Y-116034419D01*
X185951074Y-116029203D01*
X185972309Y-116026053D01*
X185993750Y-116025000D01*
X186506250Y-116025000D01*
X186527691Y-116026053D01*
X186527691Y-116026053D01*
G37*
D14*
X186250000Y-116462500D03*
D10*
G36*
X186527691Y-117601053D02*
G01*
X186548926Y-117604203D01*
X186569750Y-117609419D01*
X186589962Y-117616651D01*
X186609368Y-117625830D01*
X186627781Y-117636866D01*
X186645024Y-117649654D01*
X186660930Y-117664070D01*
X186675346Y-117679976D01*
X186688134Y-117697219D01*
X186699170Y-117715632D01*
X186708349Y-117735038D01*
X186715581Y-117755250D01*
X186720797Y-117776074D01*
X186723947Y-117797309D01*
X186725000Y-117818750D01*
X186725000Y-118256250D01*
X186723947Y-118277691D01*
X186720797Y-118298926D01*
X186715581Y-118319750D01*
X186708349Y-118339962D01*
X186699170Y-118359368D01*
X186688134Y-118377781D01*
X186675346Y-118395024D01*
X186660930Y-118410930D01*
X186645024Y-118425346D01*
X186627781Y-118438134D01*
X186609368Y-118449170D01*
X186589962Y-118458349D01*
X186569750Y-118465581D01*
X186548926Y-118470797D01*
X186527691Y-118473947D01*
X186506250Y-118475000D01*
X185993750Y-118475000D01*
X185972309Y-118473947D01*
X185951074Y-118470797D01*
X185930250Y-118465581D01*
X185910038Y-118458349D01*
X185890632Y-118449170D01*
X185872219Y-118438134D01*
X185854976Y-118425346D01*
X185839070Y-118410930D01*
X185824654Y-118395024D01*
X185811866Y-118377781D01*
X185800830Y-118359368D01*
X185791651Y-118339962D01*
X185784419Y-118319750D01*
X185779203Y-118298926D01*
X185776053Y-118277691D01*
X185775000Y-118256250D01*
X185775000Y-117818750D01*
X185776053Y-117797309D01*
X185779203Y-117776074D01*
X185784419Y-117755250D01*
X185791651Y-117735038D01*
X185800830Y-117715632D01*
X185811866Y-117697219D01*
X185824654Y-117679976D01*
X185839070Y-117664070D01*
X185854976Y-117649654D01*
X185872219Y-117636866D01*
X185890632Y-117625830D01*
X185910038Y-117616651D01*
X185930250Y-117609419D01*
X185951074Y-117604203D01*
X185972309Y-117601053D01*
X185993750Y-117600000D01*
X186506250Y-117600000D01*
X186527691Y-117601053D01*
X186527691Y-117601053D01*
G37*
D14*
X186250000Y-118037500D03*
D10*
G36*
X188749504Y-105626204D02*
G01*
X188773773Y-105629804D01*
X188797571Y-105635765D01*
X188820671Y-105644030D01*
X188842849Y-105654520D01*
X188863893Y-105667133D01*
X188883598Y-105681747D01*
X188901777Y-105698223D01*
X188918253Y-105716402D01*
X188932867Y-105736107D01*
X188945480Y-105757151D01*
X188955970Y-105779329D01*
X188964235Y-105802429D01*
X188970196Y-105826227D01*
X188973796Y-105850496D01*
X188975000Y-105875000D01*
X188975000Y-107125000D01*
X188973796Y-107149504D01*
X188970196Y-107173773D01*
X188964235Y-107197571D01*
X188955970Y-107220671D01*
X188945480Y-107242849D01*
X188932867Y-107263893D01*
X188918253Y-107283598D01*
X188901777Y-107301777D01*
X188883598Y-107318253D01*
X188863893Y-107332867D01*
X188842849Y-107345480D01*
X188820671Y-107355970D01*
X188797571Y-107364235D01*
X188773773Y-107370196D01*
X188749504Y-107373796D01*
X188725000Y-107375000D01*
X187975000Y-107375000D01*
X187950496Y-107373796D01*
X187926227Y-107370196D01*
X187902429Y-107364235D01*
X187879329Y-107355970D01*
X187857151Y-107345480D01*
X187836107Y-107332867D01*
X187816402Y-107318253D01*
X187798223Y-107301777D01*
X187781747Y-107283598D01*
X187767133Y-107263893D01*
X187754520Y-107242849D01*
X187744030Y-107220671D01*
X187735765Y-107197571D01*
X187729804Y-107173773D01*
X187726204Y-107149504D01*
X187725000Y-107125000D01*
X187725000Y-105875000D01*
X187726204Y-105850496D01*
X187729804Y-105826227D01*
X187735765Y-105802429D01*
X187744030Y-105779329D01*
X187754520Y-105757151D01*
X187767133Y-105736107D01*
X187781747Y-105716402D01*
X187798223Y-105698223D01*
X187816402Y-105681747D01*
X187836107Y-105667133D01*
X187857151Y-105654520D01*
X187879329Y-105644030D01*
X187902429Y-105635765D01*
X187926227Y-105629804D01*
X187950496Y-105626204D01*
X187975000Y-105625000D01*
X188725000Y-105625000D01*
X188749504Y-105626204D01*
X188749504Y-105626204D01*
G37*
D16*
X188350000Y-106500000D03*
D10*
G36*
X191549504Y-105626204D02*
G01*
X191573773Y-105629804D01*
X191597571Y-105635765D01*
X191620671Y-105644030D01*
X191642849Y-105654520D01*
X191663893Y-105667133D01*
X191683598Y-105681747D01*
X191701777Y-105698223D01*
X191718253Y-105716402D01*
X191732867Y-105736107D01*
X191745480Y-105757151D01*
X191755970Y-105779329D01*
X191764235Y-105802429D01*
X191770196Y-105826227D01*
X191773796Y-105850496D01*
X191775000Y-105875000D01*
X191775000Y-107125000D01*
X191773796Y-107149504D01*
X191770196Y-107173773D01*
X191764235Y-107197571D01*
X191755970Y-107220671D01*
X191745480Y-107242849D01*
X191732867Y-107263893D01*
X191718253Y-107283598D01*
X191701777Y-107301777D01*
X191683598Y-107318253D01*
X191663893Y-107332867D01*
X191642849Y-107345480D01*
X191620671Y-107355970D01*
X191597571Y-107364235D01*
X191573773Y-107370196D01*
X191549504Y-107373796D01*
X191525000Y-107375000D01*
X190775000Y-107375000D01*
X190750496Y-107373796D01*
X190726227Y-107370196D01*
X190702429Y-107364235D01*
X190679329Y-107355970D01*
X190657151Y-107345480D01*
X190636107Y-107332867D01*
X190616402Y-107318253D01*
X190598223Y-107301777D01*
X190581747Y-107283598D01*
X190567133Y-107263893D01*
X190554520Y-107242849D01*
X190544030Y-107220671D01*
X190535765Y-107197571D01*
X190529804Y-107173773D01*
X190526204Y-107149504D01*
X190525000Y-107125000D01*
X190525000Y-105875000D01*
X190526204Y-105850496D01*
X190529804Y-105826227D01*
X190535765Y-105802429D01*
X190544030Y-105779329D01*
X190554520Y-105757151D01*
X190567133Y-105736107D01*
X190581747Y-105716402D01*
X190598223Y-105698223D01*
X190616402Y-105681747D01*
X190636107Y-105667133D01*
X190657151Y-105654520D01*
X190679329Y-105644030D01*
X190702429Y-105635765D01*
X190726227Y-105629804D01*
X190750496Y-105626204D01*
X190775000Y-105625000D01*
X191525000Y-105625000D01*
X191549504Y-105626204D01*
X191549504Y-105626204D01*
G37*
D16*
X191150000Y-106500000D03*
D10*
G36*
X191449504Y-100876204D02*
G01*
X191473773Y-100879804D01*
X191497571Y-100885765D01*
X191520671Y-100894030D01*
X191542849Y-100904520D01*
X191563893Y-100917133D01*
X191583598Y-100931747D01*
X191601777Y-100948223D01*
X191618253Y-100966402D01*
X191632867Y-100986107D01*
X191645480Y-101007151D01*
X191655970Y-101029329D01*
X191664235Y-101052429D01*
X191670196Y-101076227D01*
X191673796Y-101100496D01*
X191675000Y-101125000D01*
X191675000Y-102375000D01*
X191673796Y-102399504D01*
X191670196Y-102423773D01*
X191664235Y-102447571D01*
X191655970Y-102470671D01*
X191645480Y-102492849D01*
X191632867Y-102513893D01*
X191618253Y-102533598D01*
X191601777Y-102551777D01*
X191583598Y-102568253D01*
X191563893Y-102582867D01*
X191542849Y-102595480D01*
X191520671Y-102605970D01*
X191497571Y-102614235D01*
X191473773Y-102620196D01*
X191449504Y-102623796D01*
X191425000Y-102625000D01*
X190675000Y-102625000D01*
X190650496Y-102623796D01*
X190626227Y-102620196D01*
X190602429Y-102614235D01*
X190579329Y-102605970D01*
X190557151Y-102595480D01*
X190536107Y-102582867D01*
X190516402Y-102568253D01*
X190498223Y-102551777D01*
X190481747Y-102533598D01*
X190467133Y-102513893D01*
X190454520Y-102492849D01*
X190444030Y-102470671D01*
X190435765Y-102447571D01*
X190429804Y-102423773D01*
X190426204Y-102399504D01*
X190425000Y-102375000D01*
X190425000Y-101125000D01*
X190426204Y-101100496D01*
X190429804Y-101076227D01*
X190435765Y-101052429D01*
X190444030Y-101029329D01*
X190454520Y-101007151D01*
X190467133Y-100986107D01*
X190481747Y-100966402D01*
X190498223Y-100948223D01*
X190516402Y-100931747D01*
X190536107Y-100917133D01*
X190557151Y-100904520D01*
X190579329Y-100894030D01*
X190602429Y-100885765D01*
X190626227Y-100879804D01*
X190650496Y-100876204D01*
X190675000Y-100875000D01*
X191425000Y-100875000D01*
X191449504Y-100876204D01*
X191449504Y-100876204D01*
G37*
D16*
X191050000Y-101750000D03*
D10*
G36*
X188649504Y-100876204D02*
G01*
X188673773Y-100879804D01*
X188697571Y-100885765D01*
X188720671Y-100894030D01*
X188742849Y-100904520D01*
X188763893Y-100917133D01*
X188783598Y-100931747D01*
X188801777Y-100948223D01*
X188818253Y-100966402D01*
X188832867Y-100986107D01*
X188845480Y-101007151D01*
X188855970Y-101029329D01*
X188864235Y-101052429D01*
X188870196Y-101076227D01*
X188873796Y-101100496D01*
X188875000Y-101125000D01*
X188875000Y-102375000D01*
X188873796Y-102399504D01*
X188870196Y-102423773D01*
X188864235Y-102447571D01*
X188855970Y-102470671D01*
X188845480Y-102492849D01*
X188832867Y-102513893D01*
X188818253Y-102533598D01*
X188801777Y-102551777D01*
X188783598Y-102568253D01*
X188763893Y-102582867D01*
X188742849Y-102595480D01*
X188720671Y-102605970D01*
X188697571Y-102614235D01*
X188673773Y-102620196D01*
X188649504Y-102623796D01*
X188625000Y-102625000D01*
X187875000Y-102625000D01*
X187850496Y-102623796D01*
X187826227Y-102620196D01*
X187802429Y-102614235D01*
X187779329Y-102605970D01*
X187757151Y-102595480D01*
X187736107Y-102582867D01*
X187716402Y-102568253D01*
X187698223Y-102551777D01*
X187681747Y-102533598D01*
X187667133Y-102513893D01*
X187654520Y-102492849D01*
X187644030Y-102470671D01*
X187635765Y-102447571D01*
X187629804Y-102423773D01*
X187626204Y-102399504D01*
X187625000Y-102375000D01*
X187625000Y-101125000D01*
X187626204Y-101100496D01*
X187629804Y-101076227D01*
X187635765Y-101052429D01*
X187644030Y-101029329D01*
X187654520Y-101007151D01*
X187667133Y-100986107D01*
X187681747Y-100966402D01*
X187698223Y-100948223D01*
X187716402Y-100931747D01*
X187736107Y-100917133D01*
X187757151Y-100904520D01*
X187779329Y-100894030D01*
X187802429Y-100885765D01*
X187826227Y-100879804D01*
X187850496Y-100876204D01*
X187875000Y-100875000D01*
X188625000Y-100875000D01*
X188649504Y-100876204D01*
X188649504Y-100876204D01*
G37*
D16*
X188250000Y-101750000D03*
D17*
X157250000Y-103900000D03*
D18*
X158250000Y-106000000D03*
X159250000Y-106000000D03*
X160250000Y-106000000D03*
X161250000Y-106000000D03*
X162250000Y-106000000D03*
X163250000Y-106000000D03*
D17*
X164250000Y-103900000D03*
D19*
X170900000Y-104275000D03*
X170900000Y-104925000D03*
X170900000Y-105575000D03*
X170900000Y-106225000D03*
X170900000Y-106875000D03*
X170900000Y-107525000D03*
X170900000Y-108175000D03*
X170900000Y-108825000D03*
X170900000Y-109475000D03*
X170900000Y-110125000D03*
X170900000Y-110775000D03*
X170900000Y-111425000D03*
X170900000Y-112075000D03*
X170900000Y-112725000D03*
X178100000Y-112725000D03*
X178100000Y-112075000D03*
X178100000Y-111425000D03*
X178100000Y-110775000D03*
X178100000Y-110125000D03*
X178100000Y-109475000D03*
X178100000Y-108825000D03*
X178100000Y-108175000D03*
X178100000Y-107525000D03*
X178100000Y-106875000D03*
X178100000Y-106225000D03*
X178100000Y-105575000D03*
X178100000Y-104925000D03*
X178100000Y-104275000D03*
D10*
G36*
X186230142Y-104576174D02*
G01*
X186253803Y-104579684D01*
X186277007Y-104585496D01*
X186299529Y-104593554D01*
X186321153Y-104603782D01*
X186341670Y-104616079D01*
X186360883Y-104630329D01*
X186378607Y-104646393D01*
X186394671Y-104664117D01*
X186408921Y-104683330D01*
X186421218Y-104703847D01*
X186431446Y-104725471D01*
X186439504Y-104747993D01*
X186445316Y-104771197D01*
X186448826Y-104794858D01*
X186450000Y-104818750D01*
X186450000Y-105306250D01*
X186448826Y-105330142D01*
X186445316Y-105353803D01*
X186439504Y-105377007D01*
X186431446Y-105399529D01*
X186421218Y-105421153D01*
X186408921Y-105441670D01*
X186394671Y-105460883D01*
X186378607Y-105478607D01*
X186360883Y-105494671D01*
X186341670Y-105508921D01*
X186321153Y-105521218D01*
X186299529Y-105531446D01*
X186277007Y-105539504D01*
X186253803Y-105545316D01*
X186230142Y-105548826D01*
X186206250Y-105550000D01*
X185293750Y-105550000D01*
X185269858Y-105548826D01*
X185246197Y-105545316D01*
X185222993Y-105539504D01*
X185200471Y-105531446D01*
X185178847Y-105521218D01*
X185158330Y-105508921D01*
X185139117Y-105494671D01*
X185121393Y-105478607D01*
X185105329Y-105460883D01*
X185091079Y-105441670D01*
X185078782Y-105421153D01*
X185068554Y-105399529D01*
X185060496Y-105377007D01*
X185054684Y-105353803D01*
X185051174Y-105330142D01*
X185050000Y-105306250D01*
X185050000Y-104818750D01*
X185051174Y-104794858D01*
X185054684Y-104771197D01*
X185060496Y-104747993D01*
X185068554Y-104725471D01*
X185078782Y-104703847D01*
X185091079Y-104683330D01*
X185105329Y-104664117D01*
X185121393Y-104646393D01*
X185139117Y-104630329D01*
X185158330Y-104616079D01*
X185178847Y-104603782D01*
X185200471Y-104593554D01*
X185222993Y-104585496D01*
X185246197Y-104579684D01*
X185269858Y-104576174D01*
X185293750Y-104575000D01*
X186206250Y-104575000D01*
X186230142Y-104576174D01*
X186230142Y-104576174D01*
G37*
D11*
X185750000Y-105062500D03*
D10*
G36*
X186230142Y-106451174D02*
G01*
X186253803Y-106454684D01*
X186277007Y-106460496D01*
X186299529Y-106468554D01*
X186321153Y-106478782D01*
X186341670Y-106491079D01*
X186360883Y-106505329D01*
X186378607Y-106521393D01*
X186394671Y-106539117D01*
X186408921Y-106558330D01*
X186421218Y-106578847D01*
X186431446Y-106600471D01*
X186439504Y-106622993D01*
X186445316Y-106646197D01*
X186448826Y-106669858D01*
X186450000Y-106693750D01*
X186450000Y-107181250D01*
X186448826Y-107205142D01*
X186445316Y-107228803D01*
X186439504Y-107252007D01*
X186431446Y-107274529D01*
X186421218Y-107296153D01*
X186408921Y-107316670D01*
X186394671Y-107335883D01*
X186378607Y-107353607D01*
X186360883Y-107369671D01*
X186341670Y-107383921D01*
X186321153Y-107396218D01*
X186299529Y-107406446D01*
X186277007Y-107414504D01*
X186253803Y-107420316D01*
X186230142Y-107423826D01*
X186206250Y-107425000D01*
X185293750Y-107425000D01*
X185269858Y-107423826D01*
X185246197Y-107420316D01*
X185222993Y-107414504D01*
X185200471Y-107406446D01*
X185178847Y-107396218D01*
X185158330Y-107383921D01*
X185139117Y-107369671D01*
X185121393Y-107353607D01*
X185105329Y-107335883D01*
X185091079Y-107316670D01*
X185078782Y-107296153D01*
X185068554Y-107274529D01*
X185060496Y-107252007D01*
X185054684Y-107228803D01*
X185051174Y-107205142D01*
X185050000Y-107181250D01*
X185050000Y-106693750D01*
X185051174Y-106669858D01*
X185054684Y-106646197D01*
X185060496Y-106622993D01*
X185068554Y-106600471D01*
X185078782Y-106578847D01*
X185091079Y-106558330D01*
X185105329Y-106539117D01*
X185121393Y-106521393D01*
X185139117Y-106505329D01*
X185158330Y-106491079D01*
X185178847Y-106478782D01*
X185200471Y-106468554D01*
X185222993Y-106460496D01*
X185246197Y-106454684D01*
X185269858Y-106451174D01*
X185293750Y-106450000D01*
X186206250Y-106450000D01*
X186230142Y-106451174D01*
X186230142Y-106451174D01*
G37*
D11*
X185750000Y-106937500D03*
D10*
G36*
X186230142Y-100826174D02*
G01*
X186253803Y-100829684D01*
X186277007Y-100835496D01*
X186299529Y-100843554D01*
X186321153Y-100853782D01*
X186341670Y-100866079D01*
X186360883Y-100880329D01*
X186378607Y-100896393D01*
X186394671Y-100914117D01*
X186408921Y-100933330D01*
X186421218Y-100953847D01*
X186431446Y-100975471D01*
X186439504Y-100997993D01*
X186445316Y-101021197D01*
X186448826Y-101044858D01*
X186450000Y-101068750D01*
X186450000Y-101556250D01*
X186448826Y-101580142D01*
X186445316Y-101603803D01*
X186439504Y-101627007D01*
X186431446Y-101649529D01*
X186421218Y-101671153D01*
X186408921Y-101691670D01*
X186394671Y-101710883D01*
X186378607Y-101728607D01*
X186360883Y-101744671D01*
X186341670Y-101758921D01*
X186321153Y-101771218D01*
X186299529Y-101781446D01*
X186277007Y-101789504D01*
X186253803Y-101795316D01*
X186230142Y-101798826D01*
X186206250Y-101800000D01*
X185293750Y-101800000D01*
X185269858Y-101798826D01*
X185246197Y-101795316D01*
X185222993Y-101789504D01*
X185200471Y-101781446D01*
X185178847Y-101771218D01*
X185158330Y-101758921D01*
X185139117Y-101744671D01*
X185121393Y-101728607D01*
X185105329Y-101710883D01*
X185091079Y-101691670D01*
X185078782Y-101671153D01*
X185068554Y-101649529D01*
X185060496Y-101627007D01*
X185054684Y-101603803D01*
X185051174Y-101580142D01*
X185050000Y-101556250D01*
X185050000Y-101068750D01*
X185051174Y-101044858D01*
X185054684Y-101021197D01*
X185060496Y-100997993D01*
X185068554Y-100975471D01*
X185078782Y-100953847D01*
X185091079Y-100933330D01*
X185105329Y-100914117D01*
X185121393Y-100896393D01*
X185139117Y-100880329D01*
X185158330Y-100866079D01*
X185178847Y-100853782D01*
X185200471Y-100843554D01*
X185222993Y-100835496D01*
X185246197Y-100829684D01*
X185269858Y-100826174D01*
X185293750Y-100825000D01*
X186206250Y-100825000D01*
X186230142Y-100826174D01*
X186230142Y-100826174D01*
G37*
D11*
X185750000Y-101312500D03*
D10*
G36*
X186230142Y-102701174D02*
G01*
X186253803Y-102704684D01*
X186277007Y-102710496D01*
X186299529Y-102718554D01*
X186321153Y-102728782D01*
X186341670Y-102741079D01*
X186360883Y-102755329D01*
X186378607Y-102771393D01*
X186394671Y-102789117D01*
X186408921Y-102808330D01*
X186421218Y-102828847D01*
X186431446Y-102850471D01*
X186439504Y-102872993D01*
X186445316Y-102896197D01*
X186448826Y-102919858D01*
X186450000Y-102943750D01*
X186450000Y-103431250D01*
X186448826Y-103455142D01*
X186445316Y-103478803D01*
X186439504Y-103502007D01*
X186431446Y-103524529D01*
X186421218Y-103546153D01*
X186408921Y-103566670D01*
X186394671Y-103585883D01*
X186378607Y-103603607D01*
X186360883Y-103619671D01*
X186341670Y-103633921D01*
X186321153Y-103646218D01*
X186299529Y-103656446D01*
X186277007Y-103664504D01*
X186253803Y-103670316D01*
X186230142Y-103673826D01*
X186206250Y-103675000D01*
X185293750Y-103675000D01*
X185269858Y-103673826D01*
X185246197Y-103670316D01*
X185222993Y-103664504D01*
X185200471Y-103656446D01*
X185178847Y-103646218D01*
X185158330Y-103633921D01*
X185139117Y-103619671D01*
X185121393Y-103603607D01*
X185105329Y-103585883D01*
X185091079Y-103566670D01*
X185078782Y-103546153D01*
X185068554Y-103524529D01*
X185060496Y-103502007D01*
X185054684Y-103478803D01*
X185051174Y-103455142D01*
X185050000Y-103431250D01*
X185050000Y-102943750D01*
X185051174Y-102919858D01*
X185054684Y-102896197D01*
X185060496Y-102872993D01*
X185068554Y-102850471D01*
X185078782Y-102828847D01*
X185091079Y-102808330D01*
X185105329Y-102789117D01*
X185121393Y-102771393D01*
X185139117Y-102755329D01*
X185158330Y-102741079D01*
X185178847Y-102728782D01*
X185200471Y-102718554D01*
X185222993Y-102710496D01*
X185246197Y-102704684D01*
X185269858Y-102701174D01*
X185293750Y-102700000D01*
X186206250Y-102700000D01*
X186230142Y-102701174D01*
X186230142Y-102701174D01*
G37*
D11*
X185750000Y-103187500D03*
D10*
G36*
X158730142Y-116888674D02*
G01*
X158753803Y-116892184D01*
X158777007Y-116897996D01*
X158799529Y-116906054D01*
X158821153Y-116916282D01*
X158841670Y-116928579D01*
X158860883Y-116942829D01*
X158878607Y-116958893D01*
X158894671Y-116976617D01*
X158908921Y-116995830D01*
X158921218Y-117016347D01*
X158931446Y-117037971D01*
X158939504Y-117060493D01*
X158945316Y-117083697D01*
X158948826Y-117107358D01*
X158950000Y-117131250D01*
X158950000Y-117618750D01*
X158948826Y-117642642D01*
X158945316Y-117666303D01*
X158939504Y-117689507D01*
X158931446Y-117712029D01*
X158921218Y-117733653D01*
X158908921Y-117754170D01*
X158894671Y-117773383D01*
X158878607Y-117791107D01*
X158860883Y-117807171D01*
X158841670Y-117821421D01*
X158821153Y-117833718D01*
X158799529Y-117843946D01*
X158777007Y-117852004D01*
X158753803Y-117857816D01*
X158730142Y-117861326D01*
X158706250Y-117862500D01*
X157793750Y-117862500D01*
X157769858Y-117861326D01*
X157746197Y-117857816D01*
X157722993Y-117852004D01*
X157700471Y-117843946D01*
X157678847Y-117833718D01*
X157658330Y-117821421D01*
X157639117Y-117807171D01*
X157621393Y-117791107D01*
X157605329Y-117773383D01*
X157591079Y-117754170D01*
X157578782Y-117733653D01*
X157568554Y-117712029D01*
X157560496Y-117689507D01*
X157554684Y-117666303D01*
X157551174Y-117642642D01*
X157550000Y-117618750D01*
X157550000Y-117131250D01*
X157551174Y-117107358D01*
X157554684Y-117083697D01*
X157560496Y-117060493D01*
X157568554Y-117037971D01*
X157578782Y-117016347D01*
X157591079Y-116995830D01*
X157605329Y-116976617D01*
X157621393Y-116958893D01*
X157639117Y-116942829D01*
X157658330Y-116928579D01*
X157678847Y-116916282D01*
X157700471Y-116906054D01*
X157722993Y-116897996D01*
X157746197Y-116892184D01*
X157769858Y-116888674D01*
X157793750Y-116887500D01*
X158706250Y-116887500D01*
X158730142Y-116888674D01*
X158730142Y-116888674D01*
G37*
D11*
X158250000Y-117375000D03*
D10*
G36*
X158730142Y-115013674D02*
G01*
X158753803Y-115017184D01*
X158777007Y-115022996D01*
X158799529Y-115031054D01*
X158821153Y-115041282D01*
X158841670Y-115053579D01*
X158860883Y-115067829D01*
X158878607Y-115083893D01*
X158894671Y-115101617D01*
X158908921Y-115120830D01*
X158921218Y-115141347D01*
X158931446Y-115162971D01*
X158939504Y-115185493D01*
X158945316Y-115208697D01*
X158948826Y-115232358D01*
X158950000Y-115256250D01*
X158950000Y-115743750D01*
X158948826Y-115767642D01*
X158945316Y-115791303D01*
X158939504Y-115814507D01*
X158931446Y-115837029D01*
X158921218Y-115858653D01*
X158908921Y-115879170D01*
X158894671Y-115898383D01*
X158878607Y-115916107D01*
X158860883Y-115932171D01*
X158841670Y-115946421D01*
X158821153Y-115958718D01*
X158799529Y-115968946D01*
X158777007Y-115977004D01*
X158753803Y-115982816D01*
X158730142Y-115986326D01*
X158706250Y-115987500D01*
X157793750Y-115987500D01*
X157769858Y-115986326D01*
X157746197Y-115982816D01*
X157722993Y-115977004D01*
X157700471Y-115968946D01*
X157678847Y-115958718D01*
X157658330Y-115946421D01*
X157639117Y-115932171D01*
X157621393Y-115916107D01*
X157605329Y-115898383D01*
X157591079Y-115879170D01*
X157578782Y-115858653D01*
X157568554Y-115837029D01*
X157560496Y-115814507D01*
X157554684Y-115791303D01*
X157551174Y-115767642D01*
X157550000Y-115743750D01*
X157550000Y-115256250D01*
X157551174Y-115232358D01*
X157554684Y-115208697D01*
X157560496Y-115185493D01*
X157568554Y-115162971D01*
X157578782Y-115141347D01*
X157591079Y-115120830D01*
X157605329Y-115101617D01*
X157621393Y-115083893D01*
X157639117Y-115067829D01*
X157658330Y-115053579D01*
X157678847Y-115041282D01*
X157700471Y-115031054D01*
X157722993Y-115022996D01*
X157746197Y-115017184D01*
X157769858Y-115013674D01*
X157793750Y-115012500D01*
X158706250Y-115012500D01*
X158730142Y-115013674D01*
X158730142Y-115013674D01*
G37*
D11*
X158250000Y-115500000D03*
M02*
