G04 #@! TF.GenerationSoftware,KiCad,Pcbnew,(5.1.0)-1*
G04 #@! TF.CreationDate,2019-04-13T16:10:58+02:00*
G04 #@! TF.ProjectId,converterboard,636f6e76-6572-4746-9572-626f6172642e,rev?*
G04 #@! TF.SameCoordinates,Original*
G04 #@! TF.FileFunction,Legend,Top*
G04 #@! TF.FilePolarity,Positive*
%FSLAX46Y46*%
G04 Gerber Fmt 4.6, Leading zero omitted, Abs format (unit mm)*
G04 Created by KiCad (PCBNEW (5.1.0)-1) date 2019-04-13 16:10:58*
%MOMM*%
%LPD*%
G04 APERTURE LIST*
%ADD10C,0.120000*%
%ADD11C,0.150000*%
G04 APERTURE END LIST*
D10*
X181491422Y-116210000D02*
X182008578Y-116210000D01*
X181491422Y-114790000D02*
X182008578Y-114790000D01*
X188710000Y-117037221D02*
X188710000Y-117362779D01*
X187690000Y-117037221D02*
X187690000Y-117362779D01*
X177700000Y-102080000D02*
X177700000Y-99420000D01*
X170020000Y-102080000D02*
X177700000Y-102080000D01*
X170020000Y-99420000D02*
X177700000Y-99420000D01*
X170020000Y-102080000D02*
X170020000Y-99420000D01*
X168750000Y-102080000D02*
X167420000Y-102080000D01*
X167420000Y-102080000D02*
X167420000Y-100750000D01*
D11*
X162275000Y-117700000D02*
X166725000Y-117700000D01*
X160750000Y-110800000D02*
X166725000Y-110800000D01*
X190200000Y-123750000D02*
X190200000Y-127950000D01*
X156800000Y-127950000D02*
X156800000Y-119550000D01*
X156800000Y-119550000D02*
X190200000Y-119550000D01*
X190200000Y-119550000D02*
X190200000Y-123750000D01*
X171000000Y-126450000D02*
X171000000Y-127950000D01*
X171000000Y-126450000D02*
X176100000Y-126450000D01*
X176100000Y-126450000D02*
X176100000Y-127950000D01*
X190200000Y-127950000D02*
X176100000Y-127950000D01*
X171000000Y-127950000D02*
X156800000Y-127950000D01*
X160800000Y-123750000D02*
X163400000Y-123750000D01*
X163400000Y-123750000D02*
X163400000Y-126350000D01*
X163400000Y-126350000D02*
X160800000Y-126350000D01*
X160800000Y-126350000D02*
X160800000Y-123750000D01*
D10*
X166837221Y-109260000D02*
X167162779Y-109260000D01*
X166837221Y-108240000D02*
X167162779Y-108240000D01*
X159260000Y-110837221D02*
X159260000Y-111162779D01*
X158240000Y-110837221D02*
X158240000Y-111162779D01*
X178490000Y-116337221D02*
X178490000Y-116662779D01*
X179510000Y-116337221D02*
X179510000Y-116662779D01*
X186760000Y-117087221D02*
X186760000Y-117412779D01*
X185740000Y-117087221D02*
X185740000Y-117412779D01*
X192035000Y-105365000D02*
X188150000Y-105365000D01*
X192035000Y-107635000D02*
X192035000Y-105365000D01*
X188150000Y-107635000D02*
X192035000Y-107635000D01*
X188050000Y-102885000D02*
X191935000Y-102885000D01*
X191935000Y-102885000D02*
X191935000Y-100615000D01*
X191935000Y-100615000D02*
X188050000Y-100615000D01*
D11*
X165250000Y-107201800D02*
X165250000Y-106770000D01*
X164814000Y-107201800D02*
X165250000Y-107201800D01*
X165250000Y-100000000D02*
X165250000Y-100420000D01*
X164814000Y-100000000D02*
X165250000Y-100000000D01*
X156254200Y-100013600D02*
X156254200Y-100166000D01*
X156432000Y-100000000D02*
X156250000Y-100000000D01*
X156254200Y-107201800D02*
X156254200Y-106770000D01*
X156686000Y-107201800D02*
X156254200Y-107201800D01*
X171625000Y-103175000D02*
X171625000Y-103750000D01*
X177375000Y-103175000D02*
X177375000Y-103825000D01*
X177375000Y-113825000D02*
X177375000Y-113175000D01*
X171625000Y-113825000D02*
X171625000Y-113175000D01*
X171625000Y-103175000D02*
X177375000Y-103175000D01*
X171625000Y-113825000D02*
X177375000Y-113825000D01*
X171625000Y-103750000D02*
X170025000Y-103750000D01*
D10*
X186460000Y-105741422D02*
X186460000Y-106258578D01*
X185040000Y-105741422D02*
X185040000Y-106258578D01*
X186460000Y-102508578D02*
X186460000Y-101991422D01*
X185040000Y-102508578D02*
X185040000Y-101991422D01*
X157540000Y-116696078D02*
X157540000Y-116178922D01*
X158960000Y-116696078D02*
X158960000Y-116178922D01*
D11*
X181583333Y-114207142D02*
X181535714Y-114254761D01*
X181392857Y-114302380D01*
X181297619Y-114302380D01*
X181154761Y-114254761D01*
X181059523Y-114159523D01*
X181011904Y-114064285D01*
X180964285Y-113873809D01*
X180964285Y-113730952D01*
X181011904Y-113540476D01*
X181059523Y-113445238D01*
X181154761Y-113350000D01*
X181297619Y-113302380D01*
X181392857Y-113302380D01*
X181535714Y-113350000D01*
X181583333Y-113397619D01*
X181964285Y-113397619D02*
X182011904Y-113350000D01*
X182107142Y-113302380D01*
X182345238Y-113302380D01*
X182440476Y-113350000D01*
X182488095Y-113397619D01*
X182535714Y-113492857D01*
X182535714Y-113588095D01*
X182488095Y-113730952D01*
X181916666Y-114302380D01*
X182535714Y-114302380D01*
X192152380Y-106783333D02*
X192866666Y-106783333D01*
X193009523Y-106830952D01*
X193104761Y-106926190D01*
X193152380Y-107069047D01*
X193152380Y-107164285D01*
X192485714Y-105878571D02*
X193152380Y-105878571D01*
X192104761Y-106116666D02*
X192819047Y-106354761D01*
X192819047Y-105735714D01*
X188033333Y-115452380D02*
X187557142Y-115452380D01*
X187557142Y-114452380D01*
X188319047Y-114547619D02*
X188366666Y-114500000D01*
X188461904Y-114452380D01*
X188700000Y-114452380D01*
X188795238Y-114500000D01*
X188842857Y-114547619D01*
X188890476Y-114642857D01*
X188890476Y-114738095D01*
X188842857Y-114880952D01*
X188271428Y-115452380D01*
X188890476Y-115452380D01*
X166666666Y-102702380D02*
X166666666Y-103416666D01*
X166619047Y-103559523D01*
X166523809Y-103654761D01*
X166380952Y-103702380D01*
X166285714Y-103702380D01*
X167047619Y-102702380D02*
X167666666Y-102702380D01*
X167333333Y-103083333D01*
X167476190Y-103083333D01*
X167571428Y-103130952D01*
X167619047Y-103178571D01*
X167666666Y-103273809D01*
X167666666Y-103511904D01*
X167619047Y-103607142D01*
X167571428Y-103654761D01*
X167476190Y-103702380D01*
X167190476Y-103702380D01*
X167095238Y-103654761D01*
X167047619Y-103607142D01*
X165238095Y-117952380D02*
X165238095Y-118761904D01*
X165285714Y-118857142D01*
X165333333Y-118904761D01*
X165428571Y-118952380D01*
X165619047Y-118952380D01*
X165714285Y-118904761D01*
X165761904Y-118857142D01*
X165809523Y-118761904D01*
X165809523Y-117952380D01*
X166238095Y-118047619D02*
X166285714Y-118000000D01*
X166380952Y-117952380D01*
X166619047Y-117952380D01*
X166714285Y-118000000D01*
X166761904Y-118047619D01*
X166809523Y-118142857D01*
X166809523Y-118238095D01*
X166761904Y-118380952D01*
X166190476Y-118952380D01*
X166809523Y-118952380D01*
X188166666Y-126202380D02*
X188166666Y-126916666D01*
X188119047Y-127059523D01*
X188023809Y-127154761D01*
X187880952Y-127202380D01*
X187785714Y-127202380D01*
X188595238Y-126297619D02*
X188642857Y-126250000D01*
X188738095Y-126202380D01*
X188976190Y-126202380D01*
X189071428Y-126250000D01*
X189119047Y-126297619D01*
X189166666Y-126392857D01*
X189166666Y-126488095D01*
X189119047Y-126630952D01*
X188547619Y-127202380D01*
X189166666Y-127202380D01*
X166833333Y-107677142D02*
X166785714Y-107724761D01*
X166642857Y-107772380D01*
X166547619Y-107772380D01*
X166404761Y-107724761D01*
X166309523Y-107629523D01*
X166261904Y-107534285D01*
X166214285Y-107343809D01*
X166214285Y-107200952D01*
X166261904Y-107010476D01*
X166309523Y-106915238D01*
X166404761Y-106820000D01*
X166547619Y-106772380D01*
X166642857Y-106772380D01*
X166785714Y-106820000D01*
X166833333Y-106867619D01*
X167738095Y-106772380D02*
X167261904Y-106772380D01*
X167214285Y-107248571D01*
X167261904Y-107200952D01*
X167357142Y-107153333D01*
X167595238Y-107153333D01*
X167690476Y-107200952D01*
X167738095Y-107248571D01*
X167785714Y-107343809D01*
X167785714Y-107581904D01*
X167738095Y-107677142D01*
X167690476Y-107724761D01*
X167595238Y-107772380D01*
X167357142Y-107772380D01*
X167261904Y-107724761D01*
X167214285Y-107677142D01*
X156833333Y-111357142D02*
X156785714Y-111404761D01*
X156642857Y-111452380D01*
X156547619Y-111452380D01*
X156404761Y-111404761D01*
X156309523Y-111309523D01*
X156261904Y-111214285D01*
X156214285Y-111023809D01*
X156214285Y-110880952D01*
X156261904Y-110690476D01*
X156309523Y-110595238D01*
X156404761Y-110500000D01*
X156547619Y-110452380D01*
X156642857Y-110452380D01*
X156785714Y-110500000D01*
X156833333Y-110547619D01*
X157690476Y-110785714D02*
X157690476Y-111452380D01*
X157452380Y-110404761D02*
X157214285Y-111119047D01*
X157833333Y-111119047D01*
X177083333Y-116857142D02*
X177035714Y-116904761D01*
X176892857Y-116952380D01*
X176797619Y-116952380D01*
X176654761Y-116904761D01*
X176559523Y-116809523D01*
X176511904Y-116714285D01*
X176464285Y-116523809D01*
X176464285Y-116380952D01*
X176511904Y-116190476D01*
X176559523Y-116095238D01*
X176654761Y-116000000D01*
X176797619Y-115952380D01*
X176892857Y-115952380D01*
X177035714Y-116000000D01*
X177083333Y-116047619D01*
X177416666Y-115952380D02*
X178035714Y-115952380D01*
X177702380Y-116333333D01*
X177845238Y-116333333D01*
X177940476Y-116380952D01*
X177988095Y-116428571D01*
X178035714Y-116523809D01*
X178035714Y-116761904D01*
X177988095Y-116857142D01*
X177940476Y-116904761D01*
X177845238Y-116952380D01*
X177559523Y-116952380D01*
X177464285Y-116904761D01*
X177416666Y-116857142D01*
X184583333Y-119107142D02*
X184535714Y-119154761D01*
X184392857Y-119202380D01*
X184297619Y-119202380D01*
X184154761Y-119154761D01*
X184059523Y-119059523D01*
X184011904Y-118964285D01*
X183964285Y-118773809D01*
X183964285Y-118630952D01*
X184011904Y-118440476D01*
X184059523Y-118345238D01*
X184154761Y-118250000D01*
X184297619Y-118202380D01*
X184392857Y-118202380D01*
X184535714Y-118250000D01*
X184583333Y-118297619D01*
X185535714Y-119202380D02*
X184964285Y-119202380D01*
X185250000Y-119202380D02*
X185250000Y-118202380D01*
X185154761Y-118345238D01*
X185059523Y-118440476D01*
X184964285Y-118488095D01*
X188161904Y-108772380D02*
X188161904Y-107772380D01*
X188400000Y-107772380D01*
X188542857Y-107820000D01*
X188638095Y-107915238D01*
X188685714Y-108010476D01*
X188733333Y-108200952D01*
X188733333Y-108343809D01*
X188685714Y-108534285D01*
X188638095Y-108629523D01*
X188542857Y-108724761D01*
X188400000Y-108772380D01*
X188161904Y-108772380D01*
X189114285Y-107867619D02*
X189161904Y-107820000D01*
X189257142Y-107772380D01*
X189495238Y-107772380D01*
X189590476Y-107820000D01*
X189638095Y-107867619D01*
X189685714Y-107962857D01*
X189685714Y-108058095D01*
X189638095Y-108200952D01*
X189066666Y-108772380D01*
X189685714Y-108772380D01*
X188911904Y-104202380D02*
X188911904Y-103202380D01*
X189150000Y-103202380D01*
X189292857Y-103250000D01*
X189388095Y-103345238D01*
X189435714Y-103440476D01*
X189483333Y-103630952D01*
X189483333Y-103773809D01*
X189435714Y-103964285D01*
X189388095Y-104059523D01*
X189292857Y-104154761D01*
X189150000Y-104202380D01*
X188911904Y-104202380D01*
X190435714Y-104202380D02*
X189864285Y-104202380D01*
X190150000Y-104202380D02*
X190150000Y-103202380D01*
X190054761Y-103345238D01*
X189959523Y-103440476D01*
X189864285Y-103488095D01*
X160094514Y-108549542D02*
X160046895Y-108597161D01*
X159904038Y-108644780D01*
X159808800Y-108644780D01*
X159665942Y-108597161D01*
X159570704Y-108501923D01*
X159523085Y-108406685D01*
X159475466Y-108216209D01*
X159475466Y-108073352D01*
X159523085Y-107882876D01*
X159570704Y-107787638D01*
X159665942Y-107692400D01*
X159808800Y-107644780D01*
X159904038Y-107644780D01*
X160046895Y-107692400D01*
X160094514Y-107740019D01*
X160713561Y-107644780D02*
X160904038Y-107644780D01*
X160999276Y-107692400D01*
X161094514Y-107787638D01*
X161142133Y-107978114D01*
X161142133Y-108311447D01*
X161094514Y-108501923D01*
X160999276Y-108597161D01*
X160904038Y-108644780D01*
X160713561Y-108644780D01*
X160618323Y-108597161D01*
X160523085Y-108501923D01*
X160475466Y-108311447D01*
X160475466Y-107978114D01*
X160523085Y-107787638D01*
X160618323Y-107692400D01*
X160713561Y-107644780D01*
X161570704Y-108644780D02*
X161570704Y-107644780D01*
X162142133Y-108644780D01*
X162142133Y-107644780D01*
X163142133Y-108644780D02*
X162570704Y-108644780D01*
X162856419Y-108644780D02*
X162856419Y-107644780D01*
X162761180Y-107787638D01*
X162665942Y-107882876D01*
X162570704Y-107930495D01*
X174988095Y-114452380D02*
X174988095Y-115261904D01*
X175035714Y-115357142D01*
X175083333Y-115404761D01*
X175178571Y-115452380D01*
X175369047Y-115452380D01*
X175464285Y-115404761D01*
X175511904Y-115357142D01*
X175559523Y-115261904D01*
X175559523Y-114452380D01*
X176559523Y-115452380D02*
X175988095Y-115452380D01*
X176273809Y-115452380D02*
X176273809Y-114452380D01*
X176178571Y-114595238D01*
X176083333Y-114690476D01*
X175988095Y-114738095D01*
X183583333Y-106452380D02*
X183250000Y-105976190D01*
X183011904Y-106452380D02*
X183011904Y-105452380D01*
X183392857Y-105452380D01*
X183488095Y-105500000D01*
X183535714Y-105547619D01*
X183583333Y-105642857D01*
X183583333Y-105785714D01*
X183535714Y-105880952D01*
X183488095Y-105928571D01*
X183392857Y-105976190D01*
X183011904Y-105976190D01*
X183916666Y-105452380D02*
X184535714Y-105452380D01*
X184202380Y-105833333D01*
X184345238Y-105833333D01*
X184440476Y-105880952D01*
X184488095Y-105928571D01*
X184535714Y-106023809D01*
X184535714Y-106261904D01*
X184488095Y-106357142D01*
X184440476Y-106404761D01*
X184345238Y-106452380D01*
X184059523Y-106452380D01*
X183964285Y-106404761D01*
X183916666Y-106357142D01*
X183583333Y-102702380D02*
X183250000Y-102226190D01*
X183011904Y-102702380D02*
X183011904Y-101702380D01*
X183392857Y-101702380D01*
X183488095Y-101750000D01*
X183535714Y-101797619D01*
X183583333Y-101892857D01*
X183583333Y-102035714D01*
X183535714Y-102130952D01*
X183488095Y-102178571D01*
X183392857Y-102226190D01*
X183011904Y-102226190D01*
X183964285Y-101797619D02*
X184011904Y-101750000D01*
X184107142Y-101702380D01*
X184345238Y-101702380D01*
X184440476Y-101750000D01*
X184488095Y-101797619D01*
X184535714Y-101892857D01*
X184535714Y-101988095D01*
X184488095Y-102130952D01*
X183916666Y-102702380D01*
X184535714Y-102702380D01*
X158083333Y-119202380D02*
X157750000Y-118726190D01*
X157511904Y-119202380D02*
X157511904Y-118202380D01*
X157892857Y-118202380D01*
X157988095Y-118250000D01*
X158035714Y-118297619D01*
X158083333Y-118392857D01*
X158083333Y-118535714D01*
X158035714Y-118630952D01*
X157988095Y-118678571D01*
X157892857Y-118726190D01*
X157511904Y-118726190D01*
X159035714Y-119202380D02*
X158464285Y-119202380D01*
X158750000Y-119202380D02*
X158750000Y-118202380D01*
X158654761Y-118345238D01*
X158559523Y-118440476D01*
X158464285Y-118488095D01*
M02*
