G04 #@! TF.GenerationSoftware,KiCad,Pcbnew,(5.1.0)-1*
G04 #@! TF.CreationDate,2019-04-13T16:10:58+02:00*
G04 #@! TF.ProjectId,converterboard,636f6e76-6572-4746-9572-626f6172642e,rev?*
G04 #@! TF.SameCoordinates,Original*
G04 #@! TF.FileFunction,Legend,Bot*
G04 #@! TF.FilePolarity,Positive*
%FSLAX46Y46*%
G04 Gerber Fmt 4.6, Leading zero omitted, Abs format (unit mm)*
G04 Created by KiCad (PCBNEW (5.1.0)-1) date 2019-04-13 16:10:58*
%MOMM*%
%LPD*%
G04 APERTURE LIST*
%ADD10C,0.300000*%
%ADD11C,0.200000*%
G04 APERTURE END LIST*
D10*
X165052380Y-119841071D02*
X164992857Y-119781547D01*
X164814285Y-119722023D01*
X164695238Y-119722023D01*
X164516666Y-119781547D01*
X164397619Y-119900595D01*
X164338095Y-120019642D01*
X164278571Y-120257738D01*
X164278571Y-120436309D01*
X164338095Y-120674404D01*
X164397619Y-120793452D01*
X164516666Y-120912500D01*
X164695238Y-120972023D01*
X164814285Y-120972023D01*
X164992857Y-120912500D01*
X165052380Y-120852976D01*
X165766666Y-119722023D02*
X165647619Y-119781547D01*
X165588095Y-119841071D01*
X165528571Y-119960119D01*
X165528571Y-120317261D01*
X165588095Y-120436309D01*
X165647619Y-120495833D01*
X165766666Y-120555357D01*
X165945238Y-120555357D01*
X166064285Y-120495833D01*
X166123809Y-120436309D01*
X166183333Y-120317261D01*
X166183333Y-119960119D01*
X166123809Y-119841071D01*
X166064285Y-119781547D01*
X165945238Y-119722023D01*
X165766666Y-119722023D01*
X166719047Y-120555357D02*
X166719047Y-119722023D01*
X166719047Y-120436309D02*
X166778571Y-120495833D01*
X166897619Y-120555357D01*
X167076190Y-120555357D01*
X167195238Y-120495833D01*
X167254761Y-120376785D01*
X167254761Y-119722023D01*
X167730952Y-120555357D02*
X168028571Y-119722023D01*
X168326190Y-120555357D01*
X169278571Y-119781547D02*
X169159523Y-119722023D01*
X168921428Y-119722023D01*
X168802380Y-119781547D01*
X168742857Y-119900595D01*
X168742857Y-120376785D01*
X168802380Y-120495833D01*
X168921428Y-120555357D01*
X169159523Y-120555357D01*
X169278571Y-120495833D01*
X169338095Y-120376785D01*
X169338095Y-120257738D01*
X168742857Y-120138690D01*
X169873809Y-119722023D02*
X169873809Y-120555357D01*
X169873809Y-120317261D02*
X169933333Y-120436309D01*
X169992857Y-120495833D01*
X170111904Y-120555357D01*
X170230952Y-120555357D01*
X170469047Y-120555357D02*
X170945238Y-120555357D01*
X170647619Y-120972023D02*
X170647619Y-119900595D01*
X170707142Y-119781547D01*
X170826190Y-119722023D01*
X170945238Y-119722023D01*
X171838095Y-119781547D02*
X171719047Y-119722023D01*
X171480952Y-119722023D01*
X171361904Y-119781547D01*
X171302380Y-119900595D01*
X171302380Y-120376785D01*
X171361904Y-120495833D01*
X171480952Y-120555357D01*
X171719047Y-120555357D01*
X171838095Y-120495833D01*
X171897619Y-120376785D01*
X171897619Y-120257738D01*
X171302380Y-120138690D01*
X172433333Y-119722023D02*
X172433333Y-120555357D01*
X172433333Y-120317261D02*
X172492857Y-120436309D01*
X172552380Y-120495833D01*
X172671428Y-120555357D01*
X172790476Y-120555357D01*
X174159523Y-119722023D02*
X174159523Y-120972023D01*
X174159523Y-120495833D02*
X174278571Y-120555357D01*
X174516666Y-120555357D01*
X174635714Y-120495833D01*
X174695238Y-120436309D01*
X174754761Y-120317261D01*
X174754761Y-119960119D01*
X174695238Y-119841071D01*
X174635714Y-119781547D01*
X174516666Y-119722023D01*
X174278571Y-119722023D01*
X174159523Y-119781547D01*
X175469047Y-119722023D02*
X175350000Y-119781547D01*
X175290476Y-119841071D01*
X175230952Y-119960119D01*
X175230952Y-120317261D01*
X175290476Y-120436309D01*
X175350000Y-120495833D01*
X175469047Y-120555357D01*
X175647619Y-120555357D01*
X175766666Y-120495833D01*
X175826190Y-120436309D01*
X175885714Y-120317261D01*
X175885714Y-119960119D01*
X175826190Y-119841071D01*
X175766666Y-119781547D01*
X175647619Y-119722023D01*
X175469047Y-119722023D01*
X176957142Y-119722023D02*
X176957142Y-120376785D01*
X176897619Y-120495833D01*
X176778571Y-120555357D01*
X176540476Y-120555357D01*
X176421428Y-120495833D01*
X176957142Y-119781547D02*
X176838095Y-119722023D01*
X176540476Y-119722023D01*
X176421428Y-119781547D01*
X176361904Y-119900595D01*
X176361904Y-120019642D01*
X176421428Y-120138690D01*
X176540476Y-120198214D01*
X176838095Y-120198214D01*
X176957142Y-120257738D01*
X177552380Y-119722023D02*
X177552380Y-120555357D01*
X177552380Y-120317261D02*
X177611904Y-120436309D01*
X177671428Y-120495833D01*
X177790476Y-120555357D01*
X177909523Y-120555357D01*
X178861904Y-119722023D02*
X178861904Y-120972023D01*
X178861904Y-119781547D02*
X178742857Y-119722023D01*
X178504761Y-119722023D01*
X178385714Y-119781547D01*
X178326190Y-119841071D01*
X178266666Y-119960119D01*
X178266666Y-120317261D01*
X178326190Y-120436309D01*
X178385714Y-120495833D01*
X178504761Y-120555357D01*
X178742857Y-120555357D01*
X178861904Y-120495833D01*
X165498809Y-117547023D02*
X165082142Y-118142261D01*
X164784523Y-117547023D02*
X164784523Y-118797023D01*
X165260714Y-118797023D01*
X165379761Y-118737500D01*
X165439285Y-118677976D01*
X165498809Y-118558928D01*
X165498809Y-118380357D01*
X165439285Y-118261309D01*
X165379761Y-118201785D01*
X165260714Y-118142261D01*
X164784523Y-118142261D01*
X166510714Y-117606547D02*
X166391666Y-117547023D01*
X166153571Y-117547023D01*
X166034523Y-117606547D01*
X165975000Y-117725595D01*
X165975000Y-118201785D01*
X166034523Y-118320833D01*
X166153571Y-118380357D01*
X166391666Y-118380357D01*
X166510714Y-118320833D01*
X166570238Y-118201785D01*
X166570238Y-118082738D01*
X165975000Y-117963690D01*
X166986904Y-118380357D02*
X167284523Y-117547023D01*
X167582142Y-118380357D01*
X168058333Y-117666071D02*
X168117857Y-117606547D01*
X168058333Y-117547023D01*
X167998809Y-117606547D01*
X168058333Y-117666071D01*
X168058333Y-117547023D01*
X169486904Y-118797023D02*
X170260714Y-118797023D01*
X169844047Y-118320833D01*
X170022619Y-118320833D01*
X170141666Y-118261309D01*
X170201190Y-118201785D01*
X170260714Y-118082738D01*
X170260714Y-117785119D01*
X170201190Y-117666071D01*
X170141666Y-117606547D01*
X170022619Y-117547023D01*
X169665476Y-117547023D01*
X169546428Y-117606547D01*
X169486904Y-117666071D01*
X171748809Y-118023214D02*
X172701190Y-118023214D01*
X174903571Y-117547023D02*
X174189285Y-117547023D01*
X174546428Y-117547023D02*
X174546428Y-118797023D01*
X174427380Y-118618452D01*
X174308333Y-118499404D01*
X174189285Y-118439880D01*
X175498809Y-117547023D02*
X175736904Y-117547023D01*
X175855952Y-117606547D01*
X175915476Y-117666071D01*
X176034523Y-117844642D01*
X176094047Y-118082738D01*
X176094047Y-118558928D01*
X176034523Y-118677976D01*
X175974999Y-118737500D01*
X175855952Y-118797023D01*
X175617857Y-118797023D01*
X175498809Y-118737500D01*
X175439285Y-118677976D01*
X175379761Y-118558928D01*
X175379761Y-118261309D01*
X175439285Y-118142261D01*
X175498809Y-118082738D01*
X175617857Y-118023214D01*
X175855952Y-118023214D01*
X175974999Y-118082738D01*
X176034523Y-118142261D01*
X176094047Y-118261309D01*
X177284523Y-117547023D02*
X176570238Y-117547023D01*
X176927380Y-117547023D02*
X176927380Y-118797023D01*
X176808333Y-118618452D01*
X176689285Y-118499404D01*
X176570238Y-118439880D01*
X178415476Y-118797023D02*
X177820238Y-118797023D01*
X177760714Y-118201785D01*
X177820238Y-118261309D01*
X177939285Y-118320833D01*
X178236904Y-118320833D01*
X178355952Y-118261309D01*
X178415476Y-118201785D01*
X178474999Y-118082738D01*
X178474999Y-117785119D01*
X178415476Y-117666071D01*
X178355952Y-117606547D01*
X178236904Y-117547023D01*
X177939285Y-117547023D01*
X177820238Y-117606547D01*
X177760714Y-117666071D01*
D11*
X176726190Y-102821428D02*
X175964285Y-102821428D01*
X174154761Y-103202380D02*
X174488095Y-102726190D01*
X174726190Y-103202380D02*
X174726190Y-102202380D01*
X174345238Y-102202380D01*
X174250000Y-102250000D01*
X174202380Y-102297619D01*
X174154761Y-102392857D01*
X174154761Y-102535714D01*
X174202380Y-102630952D01*
X174250000Y-102678571D01*
X174345238Y-102726190D01*
X174726190Y-102726190D01*
X173821428Y-102202380D02*
X173154761Y-103202380D01*
X173154761Y-102202380D02*
X173821428Y-103202380D01*
X172154761Y-102202380D02*
X171583333Y-102202380D01*
X171869047Y-103202380D02*
X171869047Y-102202380D01*
X171345238Y-102202380D02*
X170678571Y-103202380D01*
X170678571Y-102202380D02*
X171345238Y-103202380D01*
X169535714Y-102821428D02*
X168773809Y-102821428D01*
X169154761Y-103202380D02*
X169154761Y-102440476D01*
M02*
